{"glyphs":{"0":{"ha":589,"x_min":85,"x_max":818,"o":"m 617 213 q 579 124 603 167 q 518 49 556 81 q 426 -2 481 17 q 300 -18 372 -21 q 214 -3 258 -17 q 138 40 169 10 q 96 121 107 71 q 107 246 85 171 l 278 828 q 388 985 311 939 q 574 1031 464 1031 q 763 965 708 1031 q 778 761 818 900 l 617 213 m 581 803 q 583 849 589 832 q 544 865 576 865 q 501 849 515 865 q 481 807 488 833 l 301 201 q 336 143 285 144 q 379 154 364 142 q 403 196 394 167 l 581 803 z "},"1":{"ha":351,"x_min":93,"x_max":608,"o":"m 310 0 l 93 0 l 336 828 l 242 828 l 382 1010 l 608 1010 l 310 0 z "},"2":{"ha":574,"x_min":56,"x_max":814,"o":"m 461 351 q 394 294 419 318 q 356 252 369 269 q 336 220 342 235 q 329 192 331 206 l 596 192 l 526 0 l 56 0 q 76 108 64 53 q 110 218 89 164 q 163 321 131 272 q 242 408 194 369 l 463 592 q 507 631 486 611 q 535 672 528 650 l 576 821 q 558 847 585 847 l 504 847 q 487 842 493 847 q 476 822 481 838 l 443 708 l 250 708 l 339 1010 l 685 1010 q 783 973 751 1010 q 792 864 814 936 l 721 621 q 681 544 708 581 q 622 483 653 507 l 461 351 z "},"3":{"ha":493,"x_min":46,"x_max":740,"o":"m 271 828 l 324 1010 l 615 1010 q 712 973 683 1010 q 724 879 740 936 l 644 611 q 604 540 632 565 q 511 511 576 515 q 558 494 542 507 q 582 462 575 481 q 587 422 589 443 q 579 381 585 400 l 497 100 q 445 26 482 51 q 338 0 408 0 l 46 0 l 103 192 l 279 192 q 306 195 294 192 q 325 221 318 199 l 372 379 q 373 413 379 399 q 343 426 367 426 l 206 426 l 258 606 l 400 606 q 428 610 415 606 q 449 639 442 615 l 493 789 q 497 818 500 808 q 469 828 493 828 l 271 828 z "},"4":{"ha":632,"x_min":83,"x_max":828,"o":"m 679 214 l 593 214 l 529 0 l 321 0 l 385 214 l 83 214 l 144 426 l 536 1010 l 828 1010 l 638 365 l 724 365 l 679 214 m 428 365 l 535 732 l 325 383 l 319 365 l 428 365 z "},"5":{"ha":540,"x_min":63,"x_max":768,"o":"m 488 828 l 421 603 l 563 603 q 640 571 615 603 q 647 482 664 539 l 526 71 q 488 19 517 38 q 414 0 458 0 l 63 0 l 119 192 l 317 192 q 349 197 343 192 q 361 218 354 201 l 417 406 q 400 424 421 424 l 160 424 l 332 1010 l 768 1010 l 714 828 l 488 828 z "},"6":{"ha":589,"x_min":63,"x_max":806,"o":"m 601 161 q 532 41 578 82 q 410 0 486 0 l 211 0 q 97 49 131 0 q 90 188 63 99 l 289 864 q 361 975 311 940 q 486 1010 411 1010 l 806 1010 l 754 828 l 515 828 q 476 797 485 828 l 439 668 l 592 668 q 697 628 671 668 q 703 508 724 589 l 601 161 m 496 499 q 497 526 503 518 q 469 533 492 533 l 399 533 l 300 197 q 305 173 294 178 q 331 168 315 168 l 371 168 q 398 178 390 168 q 410 203 406 188 l 496 499 z "},"7":{"ha":525,"x_min":132,"x_max":797,"o":"m 765 900 l 353 0 l 132 0 l 522 828 l 269 828 l 324 1010 l 797 1010 l 765 900 z "},"8":{"ha":600,"x_min":58,"x_max":836,"o":"m 306 910 q 358 984 321 958 q 465 1010 394 1010 l 708 1010 q 806 973 776 1010 q 819 879 836 936 l 743 621 q 703 550 731 575 q 611 521 676 525 q 658 504 642 518 q 682 472 675 490 q 687 431 689 453 q 679 390 685 410 l 599 113 q 549 32 583 64 q 444 0 515 0 l 185 0 q 88 40 117 0 q 76 142 58 81 l 156 408 q 196 481 168 454 q 289 510 224 507 q 242 527 258 514 q 220 558 226 540 q 216 598 214 576 q 225 639 218 619 l 306 910 m 526 847 q 501 843 511 847 q 483 817 490 839 l 426 629 q 422 597 419 610 q 449 585 425 585 l 494 585 q 520 588 510 585 q 538 615 531 592 l 594 808 q 597 838 601 828 q 568 847 592 847 l 526 847 m 369 168 q 397 172 385 168 q 415 199 408 176 l 478 408 q 481 439 485 428 q 454 450 478 450 l 410 450 q 383 445 394 450 q 365 417 372 440 l 303 207 q 301 178 296 188 q 331 168 307 168 l 369 168 z "},"9":{"ha":592,"x_min":86,"x_max":831,"o":"m 290 871 q 359 979 313 949 q 481 1010 406 1010 l 683 1010 q 797 970 764 1010 q 806 843 831 931 l 596 131 q 569 67 585 93 q 530 27 553 42 q 476 6 507 13 q 403 0 444 0 l 86 0 l 142 192 l 368 192 q 396 197 385 192 q 414 226 407 203 l 443 321 l 282 321 q 181 365 207 321 q 178 485 156 410 l 290 871 m 389 494 q 391 472 383 479 q 411 465 399 465 l 486 465 l 593 826 q 590 851 599 846 q 567 856 582 856 l 528 856 q 486 822 496 856 l 389 494 z "}," ":{"ha":174,"x_min":0,"x_max":0,"o":""},"D":{"ha":656,"x_min":36,"x_max":1011,"o":"m 732 1179 q 693 1228 746 1228 l 285 1228 l 413 1429 l 867 1429 q 978 1382 946 1429 q 990 1264 1011 1335 l 663 151 q 626 78 650 107 q 571 31 601 49 q 505 7 540 14 q 433 0 469 0 l 36 0 l 386 1194 l 619 1194 l 326 201 l 410 201 q 456 238 444 201 l 732 1179 z "},"E":{"ha":528,"x_min":35,"x_max":910,"o":"m 619 1194 l 513 829 l 736 829 l 676 624 l 451 624 l 332 215 l 581 215 l 463 0 l 35 0 l 386 1194 l 619 1194 m 851 1228 l 285 1228 l 413 1429 l 910 1429 l 851 1228 z "},"F":{"ha":507,"x_min":35,"x_max":910,"o":"m 386 1194 l 619 1194 l 513 829 l 724 829 l 663 624 l 451 624 l 268 0 l 35 0 l 386 1194 m 851 1228 l 285 1228 l 413 1429 l 910 1429 l 851 1228 z "},"G":{"ha":665,"x_min":92,"x_max":981,"o":"m 981 1429 l 919 1228 l 675 1228 q 638 1219 651 1228 q 618 1183 625 1211 l 344 256 q 348 213 336 225 q 392 201 360 201 l 453 201 l 601 704 l 549 704 l 614 910 l 894 910 l 635 25 l 364 -112 l 397 0 l 304 0 q 210 15 254 0 q 138 61 167 29 q 100 143 108 93 q 113 264 92 193 l 417 1296 q 488 1402 440 1375 q 607 1429 536 1429 l 981 1429 z "},"H":{"ha":656,"x_min":35,"x_max":1042,"o":"m 539 517 l 575 640 l 458 640 l 268 0 l 35 0 l 456 1429 l 689 1429 l 511 824 l 629 824 l 667 950 l 815 718 l 539 517 m 822 683 l 621 0 l 385 0 l 522 463 l 822 683 m 678 992 l 807 1429 l 1042 1429 l 840 743 l 678 992 z "},"I":{"ha":524,"x_min":35,"x_max":922,"o":"m 728 1194 l 439 215 l 564 215 l 500 0 l 35 0 l 97 215 l 204 215 l 493 1194 l 728 1194 m 363 1228 l 446 1429 l 922 1429 l 863 1228 l 363 1228 z "},"J":{"ha":653,"x_min":75,"x_max":1036,"o":"m 426 1228 l 554 1429 l 1036 1429 l 976 1228 l 426 1228 m 967 1194 l 657 143 q 581 32 633 64 q 456 0 529 0 l 219 0 q 153 12 183 0 q 103 47 122 24 q 80 103 85 69 q 88 181 75 136 l 235 678 l 468 678 l 336 231 q 333 212 333 222 q 351 201 332 201 l 406 201 q 438 211 429 201 q 456 251 447 221 l 732 1194 l 967 1194 z "},"K":{"ha":653,"x_min":35,"x_max":1067,"o":"m 268 0 l 35 0 l 208 590 l 443 590 l 268 0 m 456 1429 l 685 1429 l 488 757 l 500 757 l 826 1429 l 1067 1429 l 718 742 q 767 725 749 739 q 794 690 786 711 q 801 642 803 669 q 792 586 800 615 l 618 0 l 383 0 l 551 567 q 553 609 560 594 q 515 624 546 624 l 218 624 l 456 1429 z "},"L":{"ha":529,"x_min":60,"x_max":693,"o":"m 581 215 l 463 0 l 138 0 q 107 7 122 0 q 80 28 92 14 q 64 63 68 42 q 68 114 60 85 l 456 1429 l 693 1429 l 336 215 l 581 215 z "},"M":{"ha":996,"x_min":35,"x_max":1353,"o":"m 614 0 l 381 0 l 732 1194 l 965 1194 l 614 0 m 268 0 l 35 0 l 386 1194 l 619 1194 l 268 0 m 1074 1179 q 1035 1228 1088 1228 l 285 1228 l 413 1429 l 1210 1429 q 1321 1382 1289 1429 q 1332 1264 1353 1335 l 960 0 l 726 0 l 1074 1179 z "},"N":{"ha":651,"x_min":35,"x_max":1007,"o":"m 268 0 l 35 0 l 386 1194 l 619 1194 l 268 0 m 728 1179 q 689 1228 742 1228 l 285 1228 l 413 1429 l 864 1429 q 975 1382 943 1429 q 986 1264 1007 1335 l 614 0 l 381 0 l 728 1179 z "},"O":{"ha":658,"x_min":78,"x_max":1014,"o":"m 735 1179 q 696 1228 749 1228 l 285 1228 l 413 1429 l 869 1429 q 981 1382 949 1429 q 993 1264 1014 1335 l 669 151 q 633 78 657 107 q 578 31 608 49 q 512 7 547 14 q 440 0 476 0 l 226 0 q 158 13 189 0 q 107 49 126 25 q 83 110 88 74 q 92 194 78 146 l 386 1194 l 619 1194 l 338 238 q 363 201 326 201 l 419 201 q 447 210 438 201 q 461 238 456 219 l 735 1179 z "},"P":{"ha":650,"x_min":35,"x_max":1004,"o":"m 533 615 q 567 626 553 615 q 593 669 582 636 l 740 1172 q 703 1228 756 1228 l 285 1228 l 413 1429 l 867 1429 q 975 1382 946 1429 q 983 1264 1004 1335 l 782 588 q 764 538 775 565 q 731 488 753 511 q 676 449 710 464 q 590 433 642 433 l 397 435 l 268 0 l 35 0 l 386 1194 l 619 1194 l 450 615 l 533 615 z "},"Q":{"ha":658,"x_min":78,"x_max":1014,"o":"m 217 0 q 150 13 179 0 q 103 49 121 25 q 81 110 85 74 q 92 194 78 146 l 386 1194 l 619 1194 l 338 238 q 364 201 326 201 l 408 201 q 457 238 447 201 l 735 1179 q 696 1228 749 1228 l 285 1228 l 413 1429 l 869 1429 q 981 1382 949 1429 q 993 1264 1014 1335 l 665 151 q 630 78 653 107 q 578 31 607 49 q 515 7 549 14 q 444 0 481 0 l 390 -171 l 160 -171 l 217 0 z "},"R":{"ha":650,"x_min":35,"x_max":1004,"o":"m 578 767 q 613 777 597 767 q 638 821 628 788 l 740 1172 q 703 1228 756 1228 l 285 1228 l 413 1429 l 867 1429 q 975 1382 946 1429 q 983 1264 1004 1335 l 826 739 q 790 681 817 707 q 710 656 764 656 q 770 607 760 651 q 763 501 781 563 l 614 0 l 381 0 l 542 544 q 540 575 547 564 q 511 586 533 586 l 442 586 l 268 0 l 35 0 l 386 1194 l 619 1194 l 494 767 l 578 767 z "},"S":{"ha":640,"x_min":61,"x_max":1026,"o":"m 650 797 q 722 786 690 797 q 772 751 753 775 q 794 689 790 726 q 782 599 797 651 l 640 117 q 609 56 629 79 q 565 21 589 33 q 513 4 540 8 q 460 0 486 0 l 186 0 q 94 43 126 0 q 82 156 61 86 l 151 394 l 372 394 l 319 219 q 322 197 314 201 q 343 192 331 192 l 396 192 q 425 198 415 192 q 440 224 435 204 l 553 604 q 553 618 556 613 q 538 624 551 624 l 219 624 l 271 797 l 650 797 m 281 831 l 422 1310 q 451 1371 433 1347 q 492 1408 469 1394 q 542 1425 515 1421 q 594 1429 568 1429 l 1026 1429 l 911 1035 l 676 982 l 754 1244 l 667 1244 q 638 1238 647 1244 q 624 1213 629 1232 l 513 831 l 281 831 z "},"T":{"ha":308,"x_min":38,"x_max":899,"o":"m 624 1194 l 271 0 l 38 0 l 389 1194 l 624 1194 m 185 1228 l 272 1429 l 899 1429 l 839 1228 l 185 1228 z "},"U":{"ha":651,"x_min":86,"x_max":1035,"o":"m 689 1429 l 344 260 q 345 215 335 228 q 388 201 356 201 l 439 201 l 801 1429 l 1035 1429 l 621 25 l 350 -112 l 383 0 l 278 0 q 183 13 224 0 q 118 53 142 25 q 90 128 94 82 q 106 240 86 174 l 456 1429 l 689 1429 z "},"V":{"ha":624,"x_min":258,"x_max":1089,"o":"m 454 1429 l 683 1429 l 549 635 l 854 1429 l 1089 1429 l 482 0 l 258 0 l 454 1429 z "},"W":{"ha":988,"x_min":258,"x_max":1446,"o":"m 447 1429 l 686 1429 l 572 714 l 854 1429 l 1038 1429 l 924 714 l 1199 1429 l 1446 1429 l 821 0 l 611 0 l 713 622 l 472 0 l 258 0 l 447 1429 z "},"X":{"ha":658,"x_min":35,"x_max":1044,"o":"m 860 799 q 717 714 833 713 q 763 701 744 713 q 792 672 782 689 q 803 631 803 654 q 797 585 804 608 l 624 0 l 389 0 l 564 594 q 564 621 568 610 q 536 632 560 632 l 501 632 q 466 626 476 632 q 450 601 456 621 l 271 0 l 35 0 l 211 596 q 227 637 218 617 q 252 674 236 657 q 292 701 268 690 q 354 714 317 713 q 283 751 300 718 q 279 829 265 783 l 456 1429 l 694 1429 l 518 832 q 520 803 511 810 q 547 797 529 797 l 588 797 q 617 804 606 797 q 635 836 628 811 l 808 1429 l 1044 1429 l 860 799 z "},"Y":{"ha":657,"x_min":163,"x_max":1147,"o":"m 599 1429 l 631 882 l 900 1429 l 1147 1429 l 407 0 l 163 0 l 440 546 l 361 1429 l 599 1429 z "},"C":{"ha":593,"x_min":81,"x_max":1017,"o":"m 900 1035 l 669 982 l 747 1244 l 667 1244 q 638 1238 647 1244 q 624 1213 629 1232 l 346 265 q 349 226 338 238 q 385 215 360 215 l 638 215 l 521 0 l 249 0 q 174 12 208 0 q 117 49 140 24 q 88 113 94 74 q 97 208 81 153 l 424 1322 q 480 1408 443 1386 q 575 1429 517 1429 l 1017 1429 l 900 1035 z "},"ƒ":{"ha":917,"x_min":-144,"x_max":882,"o":"m 882 0 l 653 0 l 653 33 l 882 278 l 882 0 m 653 81 l 653 207 l 315 207 l 106 -253 l -144 -253 l 624 1429 l 882 1429 l 882 318 l 653 564 l 653 946 l 400 390 l 653 390 l 653 515 l 857 297 l 653 81 z "},"&":{"ha":807,"x_min":78,"x_max":939,"o":"m 408 469 q 372 431 382 469 l 308 215 q 306 189 301 196 q 325 181 310 182 q 363 182 342 179 q 394 193 383 185 l 483 260 l 408 469 m 889 403 q 856 346 881 364 l 706 232 l 717 200 q 729 192 718 192 l 844 192 l 775 0 l 638 0 q 576 39 594 0 l 543 111 q 477 53 504 75 q 429 20 450 32 q 390 4 408 8 q 354 0 372 0 l 236 0 q 166 13 199 0 q 113 50 133 25 q 85 111 92 75 q 92 194 78 147 l 167 449 q 243 560 190 526 q 364 593 296 593 q 339 649 353 618 q 331 715 325 679 q 358 831 343 778 q 402 924 374 885 q 476 987 431 964 q 594 1010 521 1010 l 874 1010 l 819 828 l 621 828 q 575 822 594 828 q 547 788 556 815 l 538 754 q 538 729 535 744 q 544 703 540 714 l 653 386 l 699 421 q 719 451 717 436 l 757 633 l 939 633 l 889 403 z "},"$":{"ha":1074,"x_min":46,"x_max":1028,"o":"m 536 4 q 345 43 435 4 q 189 149 256 82 q 84 305 122 215 q 46 496 46 394 q 84 687 46 597 q 189 843 122 776 q 345 949 256 910 q 536 988 435 988 q 727 949 638 988 q 883 843 817 910 q 989 687 950 776 q 1028 496 1028 597 q 989 305 1028 394 q 883 149 950 215 q 727 43 817 82 q 536 4 638 4 m 536 71 q 702 104 625 71 q 836 196 779 138 q 926 331 893 254 q 960 496 960 408 q 926 660 960 583 q 836 795 893 738 q 702 886 779 853 q 536 919 625 919 q 372 886 449 919 q 236 795 294 853 q 144 660 178 738 q 111 496 111 583 q 144 331 111 408 q 236 196 178 254 q 372 104 294 138 q 536 71 449 71 m 536 100 q 383 131 454 100 q 257 216 311 163 q 172 342 203 269 q 140 496 140 414 q 172 648 140 576 q 257 773 203 719 q 383 857 311 826 q 536 888 454 888 q 689 857 617 888 q 815 773 761 826 q 899 648 868 719 q 931 496 931 576 q 899 342 931 414 q 815 216 868 269 q 689 131 761 163 q 536 100 617 100 m 536 161 q 611 176 576 161 q 674 212 646 190 q 723 260 701 233 q 758 310 744 286 q 537 281 647 281 q 314 310 426 282 q 349 260 328 286 q 398 212 369 233 q 460 176 426 190 q 536 161 494 161 m 300 331 q 774 331 535 276 l 849 450 l 224 450 l 300 331 m 590 496 l 538 622 l 485 496 l 590 496 m 408 593 q 419 592 411 590 q 435 599 426 594 q 449 607 443 603 q 454 613 454 611 q 422 693 435 651 q 386 768 410 735 q 368 768 382 774 q 340 753 354 763 q 314 733 325 743 q 306 721 303 724 l 408 593 m 767 721 q 759 733 769 724 q 734 753 749 743 q 706 768 719 763 q 688 768 692 774 q 650 693 661 735 q 622 613 639 651 q 625 607 619 611 q 638 599 631 603 q 654 592 646 594 q 667 593 663 590 l 767 721 m 896 69 l 875 69 l 875 85 l 932 85 l 932 69 l 911 69 l 911 17 l 896 17 l 896 69 m 939 85 l 960 85 l 972 32 l 985 85 l 1004 85 l 1004 17 l 992 17 l 992 69 l 978 17 l 965 17 l 951 69 l 951 17 l 939 17 l 939 85 z "},".":{"ha":267,"x_min":35,"x_max":290,"o":"m 92 192 l 290 192 l 232 0 l 35 0 l 92 192 z "},",":{"ha":267,"x_min":35,"x_max":290,"o":"m 92 192 l 290 192 l 232 0 l 92 -140 l 135 0 l 35 0 l 92 192 z "},"!":{"ha":304,"x_min":56,"x_max":578,"o":"m 324 1010 l 578 1010 l 303 253 l 149 253 l 324 1010 m 113 192 l 311 192 l 253 0 l 56 0 l 113 192 z "},"?":{"ha":593,"x_min":129,"x_max":824,"o":"m 519 861 q 499 853 504 861 q 488 829 493 846 l 451 706 l 243 706 l 307 925 q 335 976 317 958 q 376 1001 354 994 q 422 1009 399 1008 q 467 1010 446 1010 l 719 1010 q 776 998 754 1010 q 810 967 799 986 q 822 924 821 949 q 815 874 824 900 l 699 481 q 667 435 692 458 q 589 411 642 411 l 444 411 l 399 253 l 204 253 l 289 540 l 475 540 q 501 547 490 540 q 518 575 511 553 l 590 817 q 596 849 596 836 q 572 861 596 861 l 519 861 m 186 192 l 385 192 l 326 0 l 129 0 l 186 192 z "},";":{"ha":268,"x_min":35,"x_max":440,"o":"m 242 706 l 440 706 l 382 514 l 185 514 l 242 706 m 35 0 l 135 0 l 92 -140 l 232 0 l 290 192 l 92 192 l 35 0 z "},":":{"ha":268,"x_min":35,"x_max":440,"o":"m 242 706 l 440 706 l 382 514 l 185 514 l 242 706 m 92 192 l 290 192 l 232 0 l 35 0 l 92 192 z "},"(":{"ha":1074,"x_min":46,"x_max":1028,"o":"m 536 4 q 345 43 435 4 q 189 149 256 82 q 84 305 122 215 q 46 496 46 394 q 84 687 46 597 q 189 843 122 776 q 345 949 256 910 q 536 988 435 988 q 727 949 638 988 q 883 843 817 910 q 989 687 950 776 q 1028 496 1028 597 q 989 305 1028 394 q 883 149 950 215 q 727 43 817 82 q 536 4 638 4 m 536 71 q 702 104 625 71 q 836 196 779 138 q 926 331 893 254 q 960 496 960 408 q 926 660 960 583 q 836 795 893 738 q 702 886 779 853 q 536 919 625 919 q 372 886 449 919 q 236 795 294 853 q 144 660 178 738 q 111 496 111 583 q 144 331 111 408 q 236 196 178 254 q 372 104 294 138 q 536 71 449 71 m 536 100 q 383 131 454 100 q 257 216 311 163 q 172 342 203 269 q 140 496 140 414 q 172 648 140 576 q 257 773 203 719 q 383 857 311 826 q 536 888 454 888 q 689 857 617 888 q 815 773 761 826 q 899 648 868 719 q 931 496 931 576 q 899 342 931 414 q 815 216 868 269 q 689 131 761 163 q 536 100 617 100 m 536 161 q 611 176 576 161 q 674 212 646 190 q 723 260 701 233 q 758 310 744 286 q 537 281 647 281 q 314 310 426 282 q 349 260 328 286 q 398 212 369 233 q 460 176 426 190 q 536 161 494 161 m 300 331 q 774 331 535 276 l 849 450 l 224 450 l 300 331 m 590 496 l 538 622 l 485 496 l 590 496 m 408 593 q 419 592 411 590 q 435 599 426 594 q 449 607 443 603 q 454 613 454 611 q 422 693 435 651 q 386 768 410 735 q 368 768 382 774 q 340 753 354 763 q 314 733 325 743 q 306 721 303 724 l 408 593 m 767 721 q 759 733 769 724 q 734 753 749 743 q 706 768 719 763 q 688 768 692 774 q 650 693 661 735 q 622 613 639 651 q 625 607 619 611 q 638 599 631 603 q 654 592 646 594 q 667 593 663 590 l 767 721 m 896 69 l 875 69 l 875 85 l 932 85 l 932 69 l 911 69 l 911 17 l 896 17 l 896 69 m 939 85 l 960 85 l 972 32 l 985 85 l 1004 85 l 1004 17 l 992 17 l 992 69 l 978 17 l 965 17 l 951 69 l 951 17 l 939 17 l 939 85 z "},")":{"ha":1074,"x_min":46,"x_max":1028,"o":"m 536 4 q 345 43 435 4 q 189 149 256 82 q 84 305 122 215 q 46 496 46 394 q 84 687 46 597 q 189 843 122 776 q 345 949 256 910 q 536 988 435 988 q 727 949 638 988 q 883 843 817 910 q 989 687 950 776 q 1028 496 1028 597 q 989 305 1028 394 q 883 149 950 215 q 727 43 817 82 q 536 4 638 4 m 536 71 q 702 104 625 71 q 836 196 779 138 q 926 331 893 254 q 960 496 960 408 q 926 660 960 583 q 836 795 893 738 q 702 886 779 853 q 536 919 625 919 q 372 886 449 919 q 236 795 294 853 q 144 660 178 738 q 111 496 111 583 q 144 331 111 408 q 236 196 178 254 q 372 104 294 138 q 536 71 449 71 m 536 100 q 383 131 454 100 q 257 216 311 163 q 172 342 203 269 q 140 496 140 414 q 172 648 140 576 q 257 773 203 719 q 383 857 311 826 q 536 888 454 888 q 689 857 617 888 q 815 773 761 826 q 899 648 868 719 q 931 496 931 576 q 899 342 931 414 q 815 216 868 269 q 689 131 761 163 q 536 100 617 100 m 536 161 q 611 176 576 161 q 674 212 646 190 q 723 260 701 233 q 758 310 744 286 q 537 281 647 281 q 314 310 426 282 q 349 260 328 286 q 398 212 369 233 q 460 176 426 190 q 536 161 494 161 m 300 331 q 774 331 535 276 l 849 450 l 224 450 l 300 331 m 590 496 l 538 622 l 485 496 l 590 496 m 408 593 q 419 592 411 590 q 435 599 426 594 q 449 607 443 603 q 454 613 454 611 q 422 693 435 651 q 386 768 410 735 q 368 768 382 774 q 340 753 354 763 q 314 733 325 743 q 306 721 303 724 l 408 593 m 767 721 q 759 733 769 724 q 734 753 749 743 q 706 768 719 763 q 688 768 692 774 q 650 693 661 735 q 622 613 639 651 q 625 607 619 611 q 638 599 631 603 q 654 592 646 594 q 667 593 663 590 l 767 721 m 896 69 l 875 69 l 875 85 l 932 85 l 932 69 l 911 69 l 911 17 l 896 17 l 896 69 m 939 85 l 960 85 l 972 32 l 985 85 l 1004 85 l 1004 17 l 992 17 l 992 69 l 978 17 l 965 17 l 951 69 l 951 17 l 939 17 l 939 85 z "},"-":{"ha":342,"x_min":160,"x_max":485,"o":"m 213 606 l 485 606 l 432 426 l 160 426 l 213 606 z "},"'":{"ha":249,"x_min":228,"x_max":524,"o":"m 322 1010 l 524 1010 l 347 588 l 228 588 l 322 1010 z "},"\"":{"ha":496,"x_min":228,"x_max":771,"o":"m 771 1010 l 594 588 l 475 588 l 569 1010 l 771 1010 m 525 1010 l 347 588 l 228 588 l 322 1010 l 525 1010 z "},"#":{"ha":1074,"x_min":46,"x_max":1028,"o":"m 536 4 q 345 43 435 4 q 189 149 256 82 q 84 305 122 215 q 46 496 46 394 q 84 687 46 597 q 189 843 122 776 q 345 949 256 910 q 536 988 435 988 q 727 949 638 988 q 883 843 817 910 q 989 687 950 776 q 1028 496 1028 597 q 989 305 1028 394 q 883 149 950 215 q 727 43 817 82 q 536 4 638 4 m 536 71 q 702 104 625 71 q 836 196 779 138 q 926 331 893 254 q 960 496 960 408 q 926 660 960 583 q 836 795 893 738 q 702 886 779 853 q 536 919 625 919 q 372 886 449 919 q 236 795 294 853 q 144 660 178 738 q 111 496 111 583 q 144 331 111 408 q 236 196 178 254 q 372 104 294 138 q 536 71 449 71 m 536 100 q 383 131 454 100 q 257 216 311 163 q 172 342 203 269 q 140 496 140 414 q 172 648 140 576 q 257 773 203 719 q 383 857 311 826 q 536 888 454 888 q 689 857 617 888 q 815 773 761 826 q 899 648 868 719 q 931 496 931 576 q 899 342 931 414 q 815 216 868 269 q 689 131 761 163 q 536 100 617 100 m 536 161 q 611 176 576 161 q 674 212 646 190 q 723 260 701 233 q 758 310 744 286 q 537 281 647 281 q 314 310 426 282 q 349 260 328 286 q 398 212 369 233 q 460 176 426 190 q 536 161 494 161 m 300 331 q 774 331 535 276 l 849 450 l 224 450 l 300 331 m 590 496 l 538 622 l 485 496 l 590 496 m 408 593 q 419 592 411 590 q 435 599 426 594 q 449 607 443 603 q 454 613 454 611 q 422 693 435 651 q 386 768 410 735 q 368 768 382 774 q 340 753 354 763 q 314 733 325 743 q 306 721 303 724 l 408 593 m 767 721 q 759 733 769 724 q 734 753 749 743 q 706 768 719 763 q 688 768 692 774 q 650 693 661 735 q 622 613 639 651 q 625 607 619 611 q 638 599 631 603 q 654 592 646 594 q 667 593 663 590 l 767 721 m 896 69 l 875 69 l 875 85 l 932 85 l 932 69 l 911 69 l 911 17 l 896 17 l 896 69 m 939 85 l 960 85 l 972 32 l 985 85 l 1004 85 l 1004 17 l 992 17 l 992 69 l 978 17 l 965 17 l 951 69 l 951 17 l 939 17 l 939 85 z "},"_":{"ha":506,"x_min":-14,"x_max":492,"o":"m 39 -19 l 492 -19 l 439 -199 l -14 -199 l 39 -19 z "},"@":{"ha":864,"x_min":61,"x_max":1107,"o":"m 693 193 q 636 183 665 186 q 582 181 607 181 q 467 222 500 181 q 457 342 435 264 l 547 653 q 579 703 557 682 q 629 737 601 724 q 688 756 657 750 q 749 761 719 761 q 854 746 814 761 l 875 819 q 874 851 882 843 q 846 858 865 858 l 529 858 q 488 829 494 858 l 290 158 q 292 128 283 136 q 315 121 300 121 l 788 121 l 706 0 l 196 0 q 93 44 125 0 q 81 154 61 88 l 289 868 q 320 938 301 911 q 363 981 339 965 q 414 1003 386 997 q 474 1010 442 1010 l 1013 1010 q 1083 981 1060 1010 q 1093 899 1107 953 l 886 193 l 693 193 m 733 336 l 819 629 l 749 629 q 728 624 736 629 q 715 604 719 619 l 644 361 q 647 341 640 346 q 661 336 654 336 l 733 336 z "},"¿":{"ha":1074,"x_min":46,"x_max":1028,"o":"m 536 4 q 345 43 435 4 q 189 149 256 82 q 84 305 122 215 q 46 496 46 394 q 84 687 46 597 q 189 843 122 776 q 345 949 256 910 q 536 988 435 988 q 727 949 638 988 q 883 843 817 910 q 989 687 950 776 q 1028 496 1028 597 q 989 305 1028 394 q 883 149 950 215 q 727 43 817 82 q 536 4 638 4 m 536 71 q 702 104 625 71 q 836 196 779 138 q 926 331 893 254 q 960 496 960 408 q 926 660 960 583 q 836 795 893 738 q 702 886 779 853 q 536 919 625 919 q 372 886 449 919 q 236 795 294 853 q 144 660 178 738 q 111 496 111 583 q 144 331 111 408 q 236 196 178 254 q 372 104 294 138 q 536 71 449 71 m 536 100 q 383 131 454 100 q 257 216 311 163 q 172 342 203 269 q 140 496 140 414 q 172 648 140 576 q 257 773 203 719 q 383 857 311 826 q 536 888 454 888 q 689 857 617 888 q 815 773 761 826 q 899 648 868 719 q 931 496 931 576 q 899 342 931 414 q 815 216 868 269 q 689 131 761 163 q 536 100 617 100 m 536 161 q 611 176 576 161 q 674 212 646 190 q 723 260 701 233 q 758 310 744 286 q 537 281 647 281 q 314 310 426 282 q 349 260 328 286 q 398 212 369 233 q 460 176 426 190 q 536 161 494 161 m 300 331 q 774 331 535 276 l 849 450 l 224 450 l 300 331 m 590 496 l 538 622 l 485 496 l 590 496 m 408 593 q 419 592 411 590 q 435 599 426 594 q 449 607 443 603 q 454 613 454 611 q 422 693 435 651 q 386 768 410 735 q 368 768 382 774 q 340 753 354 763 q 314 733 325 743 q 306 721 303 724 l 408 593 m 767 721 q 759 733 769 724 q 734 753 749 743 q 706 768 719 763 q 688 768 692 774 q 650 693 661 735 q 622 613 639 651 q 625 607 619 611 q 638 599 631 603 q 654 592 646 594 q 667 593 663 590 l 767 721 m 896 69 l 875 69 l 875 85 l 932 85 l 932 69 l 911 69 l 911 17 l 896 17 l 896 69 m 939 85 l 960 85 l 972 32 l 985 85 l 1004 85 l 1004 17 l 992 17 l 992 69 l 978 17 l 965 17 l 951 69 l 951 17 l 939 17 l 939 85 z "},"¡":{"ha":1074,"x_min":46,"x_max":1028,"o":"m 536 4 q 345 43 435 4 q 189 149 256 82 q 84 305 122 215 q 46 496 46 394 q 84 687 46 597 q 189 843 122 776 q 345 949 256 910 q 536 988 435 988 q 727 949 638 988 q 883 843 817 910 q 989 687 950 776 q 1028 496 1028 597 q 989 305 1028 394 q 883 149 950 215 q 727 43 817 82 q 536 4 638 4 m 536 71 q 702 104 625 71 q 836 196 779 138 q 926 331 893 254 q 960 496 960 408 q 926 660 960 583 q 836 795 893 738 q 702 886 779 853 q 536 919 625 919 q 372 886 449 919 q 236 795 294 853 q 144 660 178 738 q 111 496 111 583 q 144 331 111 408 q 236 196 178 254 q 372 104 294 138 q 536 71 449 71 m 536 100 q 383 131 454 100 q 257 216 311 163 q 172 342 203 269 q 140 496 140 414 q 172 648 140 576 q 257 773 203 719 q 383 857 311 826 q 536 888 454 888 q 689 857 617 888 q 815 773 761 826 q 899 648 868 719 q 931 496 931 576 q 899 342 931 414 q 815 216 868 269 q 689 131 761 163 q 536 100 617 100 m 536 161 q 611 176 576 161 q 674 212 646 190 q 723 260 701 233 q 758 310 744 286 q 537 281 647 281 q 314 310 426 282 q 349 260 328 286 q 398 212 369 233 q 460 176 426 190 q 536 161 494 161 m 300 331 q 774 331 535 276 l 849 450 l 224 450 l 300 331 m 590 496 l 538 622 l 485 496 l 590 496 m 408 593 q 419 592 411 590 q 435 599 426 594 q 449 607 443 603 q 454 613 454 611 q 422 693 435 651 q 386 768 410 735 q 368 768 382 774 q 340 753 354 763 q 314 733 325 743 q 306 721 303 724 l 408 593 m 767 721 q 759 733 769 724 q 734 753 749 743 q 706 768 719 763 q 688 768 692 774 q 650 693 661 735 q 622 613 639 651 q 625 607 619 611 q 638 599 631 603 q 654 592 646 594 q 667 593 663 590 l 767 721 m 896 69 l 875 69 l 875 85 l 932 85 l 932 69 l 911 69 l 911 17 l 896 17 l 896 69 m 939 85 l 960 85 l 972 32 l 985 85 l 1004 85 l 1004 17 l 992 17 l 992 69 l 978 17 l 965 17 l 951 69 l 951 17 l 939 17 l 939 85 z "},"¢":{"ha":1074,"x_min":46,"x_max":1028,"o":"m 536 4 q 345 43 435 4 q 189 149 256 82 q 84 305 122 215 q 46 496 46 394 q 84 687 46 597 q 189 843 122 776 q 345 949 256 910 q 536 988 435 988 q 727 949 638 988 q 883 843 817 910 q 989 687 950 776 q 1028 496 1028 597 q 989 305 1028 394 q 883 149 950 215 q 727 43 817 82 q 536 4 638 4 m 536 71 q 702 104 625 71 q 836 196 779 138 q 926 331 893 254 q 960 496 960 408 q 926 660 960 583 q 836 795 893 738 q 702 886 779 853 q 536 919 625 919 q 372 886 449 919 q 236 795 294 853 q 144 660 178 738 q 111 496 111 583 q 144 331 111 408 q 236 196 178 254 q 372 104 294 138 q 536 71 449 71 m 536 100 q 383 131 454 100 q 257 216 311 163 q 172 342 203 269 q 140 496 140 414 q 172 648 140 576 q 257 773 203 719 q 383 857 311 826 q 536 888 454 888 q 689 857 617 888 q 815 773 761 826 q 899 648 868 719 q 931 496 931 576 q 899 342 931 414 q 815 216 868 269 q 689 131 761 163 q 536 100 617 100 m 536 161 q 611 176 576 161 q 674 212 646 190 q 723 260 701 233 q 758 310 744 286 q 537 281 647 281 q 314 310 426 282 q 349 260 328 286 q 398 212 369 233 q 460 176 426 190 q 536 161 494 161 m 300 331 q 774 331 535 276 l 849 450 l 224 450 l 300 331 m 590 496 l 538 622 l 485 496 l 590 496 m 408 593 q 419 592 411 590 q 435 599 426 594 q 449 607 443 603 q 454 613 454 611 q 422 693 435 651 q 386 768 410 735 q 368 768 382 774 q 340 753 354 763 q 314 733 325 743 q 306 721 303 724 l 408 593 m 767 721 q 759 733 769 724 q 734 753 749 743 q 706 768 719 763 q 688 768 692 774 q 650 693 661 735 q 622 613 639 651 q 625 607 619 611 q 638 599 631 603 q 654 592 646 594 q 667 593 663 590 l 767 721 m 896 69 l 875 69 l 875 85 l 932 85 l 932 69 l 911 69 l 911 17 l 896 17 l 896 69 m 939 85 l 960 85 l 972 32 l 985 85 l 1004 85 l 1004 17 l 992 17 l 992 69 l 978 17 l 965 17 l 951 69 l 951 17 l 939 17 l 939 85 z "},"ß":{"ha":1074,"x_min":46,"x_max":1028,"o":"m 536 4 q 345 43 435 4 q 189 149 256 82 q 84 305 122 215 q 46 496 46 394 q 84 687 46 597 q 189 843 122 776 q 345 949 256 910 q 536 988 435 988 q 727 949 638 988 q 883 843 817 910 q 989 687 950 776 q 1028 496 1028 597 q 989 305 1028 394 q 883 149 950 215 q 727 43 817 82 q 536 4 638 4 m 536 71 q 702 104 625 71 q 836 196 779 138 q 926 331 893 254 q 960 496 960 408 q 926 660 960 583 q 836 795 893 738 q 702 886 779 853 q 536 919 625 919 q 372 886 449 919 q 236 795 294 853 q 144 660 178 738 q 111 496 111 583 q 144 331 111 408 q 236 196 178 254 q 372 104 294 138 q 536 71 449 71 m 536 100 q 383 131 454 100 q 257 216 311 163 q 172 342 203 269 q 140 496 140 414 q 172 648 140 576 q 257 773 203 719 q 383 857 311 826 q 536 888 454 888 q 689 857 617 888 q 815 773 761 826 q 899 648 868 719 q 931 496 931 576 q 899 342 931 414 q 815 216 868 269 q 689 131 761 163 q 536 100 617 100 m 536 161 q 611 176 576 161 q 674 212 646 190 q 723 260 701 233 q 758 310 744 286 q 537 281 647 281 q 314 310 426 282 q 349 260 328 286 q 398 212 369 233 q 460 176 426 190 q 536 161 494 161 m 300 331 q 774 331 535 276 l 849 450 l 224 450 l 300 331 m 590 496 l 538 622 l 485 496 l 590 496 m 408 593 q 419 592 411 590 q 435 599 426 594 q 449 607 443 603 q 454 613 454 611 q 422 693 435 651 q 386 768 410 735 q 368 768 382 774 q 340 753 354 763 q 314 733 325 743 q 306 721 303 724 l 408 593 m 767 721 q 759 733 769 724 q 734 753 749 743 q 706 768 719 763 q 688 768 692 774 q 650 693 661 735 q 622 613 639 651 q 625 607 619 611 q 638 599 631 603 q 654 592 646 594 q 667 593 663 590 l 767 721 m 896 69 l 875 69 l 875 85 l 932 85 l 932 69 l 911 69 l 911 17 l 896 17 l 896 69 m 939 85 l 960 85 l 972 32 l 985 85 l 1004 85 l 1004 17 l 992 17 l 992 69 l 978 17 l 965 17 l 951 69 l 951 17 l 939 17 l 939 85 z "},"€":{"ha":1074,"x_min":46,"x_max":1028,"o":"m 536 4 q 345 43 435 4 q 189 149 256 82 q 84 305 122 215 q 46 496 46 394 q 84 687 46 597 q 189 843 122 776 q 345 949 256 910 q 536 988 435 988 q 727 949 638 988 q 883 843 817 910 q 989 687 950 776 q 1028 496 1028 597 q 989 305 1028 394 q 883 149 950 215 q 727 43 817 82 q 536 4 638 4 m 536 71 q 702 104 625 71 q 836 196 779 138 q 926 331 893 254 q 960 496 960 408 q 926 660 960 583 q 836 795 893 738 q 702 886 779 853 q 536 919 625 919 q 372 886 449 919 q 236 795 294 853 q 144 660 178 738 q 111 496 111 583 q 144 331 111 408 q 236 196 178 254 q 372 104 294 138 q 536 71 449 71 m 536 100 q 383 131 454 100 q 257 216 311 163 q 172 342 203 269 q 140 496 140 414 q 172 648 140 576 q 257 773 203 719 q 383 857 311 826 q 536 888 454 888 q 689 857 617 888 q 815 773 761 826 q 899 648 868 719 q 931 496 931 576 q 899 342 931 414 q 815 216 868 269 q 689 131 761 163 q 536 100 617 100 m 536 161 q 611 176 576 161 q 674 212 646 190 q 723 260 701 233 q 758 310 744 286 q 537 281 647 281 q 314 310 426 282 q 349 260 328 286 q 398 212 369 233 q 460 176 426 190 q 536 161 494 161 m 300 331 q 774 331 535 276 l 849 450 l 224 450 l 300 331 m 590 496 l 538 622 l 485 496 l 590 496 m 408 593 q 419 592 411 590 q 435 599 426 594 q 449 607 443 603 q 454 613 454 611 q 422 693 435 651 q 386 768 410 735 q 368 768 382 774 q 340 753 354 763 q 314 733 325 743 q 306 721 303 724 l 408 593 m 767 721 q 759 733 769 724 q 734 753 749 743 q 706 768 719 763 q 688 768 692 774 q 650 693 661 735 q 622 613 639 651 q 625 607 619 611 q 638 599 631 603 q 654 592 646 594 q 667 593 663 590 l 767 721 m 896 69 l 875 69 l 875 85 l 932 85 l 932 69 l 911 69 l 911 17 l 896 17 l 896 69 m 939 85 l 960 85 l 972 32 l 985 85 l 1004 85 l 1004 17 l 992 17 l 992 69 l 978 17 l 965 17 l 951 69 l 951 17 l 939 17 l 939 85 z "},"¤":{"ha":1074,"x_min":46,"x_max":1028,"o":"m 536 4 q 345 43 435 4 q 189 149 256 82 q 84 305 122 215 q 46 496 46 394 q 84 687 46 597 q 189 843 122 776 q 345 949 256 910 q 536 988 435 988 q 727 949 638 988 q 883 843 817 910 q 989 687 950 776 q 1028 496 1028 597 q 989 305 1028 394 q 883 149 950 215 q 727 43 817 82 q 536 4 638 4 m 536 71 q 702 104 625 71 q 836 196 779 138 q 926 331 893 254 q 960 496 960 408 q 926 660 960 583 q 836 795 893 738 q 702 886 779 853 q 536 919 625 919 q 372 886 449 919 q 236 795 294 853 q 144 660 178 738 q 111 496 111 583 q 144 331 111 408 q 236 196 178 254 q 372 104 294 138 q 536 71 449 71 m 536 100 q 383 131 454 100 q 257 216 311 163 q 172 342 203 269 q 140 496 140 414 q 172 648 140 576 q 257 773 203 719 q 383 857 311 826 q 536 888 454 888 q 689 857 617 888 q 815 773 761 826 q 899 648 868 719 q 931 496 931 576 q 899 342 931 414 q 815 216 868 269 q 689 131 761 163 q 536 100 617 100 m 536 161 q 611 176 576 161 q 674 212 646 190 q 723 260 701 233 q 758 310 744 286 q 537 281 647 281 q 314 310 426 282 q 349 260 328 286 q 398 212 369 233 q 460 176 426 190 q 536 161 494 161 m 300 331 q 774 331 535 276 l 849 450 l 224 450 l 300 331 m 590 496 l 538 622 l 485 496 l 590 496 m 408 593 q 419 592 411 590 q 435 599 426 594 q 449 607 443 603 q 454 613 454 611 q 422 693 435 651 q 386 768 410 735 q 368 768 382 774 q 340 753 354 763 q 314 733 325 743 q 306 721 303 724 l 408 593 m 767 721 q 759 733 769 724 q 734 753 749 743 q 706 768 719 763 q 688 768 692 774 q 650 693 661 735 q 622 613 639 651 q 625 607 619 611 q 638 599 631 603 q 654 592 646 594 q 667 593 663 590 l 767 721 m 896 69 l 875 69 l 875 85 l 932 85 l 932 69 l 911 69 l 911 17 l 896 17 l 896 69 m 939 85 l 960 85 l 972 32 l 985 85 l 1004 85 l 1004 17 l 992 17 l 992 69 l 978 17 l 965 17 l 951 69 l 951 17 l 939 17 l 939 85 z "},"•":{"ha":853,"x_min":218,"x_max":932,"o":"m 575 861 q 714 833 649 861 q 828 757 779 806 q 904 643 876 708 q 932 504 932 578 q 904 365 932 431 q 828 251 876 300 q 714 175 779 203 q 575 147 649 147 q 461 166 515 147 q 362 219 407 185 q 284 299 317 253 q 235 399 251 344 l 349 399 q 440 295 379 335 q 575 256 500 256 q 672 275 626 256 q 753 328 718 294 q 807 408 788 363 q 826 504 826 453 q 807 601 826 556 q 753 682 788 647 q 672 736 718 717 q 575 756 626 756 q 441 716 500 756 q 351 613 382 676 l 235 613 q 285 713 253 667 q 363 791 318 758 q 462 842 408 824 q 575 861 515 861 m 228 425 l 575 425 l 575 317 l 753 504 l 575 693 l 575 586 l 228 586 q 218 504 218 551 q 228 425 218 464 z "},"”":{"ha":1074,"x_min":46,"x_max":1028,"o":"m 536 4 q 345 43 435 4 q 189 149 256 82 q 84 305 122 215 q 46 496 46 394 q 84 687 46 597 q 189 843 122 776 q 345 949 256 910 q 536 988 435 988 q 727 949 638 988 q 883 843 817 910 q 989 687 950 776 q 1028 496 1028 597 q 989 305 1028 394 q 883 149 950 215 q 727 43 817 82 q 536 4 638 4 m 536 71 q 702 104 625 71 q 836 196 779 138 q 926 331 893 254 q 960 496 960 408 q 926 660 960 583 q 836 795 893 738 q 702 886 779 853 q 536 919 625 919 q 372 886 449 919 q 236 795 294 853 q 144 660 178 738 q 111 496 111 583 q 144 331 111 408 q 236 196 178 254 q 372 104 294 138 q 536 71 449 71 m 536 100 q 383 131 454 100 q 257 216 311 163 q 172 342 203 269 q 140 496 140 414 q 172 648 140 576 q 257 773 203 719 q 383 857 311 826 q 536 888 454 888 q 689 857 617 888 q 815 773 761 826 q 899 648 868 719 q 931 496 931 576 q 899 342 931 414 q 815 216 868 269 q 689 131 761 163 q 536 100 617 100 m 536 161 q 611 176 576 161 q 674 212 646 190 q 723 260 701 233 q 758 310 744 286 q 537 281 647 281 q 314 310 426 282 q 349 260 328 286 q 398 212 369 233 q 460 176 426 190 q 536 161 494 161 m 300 331 q 774 331 535 276 l 849 450 l 224 450 l 300 331 m 590 496 l 538 622 l 485 496 l 590 496 m 408 593 q 419 592 411 590 q 435 599 426 594 q 449 607 443 603 q 454 613 454 611 q 422 693 435 651 q 386 768 410 735 q 368 768 382 774 q 340 753 354 763 q 314 733 325 743 q 306 721 303 724 l 408 593 m 767 721 q 759 733 769 724 q 734 753 749 743 q 706 768 719 763 q 688 768 692 774 q 650 693 661 735 q 622 613 639 651 q 625 607 619 611 q 638 599 631 603 q 654 592 646 594 q 667 593 663 590 l 767 721 m 896 69 l 875 69 l 875 85 l 932 85 l 932 69 l 911 69 l 911 17 l 896 17 l 896 69 m 939 85 l 960 85 l 972 32 l 985 85 l 1004 85 l 1004 17 l 992 17 l 992 69 l 978 17 l 965 17 l 951 69 l 951 17 l 939 17 l 939 85 z "},"“":{"ha":728,"x_min":35,"x_max":931,"o":"m 679 1121 l 646 1121 l 442 474 l 554 474 l 679 1121 m 35 0 l 556 1429 l 931 1429 l 693 0 l 464 0 l 514 257 l 365 257 l 275 0 l 35 0 z "},"’":{"ha":1074,"x_min":46,"x_max":1028,"o":"m 536 4 q 345 43 435 4 q 189 149 256 82 q 84 305 122 215 q 46 496 46 394 q 84 687 46 597 q 189 843 122 776 q 345 949 256 910 q 536 988 435 988 q 727 949 638 988 q 883 843 817 910 q 989 687 950 776 q 1028 496 1028 597 q 989 305 1028 394 q 883 149 950 215 q 727 43 817 82 q 536 4 638 4 m 536 71 q 702 104 625 71 q 836 196 779 138 q 926 331 893 254 q 960 496 960 408 q 926 660 960 583 q 836 795 893 738 q 702 886 779 853 q 536 919 625 919 q 372 886 449 919 q 236 795 294 853 q 144 660 178 738 q 111 496 111 583 q 144 331 111 408 q 236 196 178 254 q 372 104 294 138 q 536 71 449 71 m 536 100 q 383 131 454 100 q 257 216 311 163 q 172 342 203 269 q 140 496 140 414 q 172 648 140 576 q 257 773 203 719 q 383 857 311 826 q 536 888 454 888 q 689 857 617 888 q 815 773 761 826 q 899 648 868 719 q 931 496 931 576 q 899 342 931 414 q 815 216 868 269 q 689 131 761 163 q 536 100 617 100 m 536 161 q 611 176 576 161 q 674 212 646 190 q 723 260 701 233 q 758 310 744 286 q 537 281 647 281 q 314 310 426 282 q 349 260 328 286 q 398 212 369 233 q 460 176 426 190 q 536 161 494 161 m 300 331 q 774 331 535 276 l 849 450 l 224 450 l 300 331 m 590 496 l 538 622 l 485 496 l 590 496 m 408 593 q 419 592 411 590 q 435 599 426 594 q 449 607 443 603 q 454 613 454 611 q 422 693 435 651 q 386 768 410 735 q 368 768 382 774 q 340 753 354 763 q 314 733 325 743 q 306 721 303 724 l 408 593 m 767 721 q 759 733 769 724 q 734 753 749 743 q 706 768 719 763 q 688 768 692 774 q 650 693 661 735 q 622 613 639 651 q 625 607 619 611 q 638 599 631 603 q 654 592 646 594 q 667 593 663 590 l 767 721 m 896 69 l 875 69 l 875 85 l 932 85 l 932 69 l 911 69 l 911 17 l 896 17 l 896 69 m 939 85 l 960 85 l 972 32 l 985 85 l 1004 85 l 1004 17 l 992 17 l 992 69 l 978 17 l 965 17 l 951 69 l 951 17 l 939 17 l 939 85 z "},"‘":{"ha":749,"x_min":35,"x_max":714,"o":"m 451 1121 l 356 474 l 479 474 l 479 1121 l 451 1121 m 297 1429 l 714 1429 l 714 0 l 479 0 l 479 257 l 314 257 l 271 0 l 35 0 l 297 1429 z "},"‚":{"ha":638,"x_min":-322,"x_max":928,"o":"m 744 0 l 511 0 l 515 29 l 778 257 l 744 0 m 519 81 l 536 207 l 213 207 l -46 -253 l -322 -253 l 632 1429 l 928 1429 l 785 311 l 578 561 l 622 949 l 322 390 l 557 390 l 572 514 l 761 288 l 519 81 z "},"„":{"ha":910,"x_min":-237,"x_max":1296,"o":"m 703 207 l 372 207 l 39 -253 l -237 -253 l 1006 1429 l 1296 1429 l 875 0 l 639 0 l 703 207 m 932 972 l 511 390 l 756 390 l 932 972 z "},"†":{"ha":917,"x_min":-144,"x_max":882,"o":"m 882 0 l 653 0 l 653 207 l 315 207 l 106 -253 l -144 -253 l 624 1429 l 882 1429 l 882 0 m 653 390 l 653 946 l 400 390 l 653 390 z "},"…":{"ha":779,"x_min":-322,"x_max":928,"o":"m 533 207 l 213 207 l -46 -253 l -322 -253 l 632 1429 l 928 1429 l 744 0 l 504 0 l 533 207 m 650 1003 l 322 390 l 558 390 l 650 1003 z "},"[":{"ha":528,"x_min":60,"x_max":910,"o":"m 456 1429 l 910 1429 l 851 1228 l 631 1228 l 513 829 l 736 829 l 676 624 l 453 624 l 332 215 l 581 215 l 463 0 l 138 0 q 107 7 122 0 q 80 28 92 14 q 64 63 68 42 q 68 114 60 85 l 456 1429 z "},"]":{"ha":528,"x_min":60,"x_max":910,"o":"m 581 215 l 463 0 l 138 0 q 107 7 122 0 q 80 28 92 14 q 64 63 68 42 q 68 114 60 85 l 386 1194 l 619 1194 l 513 829 l 736 829 l 676 624 l 451 624 l 332 215 l 581 215 m 851 1228 l 285 1228 l 413 1429 l 910 1429 l 851 1228 z "},"}":{"ha":360,"x_min":82,"x_max":943,"o":"m 289 1429 l 943 1429 l 883 1228 l 678 1228 l 317 0 l 82 0 l 443 1228 l 229 1228 l 289 1429 l 289 1429 z "},"{":{"ha":507,"x_min":35,"x_max":910,"o":"m 403 1250 l 382 1429 l 910 1429 l 851 1228 l 629 1228 l 513 829 l 724 829 l 663 624 l 451 624 l 268 0 l 35 0 l 403 1250 z "},"\\":{"ha":528,"x_min":60,"x_max":910,"o":"m 851 1228 l 629 1228 l 513 829 l 736 829 l 676 624 l 451 624 l 332 215 l 581 215 l 463 0 l 140 0 q 109 7 125 0 q 81 28 93 14 q 65 63 69 42 q 68 114 60 85 l 403 1250 l 382 1429 l 910 1429 l 851 1228 z "},"^":{"ha":528,"x_min":35,"x_max":910,"o":"m 454 1429 l 910 1429 l 851 1228 l 629 1228 l 513 829 l 736 829 l 676 624 l 451 624 l 332 215 l 581 215 l 463 0 l 35 0 l 454 1429 z "},"~":{"ha":507,"x_min":35,"x_max":910,"o":"m 851 1228 l 629 1228 l 513 829 l 724 829 l 663 624 l 451 624 l 271 0 l 35 0 l 456 1429 l 910 1429 l 851 1228 z "},"|":{"ha":528,"x_min":35,"x_max":910,"o":"m 851 1228 l 629 1228 l 513 829 l 738 829 l 674 624 l 451 624 l 332 215 l 581 215 l 463 0 l 35 0 l 403 1250 l 385 1429 l 910 1429 l 851 1228 z "},"£":{"ha":1074,"x_min":46,"x_max":1028,"o":"m 536 4 q 345 43 435 4 q 189 149 256 82 q 84 305 122 215 q 46 496 46 394 q 84 687 46 597 q 189 843 122 776 q 345 949 256 910 q 536 988 435 988 q 727 949 638 988 q 883 843 817 910 q 989 687 950 776 q 1028 496 1028 597 q 989 305 1028 394 q 883 149 950 215 q 727 43 817 82 q 536 4 638 4 m 536 71 q 702 104 625 71 q 836 196 779 138 q 926 331 893 254 q 960 496 960 408 q 926 660 960 583 q 836 795 893 738 q 702 886 779 853 q 536 919 625 919 q 372 886 449 919 q 236 795 294 853 q 144 660 178 738 q 111 496 111 583 q 144 331 111 408 q 236 196 178 254 q 372 104 294 138 q 536 71 449 71 m 536 100 q 383 131 454 100 q 257 216 311 163 q 172 342 203 269 q 140 496 140 414 q 172 648 140 576 q 257 773 203 719 q 383 857 311 826 q 536 888 454 888 q 689 857 617 888 q 815 773 761 826 q 899 648 868 719 q 931 496 931 576 q 899 342 931 414 q 815 216 868 269 q 689 131 761 163 q 536 100 617 100 m 536 161 q 611 176 576 161 q 674 212 646 190 q 723 260 701 233 q 758 310 744 286 q 537 281 647 281 q 314 310 426 282 q 349 260 328 286 q 398 212 369 233 q 460 176 426 190 q 536 161 494 161 m 300 331 q 774 331 535 276 l 849 450 l 224 450 l 300 331 m 590 496 l 538 622 l 485 496 l 590 496 m 408 593 q 419 592 411 590 q 435 599 426 594 q 449 607 443 603 q 454 613 454 611 q 422 693 435 651 q 386 768 410 735 q 368 768 382 774 q 340 753 354 763 q 314 733 325 743 q 306 721 303 724 l 408 593 m 767 721 q 759 733 769 724 q 734 753 749 743 q 706 768 719 763 q 688 768 692 774 q 650 693 661 735 q 622 613 639 651 q 625 607 619 611 q 638 599 631 603 q 654 592 646 594 q 667 593 663 590 l 767 721 m 896 69 l 875 69 l 875 85 l 932 85 l 932 69 l 911 69 l 911 17 l 896 17 l 896 69 m 939 85 l 960 85 l 972 32 l 985 85 l 1004 85 l 1004 17 l 992 17 l 992 69 l 978 17 l 965 17 l 951 69 l 951 17 l 939 17 l 939 85 z "},"<":{"ha":524,"x_min":35,"x_max":922,"o":"m 738 1228 l 435 201 l 560 201 l 500 0 l 35 0 l 93 201 l 200 201 l 503 1228 l 378 1228 l 438 1429 l 922 1429 l 863 1228 l 738 1228 z "},"=":{"ha":653,"x_min":75,"x_max":1036,"o":"m 657 143 q 581 31 633 63 q 456 0 529 0 l 219 0 q 153 12 183 0 q 103 47 122 24 q 80 103 85 69 q 88 181 75 136 l 235 678 l 468 678 l 336 231 q 333 212 333 222 q 351 201 332 201 l 406 201 q 438 211 429 201 q 456 251 447 221 l 742 1228 l 426 1228 l 554 1429 l 1036 1429 l 657 143 z "},">":{"ha":654,"x_min":76,"x_max":1043,"o":"m 394 1228 l 454 1429 l 1043 1429 l 440 215 l 693 215 l 613 0 l 76 0 l 699 1228 l 394 1228 z "},"Z":{"ha":654,"x_min":76,"x_max":1047,"o":"m 938 1228 l 394 1228 l 496 1429 l 1047 1429 l 938 1228 m 674 1194 l 921 1194 l 440 215 l 693 215 l 613 0 l 76 0 l 674 1194 z "},"A":{"ha":910,"x_min":-237,"x_max":1296,"o":"m 875 0 l 640 0 l 650 31 l 953 257 l 875 0 m 664 82 l 701 207 l 372 207 l 39 -253 l -237 -253 l 1000 1429 l 1296 1429 l 968 308 l 804 558 l 915 943 l 511 390 l 754 390 l 792 514 l 942 288 l 664 82 z "},"B":{"ha":650,"x_min":35,"x_max":1004,"o":"m 35 0 l 386 1194 l 619 1194 l 511 822 l 592 822 q 628 830 614 822 q 653 871 642 838 l 740 1172 q 703 1228 756 1228 l 285 1228 l 413 1429 l 867 1429 q 975 1382 946 1429 q 983 1264 1004 1335 l 843 794 q 807 737 833 763 q 726 711 781 711 q 787 663 776 707 q 779 557 797 618 l 660 151 q 623 78 647 107 q 568 31 599 49 q 502 7 538 14 q 431 0 467 0 l 35 0 m 328 201 l 406 201 q 451 238 440 201 l 558 600 q 557 631 564 619 q 528 642 550 642 l 458 642 l 328 201 z "},"¾":{"ha":1371,"x_min":160,"x_max":1604,"o":"m 358 -65 q 213 182 265 44 q 160 472 160 319 q 220 781 160 636 q 385 1038 281 926 q 632 1219 490 1150 q 935 1300 774 1289 l 846 1106 q 644 1022 738 1081 q 483 881 551 964 q 376 693 415 797 q 338 472 338 589 q 366 283 338 375 q 443 117 394 192 l 358 -65 m 1604 -78 q 1331 -281 1490 -206 q 988 -356 1172 -356 q 783 -331 881 -356 q 596 -257 685 -306 l 669 -93 q 820 -156 740 -133 q 988 -178 900 -178 q 1169 -151 1082 -178 q 1332 -78 1256 -125 l 1604 -78 m 1336 0 l 1107 0 l 1107 33 l 1336 278 l 1336 0 m 1107 81 l 1107 207 l 769 207 l 540 -297 l 290 -297 l 1078 1429 l 1336 1429 l 1336 318 l 1107 564 l 1107 946 l 854 390 l 1107 390 l 1107 515 l 1311 297 l 1107 81 z "},"¹":{"ha":1113,"x_min":153,"x_max":1692,"o":"m 1692 -78 q 1560 -236 1636 -165 q 1394 -358 1485 -307 q 1201 -436 1304 -408 q 986 -464 1097 -464 q 662 -399 814 -464 q 397 -220 510 -333 q 218 45 283 -107 q 153 369 153 197 q 215 688 153 539 q 386 949 278 836 q 640 1129 494 1061 q 951 1204 785 1197 l 926 1024 q 693 957 801 1013 q 504 814 585 901 q 378 613 424 726 q 332 369 332 499 q 383 114 332 233 q 524 -94 435 -6 q 731 -233 613 -182 q 986 -285 850 -285 q 1253 -229 1129 -285 q 1467 -78 1376 -174 l 1692 -78 z "},"±":{"ha":1257,"x_min":110,"x_max":1643,"o":"m 1050 207 l 719 207 l 386 -253 l 110 -253 l 1353 1429 l 1643 1429 l 1222 0 l 986 0 l 1050 207 m 1279 972 l 858 390 l 1103 390 l 1279 972 m 583 -37 q 769 -141 667 -104 q 988 -178 872 -178 q 1172 -152 1083 -178 q 1336 -78 1261 -126 l 1607 -78 q 1333 -281 1493 -207 q 988 -356 1174 -356 q 715 -310 844 -356 q 481 -182 586 -264 l 583 -37 m 282 39 q 192 243 224 135 q 160 472 160 351 q 225 795 160 644 q 403 1058 290 946 q 666 1236 515 1171 q 988 1301 817 1301 q 1070 1297 1029 1301 q 1149 1286 1111 1293 l 1028 1122 q 762 1083 888 1131 q 542 947 636 1036 q 392 735 447 858 q 338 472 338 613 q 353 327 338 397 q 400 193 369 257 l 282 39 z "},"²":{"ha":1186,"x_min":160,"x_max":1607,"o":"m 1082 207 l 761 207 l 503 -253 l 226 -253 l 1181 1429 l 1476 1429 l 1293 0 l 1053 0 l 1082 207 m 1199 1003 l 871 390 l 1107 390 l 1199 1003 m 321 -18 q 202 210 244 86 q 160 472 160 333 q 190 695 160 588 q 276 897 221 803 q 409 1066 331 990 q 583 1195 488 1142 q 788 1276 678 1249 q 1018 1301 899 1304 l 914 1119 q 687 1050 792 1106 q 504 908 582 994 q 382 710 426 822 q 338 472 338 599 q 358 304 338 385 q 419 153 379 224 l 321 -18 m 639 -78 q 803 -151 714 -125 q 988 -178 892 -178 q 1172 -152 1085 -178 q 1336 -78 1260 -126 l 1607 -78 q 1333 -281 1493 -207 q 988 -356 1174 -356 q 758 -324 867 -356 q 554 -233 650 -292 l 639 -78 z "},"³":{"ha":1371,"x_min":160,"x_max":1604,"o":"m 1336 0 l 1107 0 l 1107 207 l 769 207 l 540 -297 l 290 -297 l 1078 1429 l 1336 1429 l 1336 0 m 1107 390 l 1107 946 l 854 390 l 1107 390 m 358 -65 q 213 182 265 44 q 160 472 160 319 q 220 781 160 636 q 385 1038 281 926 q 632 1219 490 1150 q 935 1300 774 1289 l 846 1106 q 644 1022 738 1081 q 483 881 551 964 q 376 693 415 797 q 338 472 338 589 q 366 283 338 375 q 443 117 394 192 l 358 -65 m 1604 -78 q 1331 -281 1490 -206 q 988 -356 1172 -356 q 783 -331 881 -356 q 596 -257 685 -306 l 669 -93 q 820 -156 740 -133 q 988 -178 900 -178 q 1169 -151 1082 -178 q 1332 -78 1256 -125 l 1604 -78 z "},"¦":{"ha":842,"x_min":35,"x_max":1228,"o":"m 514 843 l 267 0 l 35 0 l 456 1429 l 683 1429 l 689 929 l 990 1429 l 1228 1429 l 806 0 l 572 0 l 821 843 l 521 349 l 514 843 z "},"§":{"ha":657,"x_min":35,"x_max":1044,"o":"m 268 0 l 35 0 l 457 1429 l 647 1429 l 731 1147 l 814 1429 l 1044 1429 l 622 0 l 392 0 l 632 813 l 564 1003 l 268 0 z "},"Ü":{"ha":1074,"x_min":46,"x_max":1028,"o":"m 536 4 q 345 43 435 4 q 189 149 256 82 q 84 305 122 215 q 46 496 46 394 q 84 687 46 597 q 189 843 122 776 q 345 949 256 910 q 536 988 435 988 q 727 949 638 988 q 883 843 817 910 q 989 687 950 776 q 1028 496 1028 597 q 989 305 1028 394 q 883 149 950 215 q 727 43 817 82 q 536 4 638 4 m 536 71 q 702 104 625 71 q 836 196 779 138 q 926 331 893 254 q 960 496 960 408 q 926 660 960 583 q 836 795 893 738 q 702 886 779 853 q 536 919 625 919 q 372 886 449 919 q 236 795 294 853 q 144 660 178 738 q 111 496 111 583 q 144 331 111 408 q 236 196 178 254 q 372 104 294 138 q 536 71 449 71 m 536 100 q 383 131 454 100 q 257 216 311 163 q 172 342 203 269 q 140 496 140 414 q 172 648 140 576 q 257 773 203 719 q 383 857 311 826 q 536 888 454 888 q 689 857 617 888 q 815 773 761 826 q 899 648 868 719 q 931 496 931 576 q 899 342 931 414 q 815 216 868 269 q 689 131 761 163 q 536 100 617 100 m 536 161 q 611 176 576 161 q 674 212 646 190 q 723 260 701 233 q 758 310 744 286 q 537 281 647 281 q 314 310 426 282 q 349 260 328 286 q 398 212 369 233 q 460 176 426 190 q 536 161 494 161 m 300 331 q 774 331 535 276 l 849 450 l 224 450 l 300 331 m 590 496 l 538 622 l 485 496 l 590 496 m 408 593 q 419 592 411 590 q 435 599 426 594 q 449 607 443 603 q 454 613 454 611 q 422 693 435 651 q 386 768 410 735 q 368 768 382 774 q 340 753 354 763 q 314 733 325 743 q 306 721 303 724 l 408 593 m 767 721 q 759 733 769 724 q 734 753 749 743 q 706 768 719 763 q 688 768 692 774 q 650 693 661 735 q 622 613 639 651 q 625 607 619 611 q 638 599 631 603 q 654 592 646 594 q 667 593 663 590 l 767 721 m 896 69 l 875 69 l 875 85 l 932 85 l 932 69 l 911 69 l 911 17 l 896 17 l 896 69 m 939 85 l 960 85 l 972 32 l 985 85 l 1004 85 l 1004 17 l 992 17 l 992 69 l 978 17 l 965 17 l 951 69 l 951 17 l 939 17 l 939 85 z "},"Ý":{"ha":1067,"x_min":153,"x_max":1692,"o":"m 746 979 q 580 882 656 943 q 449 742 504 821 q 364 568 394 663 q 333 371 333 474 q 385 115 333 235 q 525 -93 436 -4 q 733 -234 614 -182 q 986 -286 851 -286 q 1251 -230 1129 -286 q 1465 -78 1374 -174 l 1692 -78 q 1559 -236 1635 -165 q 1392 -358 1483 -307 q 1199 -436 1301 -408 q 986 -464 1096 -464 q 765 -434 871 -464 q 566 -349 658 -404 q 397 -218 474 -294 q 267 -49 321 -142 q 183 150 213 43 q 153 371 153 257 q 197 638 153 511 q 321 870 242 765 q 509 1051 400 975 q 746 1168 618 1128 l 746 979 z "},"¼":{"ha":1257,"x_min":110,"x_max":1643,"o":"m 583 -37 q 769 -141 667 -104 q 988 -178 872 -178 q 1172 -152 1083 -178 q 1336 -78 1261 -126 l 1607 -78 q 1333 -281 1493 -207 q 988 -356 1174 -356 q 715 -310 844 -356 q 481 -182 586 -264 l 583 -37 m 282 39 q 192 243 224 135 q 160 472 160 351 q 225 795 160 644 q 403 1058 290 946 q 666 1236 515 1171 q 988 1301 817 1301 q 1070 1297 1029 1301 q 1149 1286 1111 1293 l 1028 1122 q 762 1083 888 1131 q 542 947 636 1036 q 392 735 447 858 q 338 472 338 613 q 353 327 338 397 q 400 193 369 257 l 282 39 m 1222 0 l 988 0 l 997 31 l 1300 257 l 1222 0 m 1011 82 l 1049 207 l 719 207 l 386 -253 l 110 -253 l 1347 1429 l 1643 1429 l 1315 308 l 1151 558 l 1263 943 l 858 390 l 1101 390 l 1139 514 l 1289 288 l 1011 82 z "},"½":{"ha":1186,"x_min":160,"x_max":1607,"o":"m 321 -18 q 202 210 244 86 q 160 472 160 333 q 190 695 160 588 q 276 897 221 803 q 409 1066 331 990 q 583 1195 488 1142 q 788 1276 678 1249 q 1018 1301 899 1304 l 914 1119 q 687 1050 792 1106 q 504 908 582 994 q 382 710 426 822 q 338 472 338 599 q 358 304 338 385 q 419 153 379 224 l 321 -18 m 639 -78 q 803 -151 714 -125 q 988 -178 892 -178 q 1172 -152 1085 -178 q 1336 -78 1260 -126 l 1607 -78 q 1333 -281 1493 -207 q 988 -356 1174 -356 q 758 -324 867 -356 q 554 -233 650 -292 l 639 -78 m 1293 0 l 1060 0 l 1064 29 l 1326 257 l 1293 0 m 1068 81 l 1085 207 l 761 207 l 503 -253 l 226 -253 l 1181 1429 l 1476 1429 l 1333 311 l 1126 561 l 1171 949 l 871 390 l 1106 390 l 1121 514 l 1310 288 l 1068 81 z "},"¥":{"ha":656,"x_min":35,"x_max":1042,"o":"m 621 0 l 388 0 l 575 640 l 458 640 l 268 0 l 35 0 l 456 1429 l 689 1429 l 513 824 l 629 824 l 808 1429 l 1042 1429 l 621 0 z "},"¸":{"ha":1113,"x_min":153,"x_max":1692,"o":"m 857 1013 q 649 931 744 989 q 483 787 553 872 q 373 595 413 701 q 333 371 333 489 q 385 115 333 235 q 525 -93 436 -4 q 733 -234 614 -182 q 986 -286 851 -286 q 1251 -230 1129 -286 q 1465 -78 1374 -174 l 1692 -78 q 1559 -236 1635 -165 q 1392 -358 1483 -307 q 1199 -436 1301 -408 q 986 -464 1096 -464 q 765 -434 871 -464 q 566 -349 658 -404 q 397 -218 474 -294 q 267 -49 321 -142 q 183 150 213 43 q 153 371 153 257 q 212 678 153 533 q 374 934 271 822 q 615 1116 476 1046 q 913 1201 754 1186 l 857 1013 z "},"¬":{"ha":733,"x_min":35,"x_max":1118,"o":"m 743 758 l 724 0 l 506 0 l 525 522 l 268 0 l 35 0 l 443 771 l 429 1431 l 654 1431 l 642 954 l 885 1431 l 1118 1431 l 743 758 z "},"º":{"ha":1263,"x_min":153,"x_max":1692,"o":"m 1692 -78 q 1560 -236 1636 -165 q 1394 -358 1485 -307 q 1201 -436 1304 -408 q 986 -464 1097 -464 q 662 -399 814 -464 q 397 -220 510 -333 q 218 45 283 -107 q 153 369 153 197 q 211 678 153 533 q 372 934 269 822 q 612 1116 474 1046 q 908 1201 750 1186 l 924 1024 q 691 956 799 1011 q 503 813 583 900 q 378 612 424 725 q 332 369 332 499 q 383 114 332 233 q 524 -94 435 -6 q 731 -233 613 -182 q 986 -285 850 -285 q 1253 -229 1129 -285 q 1467 -78 1376 -174 l 1692 -78 z "},"»":{"ha":1150,"x_min":153,"x_max":1692,"o":"m 853 1013 q 646 931 742 989 q 481 787 550 872 q 372 595 411 701 q 332 369 332 489 q 383 114 332 233 q 524 -94 435 -6 q 731 -233 613 -182 q 986 -285 850 -285 q 1253 -229 1129 -285 q 1467 -78 1376 -174 l 1692 -78 q 1560 -236 1636 -165 q 1394 -358 1485 -307 q 1201 -436 1304 -408 q 986 -464 1097 -464 q 662 -399 814 -464 q 397 -220 510 -333 q 218 45 283 -107 q 153 369 153 197 q 215 687 153 538 q 384 949 276 836 q 637 1129 492 1061 q 947 1204 782 1197 l 853 1013 z "},"°":{"ha":665,"x_min":190,"x_max":1049,"o":"m 297 464 q 213 497 235 464 q 208 593 190 531 l 456 1429 l 688 1429 l 465 676 q 463 643 458 656 q 490 631 467 631 l 543 631 q 574 640 565 631 q 592 669 583 649 l 815 1429 l 1049 1429 l 799 582 q 747 495 782 526 q 640 464 713 464 l 579 464 l 443 0 l 215 0 l 351 464 l 297 464 z "},"¯":{"ha":1150,"x_min":153,"x_max":1692,"o":"m 925 1021 q 692 954 800 1010 q 504 812 585 899 q 378 611 424 725 q 332 369 332 497 q 383 114 332 233 q 524 -94 435 -6 q 731 -233 613 -182 q 986 -285 850 -285 q 1253 -229 1129 -285 q 1467 -78 1376 -174 l 1692 -78 q 1560 -236 1636 -165 q 1394 -358 1485 -307 q 1201 -436 1304 -408 q 986 -464 1097 -464 q 662 -399 814 -464 q 397 -220 510 -333 q 218 45 283 -107 q 153 369 153 197 q 180 581 153 479 q 256 772 207 682 q 376 936 306 861 q 531 1067 446 1011 q 715 1157 617 1122 q 921 1200 814 1192 l 925 1021 z "},"a":{"ha":631,"x_min":14,"x_max":756,"o":"m 544 790 l 361 333 l 465 333 l 544 790 m 14 0 l 457 1010 l 756 1010 l 618 0 l 410 0 l 442 182 l 304 182 l 232 0 l 14 0 z "},"b":{"ha":589,"x_min":35,"x_max":825,"o":"m 483 585 q 516 592 504 585 q 535 622 528 599 l 589 806 q 590 836 596 825 q 561 847 585 847 l 493 847 l 415 585 l 483 585 m 332 1010 l 708 1010 q 803 971 781 1010 q 810 878 825 932 l 721 574 q 685 524 714 547 q 603 504 656 501 q 646 492 629 503 q 670 464 663 481 q 678 426 678 447 q 672 386 678 406 l 589 107 q 537 29 574 58 q 431 0 500 0 l 35 0 l 332 1010 m 368 168 q 394 174 383 168 q 413 203 406 179 l 472 406 q 472 438 478 425 q 443 450 467 450 l 376 450 l 293 168 l 368 168 z "},"c":{"ha":558,"x_min":74,"x_max":825,"o":"m 735 703 l 532 656 l 588 847 l 519 847 q 494 842 503 847 q 481 817 486 836 l 310 236 q 340 192 296 192 l 572 192 l 497 0 l 224 0 q 157 10 188 0 q 106 43 126 21 q 80 100 86 65 q 89 185 74 135 l 304 915 q 353 991 321 972 q 438 1010 386 1010 l 825 1010 l 735 703 z "},"d":{"ha":589,"x_min":35,"x_max":831,"o":"m 493 847 l 293 168 l 360 168 q 394 176 385 168 q 410 203 404 185 l 586 803 q 588 836 593 825 q 560 847 583 847 l 493 847 m 332 1010 l 732 1010 q 810 974 789 1010 q 818 896 831 939 l 594 136 q 563 65 582 92 q 516 23 544 38 q 449 4 488 8 q 356 0 410 0 l 35 0 l 332 1010 z "},"e":{"ha":464,"x_min":35,"x_max":729,"o":"m 332 1010 l 729 1010 l 675 828 l 489 828 l 424 606 l 606 606 l 553 426 l 371 426 l 301 192 l 494 192 l 425 0 l 35 0 l 332 1010 z "},"f":{"ha":469,"x_min":35,"x_max":736,"o":"m 332 1010 l 736 1010 l 682 828 l 489 828 l 424 606 l 614 606 l 561 426 l 371 426 l 246 0 l 35 0 l 332 1010 z "},"g":{"ha":586,"x_min":75,"x_max":786,"o":"m 786 1010 l 732 828 l 515 828 q 490 822 499 828 q 475 797 481 817 l 301 208 q 333 168 290 168 l 404 168 l 481 426 l 438 426 l 490 606 l 732 606 l 565 39 l 332 -79 l 354 0 l 225 0 q 158 10 189 0 q 108 44 128 21 q 81 102 88 67 q 90 188 75 138 l 304 915 q 355 991 321 972 q 439 1010 389 1010 l 786 1010 z "},"h":{"ha":593,"x_min":35,"x_max":856,"o":"m 558 0 l 350 0 l 475 426 l 369 426 l 243 0 l 35 0 l 332 1010 l 540 1010 l 422 606 l 528 606 l 647 1010 l 856 1010 l 558 0 z "},"i":{"ha":285,"x_min":35,"x_max":547,"o":"m 250 0 l 35 0 l 332 1010 l 547 1010 l 250 0 z "},"j":{"ha":576,"x_min":65,"x_max":839,"o":"m 164 436 l 358 436 l 285 189 q 283 175 282 182 q 299 168 285 168 l 360 168 q 383 175 376 168 q 396 203 389 182 l 579 828 l 363 828 l 438 1010 l 839 1010 l 571 101 q 517 22 554 44 q 429 0 481 0 l 174 0 q 126 9 149 0 q 90 35 104 18 q 70 78 75 53 q 75 138 65 104 l 164 436 z "},"k":{"ha":589,"x_min":35,"x_max":846,"o":"m 846 1010 l 719 581 q 683 528 710 553 q 600 504 656 503 q 642 492 626 503 q 666 464 658 481 q 674 426 674 447 q 668 386 674 406 l 554 0 l 346 0 l 461 390 q 463 420 468 410 q 436 431 457 431 l 371 431 l 243 0 l 35 0 l 332 1010 l 540 1010 l 414 579 l 476 579 q 507 587 494 579 q 526 618 519 594 l 642 1010 l 846 1010 z "},"l":{"ha":507,"x_min":35,"x_max":556,"o":"m 332 1010 l 556 1010 l 315 192 l 543 192 l 471 0 l 35 0 l 332 1010 z "},"m":{"ha":765,"x_min":35,"x_max":1029,"o":"m 411 561 l 244 0 l 35 0 l 332 1010 l 540 1010 l 576 657 l 813 1010 l 1029 1010 l 731 0 l 521 0 l 686 561 l 456 246 l 411 561 z "},"n":{"ha":574,"x_min":35,"x_max":836,"o":"m 332 1010 l 511 1010 l 518 619 l 633 1010 l 836 1010 l 539 0 l 371 0 l 353 403 l 232 0 l 35 0 l 332 1010 z "},"o":{"ha":589,"x_min":65,"x_max":831,"o":"m 518 847 q 496 840 503 847 q 486 822 489 833 l 300 193 q 319 168 293 168 l 374 168 q 407 193 400 168 l 592 821 q 571 847 599 847 l 518 847 m 736 1010 q 808 974 785 1010 q 818 894 831 939 l 586 107 q 522 22 567 44 q 424 0 476 0 l 175 0 q 126 9 149 0 q 90 36 104 18 q 70 80 75 54 q 75 138 65 106 l 303 911 q 348 983 314 956 q 433 1010 382 1010 l 736 1010 z "},"p":{"ha":572,"x_min":35,"x_max":807,"o":"m 244 0 l 35 0 l 332 1010 l 703 1010 q 760 999 738 1010 q 793 969 782 988 q 806 928 804 951 q 800 881 807 906 l 661 407 q 605 329 646 354 q 515 296 564 304 q 415 290 465 288 q 332 299 365 293 l 244 0 m 451 451 q 477 458 468 451 q 493 490 486 465 l 586 806 q 585 836 592 825 q 554 847 578 847 l 493 847 l 376 451 l 451 451 z "},"q":{"ha":589,"x_min":65,"x_max":831,"o":"m 207 0 l 175 0 q 126 9 149 0 q 90 36 104 18 q 70 80 75 54 q 75 138 65 106 l 303 911 q 348 983 314 956 q 433 1010 382 1010 l 736 1010 q 808 974 785 1010 q 818 894 831 939 l 586 107 q 524 22 567 44 q 428 0 481 0 l 389 0 l 351 -121 l 168 -121 l 207 0 m 518 847 q 496 840 503 847 q 486 822 489 833 l 300 193 q 319 168 293 168 l 374 168 q 407 193 400 168 l 592 821 q 571 847 599 847 l 518 847 z "},"r":{"ha":590,"x_min":35,"x_max":829,"o":"m 244 0 l 35 0 l 332 1010 l 714 1010 q 806 971 782 1010 q 814 882 829 932 l 713 539 q 684 498 706 517 q 624 479 663 479 q 664 449 647 475 q 664 368 681 422 l 556 0 l 346 0 l 463 396 q 463 419 467 408 q 440 431 460 431 l 371 431 l 244 0 m 486 579 q 515 587 501 579 q 535 618 528 594 l 590 806 q 558 847 603 847 l 493 847 l 414 579 l 486 579 z "},"s":{"ha":521,"x_min":64,"x_max":751,"o":"m 514 828 q 492 822 503 828 q 476 799 482 815 l 417 593 l 529 593 q 579 585 557 593 q 615 560 601 576 q 631 517 628 543 q 622 453 633 490 l 507 61 q 469 15 499 31 q 407 0 439 0 l 64 0 l 121 192 l 296 192 q 333 199 325 192 q 349 226 342 207 l 397 397 q 399 408 400 404 q 388 411 397 411 l 276 411 q 192 444 210 411 q 189 533 174 478 l 304 925 q 356 994 322 978 q 428 1010 390 1010 l 751 1010 l 697 828 l 514 828 z "},"t":{"ha":538,"x_min":167,"x_max":811,"o":"m 322 1010 l 811 1010 l 757 828 l 615 828 l 375 0 l 167 0 l 413 828 l 268 828 l 322 1010 l 322 1010 z "},"u":{"ha":588,"x_min":75,"x_max":850,"o":"m 540 1010 l 306 211 q 308 178 299 188 q 340 169 317 169 l 394 169 l 642 1010 l 850 1010 l 564 39 l 322 -79 l 346 0 l 225 0 q 155 10 186 0 q 104 44 124 21 q 80 102 85 67 q 90 188 75 138 l 332 1010 l 542 1010 l 540 1010 z "},"v":{"ha":569,"x_min":181,"x_max":850,"o":"m 314 1010 l 524 1010 l 443 535 l 635 1010 l 850 1010 l 407 0 l 181 0 l 314 1010 z "},"w":{"ha":843,"x_min":181,"x_max":1124,"o":"m 314 1010 l 524 1010 l 444 546 l 636 1010 l 797 1010 l 717 546 l 908 1010 l 1124 1010 l 681 0 l 478 0 l 538 368 l 379 0 l 181 0 l 314 1010 l 314 1010 z "},"x":{"ha":604,"x_min":35,"x_max":861,"o":"m 735 581 q 606 504 711 503 q 674 466 656 501 q 678 386 692 431 l 564 0 l 353 0 l 469 394 q 470 420 474 410 q 443 431 467 431 l 411 431 q 379 425 388 431 q 365 401 371 419 l 246 0 l 35 0 l 151 396 q 166 434 157 415 q 189 468 175 453 q 225 494 203 483 q 281 506 247 504 q 217 536 232 506 q 214 608 201 567 l 332 1010 l 543 1010 l 426 611 q 429 585 421 592 q 454 579 438 579 l 492 579 q 517 585 507 579 q 533 615 526 592 l 650 1010 l 861 1010 l 735 581 z "},"y":{"ha":601,"x_min":144,"x_max":864,"o":"m 239 315 q 165 347 185 315 q 161 433 144 378 l 332 1010 l 542 1010 l 392 506 q 389 478 386 489 q 413 467 392 467 l 461 467 q 489 474 481 467 q 504 501 497 482 l 654 1010 l 864 1010 l 690 424 q 644 344 675 374 q 550 315 614 315 l 490 315 l 399 0 l 201 0 l 293 315 l 239 315 z "},"z":{"ha":508,"x_min":54,"x_max":781,"o":"m 267 828 l 321 1010 l 781 1010 l 369 192 l 544 192 l 472 0 l 54 0 l 478 828 l 267 828 z "},"‡":{"ha":1074,"x_min":46,"x_max":1028,"o":"m 536 4 q 345 43 435 4 q 189 149 256 82 q 84 305 122 215 q 46 496 46 394 q 84 687 46 597 q 189 843 122 776 q 345 949 256 910 q 536 988 435 988 q 727 949 638 988 q 883 843 817 910 q 989 687 950 776 q 1028 496 1028 597 q 989 305 1028 394 q 883 149 950 215 q 727 43 817 82 q 536 4 638 4 m 536 71 q 702 104 625 71 q 836 196 779 138 q 926 331 893 254 q 960 496 960 408 q 926 660 960 583 q 836 795 893 738 q 702 886 779 853 q 536 919 625 919 q 372 886 449 919 q 236 795 294 853 q 144 660 178 738 q 111 496 111 583 q 144 331 111 408 q 236 196 178 254 q 372 104 294 138 q 536 71 449 71 m 536 100 q 383 131 454 100 q 257 216 311 163 q 172 342 203 269 q 140 496 140 414 q 172 648 140 576 q 257 773 203 719 q 383 857 311 826 q 536 888 454 888 q 689 857 617 888 q 815 773 761 826 q 899 648 868 719 q 931 496 931 576 q 899 342 931 414 q 815 216 868 269 q 689 131 761 163 q 536 100 617 100 m 536 161 q 611 176 576 161 q 674 212 646 190 q 723 260 701 233 q 758 310 744 286 q 537 281 647 281 q 314 310 426 282 q 349 260 328 286 q 398 212 369 233 q 460 176 426 190 q 536 161 494 161 m 300 331 q 774 331 535 276 l 849 450 l 224 450 l 300 331 m 590 496 l 538 622 l 485 496 l 590 496 m 408 593 q 419 592 411 590 q 435 599 426 594 q 449 607 443 603 q 454 613 454 611 q 422 693 435 651 q 386 768 410 735 q 368 768 382 774 q 340 753 354 763 q 314 733 325 743 q 306 721 303 724 l 408 593 m 767 721 q 759 733 769 724 q 734 753 749 743 q 706 768 719 763 q 688 768 692 774 q 650 693 661 735 q 622 613 639 651 q 625 607 619 611 q 638 599 631 603 q 654 592 646 594 q 667 593 663 590 l 767 721 m 896 69 l 875 69 l 875 85 l 932 85 l 932 69 l 911 69 l 911 17 l 896 17 l 896 69 m 939 85 l 960 85 l 972 32 l 985 85 l 1004 85 l 1004 17 l 992 17 l 992 69 l 978 17 l 965 17 l 951 69 l 951 17 l 939 17 l 939 85 z "},"ˆ":{"ha":1074,"x_min":46,"x_max":1028,"o":"m 536 4 q 345 43 435 4 q 189 149 256 82 q 84 305 122 215 q 46 496 46 394 q 84 687 46 597 q 189 843 122 776 q 345 949 256 910 q 536 988 435 988 q 727 949 638 988 q 883 843 817 910 q 989 687 950 776 q 1028 496 1028 597 q 989 305 1028 394 q 883 149 950 215 q 727 43 817 82 q 536 4 638 4 m 536 71 q 702 104 625 71 q 836 196 779 138 q 926 331 893 254 q 960 496 960 408 q 926 660 960 583 q 836 795 893 738 q 702 886 779 853 q 536 919 625 919 q 372 886 449 919 q 236 795 294 853 q 144 660 178 738 q 111 496 111 583 q 144 331 111 408 q 236 196 178 254 q 372 104 294 138 q 536 71 449 71 m 536 100 q 383 131 454 100 q 257 216 311 163 q 172 342 203 269 q 140 496 140 414 q 172 648 140 576 q 257 773 203 719 q 383 857 311 826 q 536 888 454 888 q 689 857 617 888 q 815 773 761 826 q 899 648 868 719 q 931 496 931 576 q 899 342 931 414 q 815 216 868 269 q 689 131 761 163 q 536 100 617 100 m 536 161 q 611 176 576 161 q 674 212 646 190 q 723 260 701 233 q 758 310 744 286 q 537 281 647 281 q 314 310 426 282 q 349 260 328 286 q 398 212 369 233 q 460 176 426 190 q 536 161 494 161 m 300 331 q 774 331 535 276 l 849 450 l 224 450 l 300 331 m 590 496 l 538 622 l 485 496 l 590 496 m 408 593 q 419 592 411 590 q 435 599 426 594 q 449 607 443 603 q 454 613 454 611 q 422 693 435 651 q 386 768 410 735 q 368 768 382 774 q 340 753 354 763 q 314 733 325 743 q 306 721 303 724 l 408 593 m 767 721 q 759 733 769 724 q 734 753 749 743 q 706 768 719 763 q 688 768 692 774 q 650 693 661 735 q 622 613 639 651 q 625 607 619 611 q 638 599 631 603 q 654 592 646 594 q 667 593 663 590 l 767 721 m 896 69 l 875 69 l 875 85 l 932 85 l 932 69 l 911 69 l 911 17 l 896 17 l 896 69 m 939 85 l 960 85 l 972 32 l 985 85 l 1004 85 l 1004 17 l 992 17 l 992 69 l 978 17 l 965 17 l 951 69 l 951 17 l 939 17 l 939 85 z "},"‰":{"ha":1074,"x_min":46,"x_max":1028,"o":"m 536 4 q 345 43 435 4 q 189 149 256 82 q 84 305 122 215 q 46 496 46 394 q 84 687 46 597 q 189 843 122 776 q 345 949 256 910 q 536 988 435 988 q 727 949 638 988 q 883 843 817 910 q 989 687 950 776 q 1028 496 1028 597 q 989 305 1028 394 q 883 149 950 215 q 727 43 817 82 q 536 4 638 4 m 536 71 q 702 104 625 71 q 836 196 779 138 q 926 331 893 254 q 960 496 960 408 q 926 660 960 583 q 836 795 893 738 q 702 886 779 853 q 536 919 625 919 q 372 886 449 919 q 236 795 294 853 q 144 660 178 738 q 111 496 111 583 q 144 331 111 408 q 236 196 178 254 q 372 104 294 138 q 536 71 449 71 m 536 100 q 383 131 454 100 q 257 216 311 163 q 172 342 203 269 q 140 496 140 414 q 172 648 140 576 q 257 773 203 719 q 383 857 311 826 q 536 888 454 888 q 689 857 617 888 q 815 773 761 826 q 899 648 868 719 q 931 496 931 576 q 899 342 931 414 q 815 216 868 269 q 689 131 761 163 q 536 100 617 100 m 536 161 q 611 176 576 161 q 674 212 646 190 q 723 260 701 233 q 758 310 744 286 q 537 281 647 281 q 314 310 426 282 q 349 260 328 286 q 398 212 369 233 q 460 176 426 190 q 536 161 494 161 m 300 331 q 774 331 535 276 l 849 450 l 224 450 l 300 331 m 590 496 l 538 622 l 485 496 l 590 496 m 408 593 q 419 592 411 590 q 435 599 426 594 q 449 607 443 603 q 454 613 454 611 q 422 693 435 651 q 386 768 410 735 q 368 768 382 774 q 340 753 354 763 q 314 733 325 743 q 306 721 303 724 l 408 593 m 767 721 q 759 733 769 724 q 734 753 749 743 q 706 768 719 763 q 688 768 692 774 q 650 693 661 735 q 622 613 639 651 q 625 607 619 611 q 638 599 631 603 q 654 592 646 594 q 667 593 663 590 l 767 721 m 896 69 l 875 69 l 875 85 l 932 85 l 932 69 l 911 69 l 911 17 l 896 17 l 896 69 m 939 85 l 960 85 l 972 32 l 985 85 l 1004 85 l 1004 17 l 992 17 l 992 69 l 978 17 l 965 17 l 951 69 l 951 17 l 939 17 l 939 85 z "},"Š":{"ha":304,"x_min":35,"x_max":567,"o":"m 35 1010 l 243 1010 l 229 528 l 357 1010 l 567 1010 l 269 0 l 35 0 l 35 1010 z "},"‹":{"ha":569,"x_min":236,"x_max":840,"o":"m 304 1010 l 514 1010 l 460 524 l 625 1010 l 840 1010 l 463 0 l 236 0 l 304 1010 z "},"Œ":{"ha":625,"x_min":193,"x_max":914,"o":"m 419 0 l 193 0 l 351 326 l 301 1010 l 508 1010 l 526 636 l 700 1010 l 914 1010 l 419 0 l 419 0 z "},"–":{"ha":576,"x_min":35,"x_max":839,"o":"m 242 1010 l 231 528 l 357 1010 l 518 1010 l 503 528 l 629 1010 l 839 1010 l 540 0 l 332 0 l 343 368 l 233 0 l 35 0 l 35 1010 l 242 1010 z "},"—":{"ha":847,"x_min":236,"x_max":1118,"o":"m 511 1010 l 468 528 l 626 1010 l 792 1010 l 740 528 l 901 1010 l 1118 1010 l 740 0 l 532 0 l 569 368 l 433 0 l 236 0 l 304 1010 l 511 1010 z "},"ª":{"ha":596,"x_min":35,"x_max":858,"o":"m 421 606 l 532 606 l 603 847 l 518 847 q 496 840 503 847 q 486 822 489 833 l 421 606 m 354 0 l 481 426 l 369 426 l 243 0 l 35 0 l 304 915 q 353 985 317 960 q 438 1010 389 1010 l 858 1010 l 561 0 l 354 0 z "},"­":{"ha":626,"x_min":32,"x_max":901,"o":"m 901 1010 l 625 536 l 614 0 l 415 0 l 424 363 l 247 0 l 32 0 l 322 547 l 310 1010 l 513 1010 l 511 682 l 686 1010 l 901 1010 z "},"":{"ha":4931,"x_min":197,"x_max":4867,"o":"m 3794 0 l 3585 0 l 3882 1010 l 4257 1010 q 4313 999 4290 1010 q 4349 970 4336 988 q 4363 930 4361 953 q 4357 882 4365 907 l 4256 539 q 4229 498 4249 517 q 4171 479 4210 479 q 4210 448 4194 475 q 4208 367 4225 421 l 4099 0 l 3890 0 l 4008 396 q 4010 419 4013 408 q 3988 431 4007 431 l 3921 431 l 3794 0 m 1286 1010 l 1493 1010 l 1481 536 l 1604 1010 l 1811 1010 l 1521 0 l 1286 0 l 1286 1010 m 2321 1010 l 2503 1010 l 2506 663 l 2608 1010 l 2817 1010 l 2519 0 l 2338 0 l 2335 376 l 2224 0 l 2021 0 l 2321 1010 m 4029 579 q 4058 587 4044 579 q 4078 618 4071 594 l 4136 806 q 4135 836 4142 825 q 4104 847 4128 847 l 4043 847 l 3965 579 l 4029 579 m 1224 278 l 1224 0 l 994 0 l 994 33 l 1224 278 m 994 81 l 994 207 l 661 207 l 451 -253 l 197 -253 l 965 1429 l 1224 1429 l 1224 318 l 994 564 l 994 946 l 743 390 l 994 390 l 994 515 l 1199 297 l 994 81 m 3344 1010 l 3290 828 l 3063 828 q 3037 822 3046 828 q 3022 796 3028 815 l 2850 213 q 2852 181 2843 190 q 2882 172 2861 172 l 2951 172 l 3028 426 l 2985 426 l 3038 606 l 3275 606 l 3104 35 l 2879 -79 l 2901 0 l 2772 0 q 2706 10 2736 0 q 2655 44 2675 21 q 2628 102 2635 67 q 2638 188 2622 138 l 2851 915 q 2903 991 2869 972 q 2986 1010 2936 1010 l 3344 1010 m 3443 1010 l 3822 1010 l 3767 828 l 3599 828 l 3533 606 l 3699 606 l 3643 426 l 3479 426 l 3410 192 l 3597 192 l 3528 0 l 3143 0 l 3443 1010 m 4632 828 q 4611 822 4621 828 q 4594 799 4601 815 l 4538 593 l 4650 593 q 4700 585 4678 593 q 4735 559 4722 576 q 4751 515 4749 542 q 4743 451 4754 489 l 4628 60 q 4590 15 4619 29 q 4529 0 4561 0 l 4193 0 l 4247 182 l 4415 182 q 4453 190 4444 182 q 4468 217 4461 197 l 4519 397 q 4521 408 4522 404 q 4510 411 4519 411 l 4399 411 q 4314 444 4332 411 q 4311 533 4296 478 l 4426 925 q 4478 994 4444 978 q 4550 1010 4513 1010 l 4867 1010 l 4813 828 l 4632 828 m 1876 1010 l 2257 1010 l 2203 828 l 2033 828 l 1968 606 l 2133 606 l 2079 426 l 1914 426 l 1844 192 l 2033 192 l 1961 0 l 1579 0 l 1876 1010 z "},"«":{"ha":657,"x_min":35,"x_max":1043,"o":"m 511 824 l 633 824 l 750 1228 l 665 1228 q 634 1218 644 1228 q 619 1193 624 1208 l 511 824 m 388 0 l 576 636 l 456 636 l 268 0 l 35 0 l 417 1296 q 485 1394 435 1358 q 606 1429 535 1429 l 1043 1429 l 622 0 l 388 0 z "},"š":{"ha":472,"x_min":118,"x_max":861,"o":"m 326 1010 l 533 1010 l 422 517 l 642 1010 l 861 1010 l 349 0 l 118 0 l 326 1010 z "},"›":{"ha":746,"x_min":118,"x_max":1135,"o":"m 535 1010 l 422 546 l 646 1010 l 807 1010 l 694 546 l 918 1010 l 1135 1010 l 619 0 l 417 0 l 503 368 l 318 0 l 118 0 l 326 1010 l 535 1010 z "},"µ":{"ha":632,"x_min":57,"x_max":1008,"o":"m 632 117 q 601 56 621 79 q 556 21 581 33 q 505 4 532 8 q 451 0 478 0 l 172 0 q 85 37 114 0 q 76 140 57 74 l 151 394 l 368 394 l 315 215 q 317 191 310 197 q 335 185 324 185 l 385 185 q 414 191 404 185 q 429 217 424 197 l 538 588 q 538 601 540 596 q 522 607 536 607 l 389 607 q 266 653 294 607 q 261 778 238 699 l 418 1310 q 448 1371 429 1347 q 490 1408 467 1394 q 540 1425 514 1421 q 593 1429 567 1429 l 1008 1429 l 892 1035 l 661 982 l 740 1244 l 660 1244 q 631 1238 640 1244 q 617 1213 622 1232 l 492 794 l 639 794 q 711 783 679 794 q 762 748 743 772 q 784 686 781 724 q 772 596 788 649 l 632 117 z "},"¶":{"ha":628,"x_min":106,"x_max":957,"o":"m 671 1228 q 617 1186 629 1228 l 511 825 l 647 825 q 772 772 742 825 q 779 635 803 718 l 619 89 q 569 21 606 42 q 479 0 533 0 l 106 0 l 169 215 l 361 215 q 413 224 399 215 q 435 263 426 232 l 535 597 q 536 613 538 608 q 521 618 535 618 l 386 618 q 269 662 297 618 q 265 782 242 706 l 419 1307 q 485 1400 439 1371 q 597 1429 532 1429 l 957 1429 l 897 1228 l 671 1228 z "},"·":{"ha":1074,"x_min":46,"x_max":1028,"o":"m 536 4 q 345 43 435 4 q 189 149 256 82 q 84 305 122 215 q 46 496 46 394 q 84 687 46 597 q 189 843 122 776 q 345 949 256 910 q 536 988 435 988 q 727 949 638 988 q 883 843 817 910 q 989 687 950 776 q 1028 496 1028 597 q 989 305 1028 394 q 883 149 950 215 q 727 43 817 82 q 536 4 638 4 m 536 71 q 702 104 625 71 q 836 196 779 138 q 926 331 893 254 q 960 496 960 408 q 926 660 960 583 q 836 795 893 738 q 702 886 779 853 q 536 919 625 919 q 372 886 449 919 q 236 795 294 853 q 144 660 178 738 q 111 496 111 583 q 144 331 111 408 q 236 196 178 254 q 372 104 294 138 q 536 71 449 71 m 536 100 q 383 131 454 100 q 257 216 311 163 q 172 342 203 269 q 140 496 140 414 q 172 648 140 576 q 257 773 203 719 q 383 857 311 826 q 536 888 454 888 q 689 857 617 888 q 815 773 761 826 q 899 648 868 719 q 931 496 931 576 q 899 342 931 414 q 815 216 868 269 q 689 131 761 163 q 536 100 617 100 m 536 161 q 611 176 576 161 q 674 212 646 190 q 723 260 701 233 q 758 310 744 286 q 537 281 647 281 q 314 310 426 282 q 349 260 328 286 q 398 212 369 233 q 460 176 426 190 q 536 161 494 161 m 300 331 q 774 331 535 276 l 849 450 l 224 450 l 300 331 m 590 496 l 538 622 l 485 496 l 590 496 m 408 593 q 419 592 411 590 q 435 599 426 594 q 449 607 443 603 q 454 613 454 611 q 422 693 435 651 q 386 768 410 735 q 368 768 382 774 q 340 753 354 763 q 314 733 325 743 q 306 721 303 724 l 408 593 m 767 721 q 759 733 769 724 q 734 753 749 743 q 706 768 719 763 q 688 768 692 774 q 650 693 661 735 q 622 613 639 651 q 625 607 619 611 q 638 599 631 603 q 654 592 646 594 q 667 593 663 590 l 767 721 m 896 69 l 875 69 l 875 85 l 932 85 l 932 69 l 911 69 l 911 17 l 896 17 l 896 69 m 939 85 l 960 85 l 972 32 l 985 85 l 1004 85 l 1004 17 l 992 17 l 992 69 l 978 17 l 965 17 l 951 69 l 951 17 l 939 17 l 939 85 z "},"™":{"ha":932,"x_min":42,"x_max":876,"o":"m 360 942 l 243 942 l 243 503 l 160 503 l 160 942 l 42 942 l 42 1010 l 360 1010 l 360 942 m 615 514 l 496 864 l 496 503 l 413 503 l 413 1010 l 525 1010 l 646 657 l 764 1010 l 876 1010 l 876 503 l 794 503 l 794 864 l 675 514 l 615 514 z "},"©":{"ha":1136,"x_min":56,"x_max":1081,"o":"m 569 1010 q 765 972 672 1010 q 928 865 858 933 q 1040 703 999 797 q 1081 500 1081 610 q 1040 294 1081 388 q 928 131 999 200 q 765 24 858 63 q 569 -14 672 -14 q 372 24 465 -14 q 208 131 279 63 q 97 294 138 200 q 56 500 56 388 q 97 703 56 610 q 208 865 138 797 q 372 972 279 933 q 569 1010 465 1010 m 569 924 q 407 892 482 924 q 277 803 332 860 q 190 668 222 746 q 158 500 158 590 q 190 329 158 407 q 277 194 222 251 q 407 106 332 138 q 569 74 482 74 q 730 106 656 74 q 860 194 804 138 q 947 329 915 251 q 978 500 978 407 q 947 668 978 590 q 860 803 915 746 q 730 892 804 860 q 569 924 656 924 m 836 404 q 803 313 826 354 q 748 244 781 272 q 674 201 715 217 q 586 186 633 186 q 463 210 518 186 q 368 277 407 235 q 308 377 329 319 q 286 501 286 435 q 306 625 286 568 q 365 724 326 682 q 458 789 404 765 q 582 813 513 813 q 749 758 679 813 q 835 600 819 704 l 744 600 q 690 691 733 657 q 583 725 646 725 q 500 708 536 725 q 439 660 464 690 q 401 590 414 631 q 389 503 389 550 q 403 416 389 457 q 442 343 417 375 q 504 292 468 311 q 586 274 540 274 q 693 310 650 274 q 744 404 736 346 l 836 404 z "},"®":{"ha":1150,"x_min":56,"x_max":1094,"o":"m 578 1024 q 776 985 682 1024 q 940 877 869 946 q 1053 714 1011 808 q 1094 508 1094 619 q 1053 299 1094 394 q 940 133 1011 203 q 776 25 869 64 q 578 -14 682 -14 q 377 25 472 -14 q 210 133 282 64 q 97 299 139 203 q 56 508 56 394 q 97 714 56 619 q 210 877 139 808 q 377 985 282 946 q 578 1024 472 1024 m 578 936 q 413 903 489 936 q 280 814 336 871 q 192 678 224 757 q 160 508 160 600 q 192 334 160 414 q 280 197 224 254 q 413 107 336 139 q 578 75 489 75 q 740 107 665 75 q 871 197 815 139 q 958 334 926 254 q 990 508 990 414 q 958 678 990 600 q 871 814 926 757 q 740 903 815 871 q 578 936 665 936 m 465 207 l 378 207 l 378 806 l 604 806 q 760 765 708 806 q 811 636 811 724 q 767 517 808 556 q 660 469 725 478 l 828 207 l 728 207 l 568 467 l 465 467 l 465 207 m 576 540 q 631 543 604 540 q 677 556 657 546 q 710 585 697 565 q 722 642 722 606 q 710 689 722 671 q 680 717 699 707 q 638 731 661 728 q 592 735 614 735 l 465 735 l 465 540 l 576 540 z "},"%":{"ha":1074,"x_min":46,"x_max":1028,"o":"m 536 4 q 345 43 435 4 q 189 149 256 82 q 84 305 122 215 q 46 496 46 394 q 84 687 46 597 q 189 843 122 776 q 345 949 256 910 q 536 988 435 988 q 727 949 638 988 q 883 843 817 910 q 989 687 950 776 q 1028 496 1028 597 q 989 305 1028 394 q 883 149 950 215 q 727 43 817 82 q 536 4 638 4 m 536 71 q 702 104 625 71 q 836 196 779 138 q 926 331 893 254 q 960 496 960 408 q 926 660 960 583 q 836 795 893 738 q 702 886 779 853 q 536 919 625 919 q 372 886 449 919 q 236 795 294 853 q 144 660 178 738 q 111 496 111 583 q 144 331 111 408 q 236 196 178 254 q 372 104 294 138 q 536 71 449 71 m 536 100 q 383 131 454 100 q 257 216 311 163 q 172 342 203 269 q 140 496 140 414 q 172 648 140 576 q 257 773 203 719 q 383 857 311 826 q 536 888 454 888 q 689 857 617 888 q 815 773 761 826 q 899 648 868 719 q 931 496 931 576 q 899 342 931 414 q 815 216 868 269 q 689 131 761 163 q 536 100 617 100 m 536 161 q 611 176 576 161 q 674 212 646 190 q 723 260 701 233 q 758 310 744 286 q 537 281 647 281 q 314 310 426 282 q 349 260 328 286 q 398 212 369 233 q 460 176 426 190 q 536 161 494 161 m 300 331 q 774 331 535 276 l 849 450 l 224 450 l 300 331 m 590 496 l 538 622 l 485 496 l 590 496 m 408 593 q 419 592 411 590 q 435 599 426 594 q 449 607 443 603 q 454 613 454 611 q 422 693 435 651 q 386 768 410 735 q 368 768 382 774 q 340 753 354 763 q 314 733 325 743 q 306 721 303 724 l 408 593 m 767 721 q 759 733 769 724 q 734 753 749 743 q 706 768 719 763 q 688 768 692 774 q 650 693 661 735 q 622 613 639 651 q 625 607 619 611 q 638 599 631 603 q 654 592 646 594 q 667 593 663 590 l 767 721 m 896 69 l 875 69 l 875 85 l 932 85 l 932 69 l 911 69 l 911 17 l 896 17 l 896 69 m 939 85 l 960 85 l 972 32 l 985 85 l 1004 85 l 1004 17 l 992 17 l 992 69 l 978 17 l 965 17 l 951 69 l 951 17 l 939 17 l 939 85 z "},"+":{"ha":1074,"x_min":46,"x_max":1028,"o":"m 536 4 q 345 43 435 4 q 189 149 256 82 q 84 305 122 215 q 46 496 46 394 q 84 687 46 597 q 189 843 122 776 q 345 949 256 910 q 536 988 435 988 q 727 949 638 988 q 883 843 817 910 q 989 687 950 776 q 1028 496 1028 597 q 989 305 1028 394 q 883 149 950 215 q 727 43 817 82 q 536 4 638 4 m 536 71 q 702 104 625 71 q 836 196 779 138 q 926 331 893 254 q 960 496 960 408 q 926 660 960 583 q 836 795 893 738 q 702 886 779 853 q 536 919 625 919 q 372 886 449 919 q 236 795 294 853 q 144 660 178 738 q 111 496 111 583 q 144 331 111 408 q 236 196 178 254 q 372 104 294 138 q 536 71 449 71 m 536 100 q 383 131 454 100 q 257 216 311 163 q 172 342 203 269 q 140 496 140 414 q 172 648 140 576 q 257 773 203 719 q 383 857 311 826 q 536 888 454 888 q 689 857 617 888 q 815 773 761 826 q 899 648 868 719 q 931 496 931 576 q 899 342 931 414 q 815 216 868 269 q 689 131 761 163 q 536 100 617 100 m 536 161 q 611 176 576 161 q 674 212 646 190 q 723 260 701 233 q 758 310 744 286 q 537 281 647 281 q 314 310 426 282 q 349 260 328 286 q 398 212 369 233 q 460 176 426 190 q 536 161 494 161 m 300 331 q 774 331 535 276 l 849 450 l 224 450 l 300 331 m 590 496 l 538 622 l 485 496 l 590 496 m 408 593 q 419 592 411 590 q 435 599 426 594 q 449 607 443 603 q 454 613 454 611 q 422 693 435 651 q 386 768 410 735 q 368 768 382 774 q 340 753 354 763 q 314 733 325 743 q 306 721 303 724 l 408 593 m 767 721 q 759 733 769 724 q 734 753 749 743 q 706 768 719 763 q 688 768 692 774 q 650 693 661 735 q 622 613 639 651 q 625 607 619 611 q 638 599 631 603 q 654 592 646 594 q 667 593 663 590 l 767 721 m 896 69 l 875 69 l 875 85 l 932 85 l 932 69 l 911 69 l 911 17 l 896 17 l 896 69 m 939 85 l 960 85 l 972 32 l 985 85 l 1004 85 l 1004 17 l 992 17 l 992 69 l 978 17 l 965 17 l 951 69 l 951 17 l 939 17 l 939 85 z "},"*":{"ha":1074,"x_min":46,"x_max":1028,"o":"m 536 4 q 345 43 435 4 q 189 149 256 82 q 84 305 122 215 q 46 496 46 394 q 84 687 46 597 q 189 843 122 776 q 345 949 256 910 q 536 988 435 988 q 727 949 638 988 q 883 843 817 910 q 989 687 950 776 q 1028 496 1028 597 q 989 305 1028 394 q 883 149 950 215 q 727 43 817 82 q 536 4 638 4 m 536 71 q 702 104 625 71 q 836 196 779 138 q 926 331 893 254 q 960 496 960 408 q 926 660 960 583 q 836 795 893 738 q 702 886 779 853 q 536 919 625 919 q 372 886 449 919 q 236 795 294 853 q 144 660 178 738 q 111 496 111 583 q 144 331 111 408 q 236 196 178 254 q 372 104 294 138 q 536 71 449 71 m 536 100 q 383 131 454 100 q 257 216 311 163 q 172 342 203 269 q 140 496 140 414 q 172 648 140 576 q 257 773 203 719 q 383 857 311 826 q 536 888 454 888 q 689 857 617 888 q 815 773 761 826 q 899 648 868 719 q 931 496 931 576 q 899 342 931 414 q 815 216 868 269 q 689 131 761 163 q 536 100 617 100 m 536 161 q 611 176 576 161 q 674 212 646 190 q 723 260 701 233 q 758 310 744 286 q 537 281 647 281 q 314 310 426 282 q 349 260 328 286 q 398 212 369 233 q 460 176 426 190 q 536 161 494 161 m 300 331 q 774 331 535 276 l 849 450 l 224 450 l 300 331 m 590 496 l 538 622 l 485 496 l 590 496 m 408 593 q 419 592 411 590 q 435 599 426 594 q 449 607 443 603 q 454 613 454 611 q 422 693 435 651 q 386 768 410 735 q 368 768 382 774 q 340 753 354 763 q 314 733 325 743 q 306 721 303 724 l 408 593 m 767 721 q 759 733 769 724 q 734 753 749 743 q 706 768 719 763 q 688 768 692 774 q 650 693 661 735 q 622 613 639 651 q 625 607 619 611 q 638 599 631 603 q 654 592 646 594 q 667 593 663 590 l 767 721 m 896 69 l 875 69 l 875 85 l 932 85 l 932 69 l 911 69 l 911 17 l 896 17 l 896 69 m 939 85 l 960 85 l 972 32 l 985 85 l 1004 85 l 1004 17 l 992 17 l 992 69 l 978 17 l 965 17 l 951 69 l 951 17 l 939 17 l 939 85 z "},"/":{"ha":1074,"x_min":46,"x_max":1028,"o":"m 536 4 q 345 43 435 4 q 189 149 256 82 q 84 305 122 215 q 46 496 46 394 q 84 687 46 597 q 189 843 122 776 q 345 949 256 910 q 536 988 435 988 q 727 949 638 988 q 883 843 817 910 q 989 687 950 776 q 1028 496 1028 597 q 989 305 1028 394 q 883 149 950 215 q 727 43 817 82 q 536 4 638 4 m 536 71 q 702 104 625 71 q 836 196 779 138 q 926 331 893 254 q 960 496 960 408 q 926 660 960 583 q 836 795 893 738 q 702 886 779 853 q 536 919 625 919 q 372 886 449 919 q 236 795 294 853 q 144 660 178 738 q 111 496 111 583 q 144 331 111 408 q 236 196 178 254 q 372 104 294 138 q 536 71 449 71 m 536 100 q 383 131 454 100 q 257 216 311 163 q 172 342 203 269 q 140 496 140 414 q 172 648 140 576 q 257 773 203 719 q 383 857 311 826 q 536 888 454 888 q 689 857 617 888 q 815 773 761 826 q 899 648 868 719 q 931 496 931 576 q 899 342 931 414 q 815 216 868 269 q 689 131 761 163 q 536 100 617 100 m 536 161 q 611 176 576 161 q 674 212 646 190 q 723 260 701 233 q 758 310 744 286 q 537 281 647 281 q 314 310 426 282 q 349 260 328 286 q 398 212 369 233 q 460 176 426 190 q 536 161 494 161 m 300 331 q 774 331 535 276 l 849 450 l 224 450 l 300 331 m 590 496 l 538 622 l 485 496 l 590 496 m 408 593 q 419 592 411 590 q 435 599 426 594 q 449 607 443 603 q 454 613 454 611 q 422 693 435 651 q 386 768 410 735 q 368 768 382 774 q 340 753 354 763 q 314 733 325 743 q 306 721 303 724 l 408 593 m 767 721 q 759 733 769 724 q 734 753 749 743 q 706 768 719 763 q 688 768 692 774 q 650 693 661 735 q 622 613 639 651 q 625 607 619 611 q 638 599 631 603 q 654 592 646 594 q 667 593 663 590 l 767 721 m 896 69 l 875 69 l 875 85 l 932 85 l 932 69 l 911 69 l 911 17 l 896 17 l 896 69 m 939 85 l 960 85 l 972 32 l 985 85 l 1004 85 l 1004 17 l 992 17 l 992 69 l 978 17 l 965 17 l 951 69 l 951 17 l 939 17 l 939 85 z "},"`":{"ha":1074,"x_min":46,"x_max":1028,"o":"m 536 4 q 345 43 435 4 q 189 149 256 82 q 84 305 122 215 q 46 496 46 394 q 84 687 46 597 q 189 843 122 776 q 345 949 256 910 q 536 988 435 988 q 727 949 638 988 q 883 843 817 910 q 989 687 950 776 q 1028 496 1028 597 q 989 305 1028 394 q 883 149 950 215 q 727 43 817 82 q 536 4 638 4 m 536 71 q 702 104 625 71 q 836 196 779 138 q 926 331 893 254 q 960 496 960 408 q 926 660 960 583 q 836 795 893 738 q 702 886 779 853 q 536 919 625 919 q 372 886 449 919 q 236 795 294 853 q 144 660 178 738 q 111 496 111 583 q 144 331 111 408 q 236 196 178 254 q 372 104 294 138 q 536 71 449 71 m 536 100 q 383 131 454 100 q 257 216 311 163 q 172 342 203 269 q 140 496 140 414 q 172 648 140 576 q 257 773 203 719 q 383 857 311 826 q 536 888 454 888 q 689 857 617 888 q 815 773 761 826 q 899 648 868 719 q 931 496 931 576 q 899 342 931 414 q 815 216 868 269 q 689 131 761 163 q 536 100 617 100 m 536 161 q 611 176 576 161 q 674 212 646 190 q 723 260 701 233 q 758 310 744 286 q 537 281 647 281 q 314 310 426 282 q 349 260 328 286 q 398 212 369 233 q 460 176 426 190 q 536 161 494 161 m 300 331 q 774 331 535 276 l 849 450 l 224 450 l 300 331 m 590 496 l 538 622 l 485 496 l 590 496 m 408 593 q 419 592 411 590 q 435 599 426 594 q 449 607 443 603 q 454 613 454 611 q 422 693 435 651 q 386 768 410 735 q 368 768 382 774 q 340 753 354 763 q 314 733 325 743 q 306 721 303 724 l 408 593 m 767 721 q 759 733 769 724 q 734 753 749 743 q 706 768 719 763 q 688 768 692 774 q 650 693 661 735 q 622 613 639 651 q 625 607 619 611 q 638 599 631 603 q 654 592 646 594 q 667 593 663 590 l 767 721 m 896 69 l 875 69 l 875 85 l 932 85 l 932 69 l 911 69 l 911 17 l 896 17 l 896 69 m 939 85 l 960 85 l 972 32 l 985 85 l 1004 85 l 1004 17 l 992 17 l 992 69 l 978 17 l 965 17 l 951 69 l 951 17 l 939 17 l 939 85 z "},"Ÿ":{"ha":603,"x_min":35,"x_max":990,"o":"m 267 1429 l 251 733 l 431 1429 l 597 1429 l 575 733 l 754 1429 l 990 1429 l 568 0 l 361 0 l 382 549 l 226 0 l 35 0 l 35 1429 l 267 1429 z "},"":{"ha":275,"x_min":35,"x_max":660,"o":"m 35 1429 l 267 1429 l 247 743 l 428 1429 l 660 1429 l 240 0 l 35 0 l 35 1429 z "},"œ":{"ha":1333,"x_min":153,"x_max":1692,"o":"m 931 1026 q 699 961 808 1017 q 509 817 590 906 q 381 615 428 729 q 333 371 333 500 q 385 115 333 235 q 525 -93 436 -4 q 733 -234 614 -182 q 986 -286 851 -286 q 1251 -230 1129 -286 q 1465 -78 1374 -174 l 1692 -78 q 1559 -236 1635 -165 q 1392 -358 1483 -307 q 1199 -436 1301 -408 q 986 -464 1096 -464 q 765 -434 871 -464 q 566 -349 658 -404 q 397 -218 474 -294 q 267 -49 321 -142 q 183 150 213 43 q 153 371 153 257 q 184 597 153 489 q 272 799 215 706 q 406 968 328 892 q 577 1097 483 1044 q 777 1178 671 1150 q 996 1206 883 1207 l 931 1026 z "},"˜":{"ha":1354,"x_min":153,"x_max":1692,"o":"m 736 975 q 574 878 649 939 q 447 740 500 818 q 363 567 393 661 q 333 371 333 474 q 385 115 333 235 q 525 -93 436 -4 q 733 -234 614 -182 q 986 -286 851 -286 q 1251 -230 1129 -286 q 1465 -78 1374 -174 l 1692 -78 q 1559 -236 1635 -165 q 1392 -358 1483 -307 q 1199 -436 1301 -408 q 986 -464 1096 -464 q 765 -434 871 -464 q 566 -349 658 -404 q 397 -218 474 -294 q 267 -49 321 -142 q 183 150 213 43 q 153 371 153 257 q 200 647 153 517 q 330 883 247 778 q 526 1065 413 989 q 774 1176 640 1140 l 736 975 z "},"":{"ha":1074,"x_min":46,"x_max":1028,"o":"m 536 4 q 345 43 435 4 q 189 149 256 82 q 84 305 122 215 q 46 496 46 394 q 84 687 46 597 q 189 843 122 776 q 345 949 256 910 q 536 988 435 988 q 727 949 638 988 q 883 843 817 910 q 989 687 950 776 q 1028 496 1028 597 q 989 305 1028 394 q 883 149 950 215 q 727 43 817 82 q 536 4 638 4 m 536 71 q 702 104 625 71 q 836 196 779 138 q 926 331 893 254 q 960 496 960 408 q 926 660 960 583 q 836 795 893 738 q 702 886 779 853 q 536 919 625 919 q 372 886 449 919 q 236 795 294 853 q 144 660 178 738 q 111 496 111 583 q 144 331 111 408 q 236 196 178 254 q 372 104 294 138 q 536 71 449 71 m 536 100 q 383 131 454 100 q 257 216 311 163 q 172 342 203 269 q 140 496 140 414 q 172 648 140 576 q 257 773 203 719 q 383 857 311 826 q 536 888 454 888 q 689 857 617 888 q 815 773 761 826 q 899 648 868 719 q 931 496 931 576 q 899 342 931 414 q 815 216 868 269 q 689 131 761 163 q 536 100 617 100 m 536 161 q 611 176 576 161 q 674 212 646 190 q 723 260 701 233 q 758 310 744 286 q 537 281 647 281 q 314 310 426 282 q 349 260 328 286 q 398 212 369 233 q 460 176 426 190 q 536 161 494 161 m 300 331 q 774 331 535 276 l 849 450 l 224 450 l 300 331 m 590 496 l 538 622 l 485 496 l 590 496 m 408 593 q 419 592 411 590 q 435 599 426 594 q 449 607 443 603 q 454 613 454 611 q 422 693 435 651 q 386 768 410 735 q 368 768 382 774 q 340 753 354 763 q 314 733 325 743 q 306 721 303 724 l 408 593 m 767 721 q 759 733 769 724 q 734 753 749 743 q 706 768 719 763 q 688 768 692 774 q 650 693 661 735 q 622 613 639 651 q 625 607 619 611 q 638 599 631 603 q 654 592 646 594 q 667 593 663 590 l 767 721 m 896 69 l 875 69 l 875 85 l 932 85 l 932 69 l 911 69 l 911 17 l 896 17 l 896 69 m 939 85 l 960 85 l 972 32 l 985 85 l 1004 85 l 1004 17 l 992 17 l 992 69 l 978 17 l 965 17 l 951 69 l 951 17 l 939 17 l 939 85 z "},"¨":{"ha":1074,"x_min":46,"x_max":1028,"o":"m 536 4 q 345 43 435 4 q 189 149 256 82 q 84 305 122 215 q 46 496 46 394 q 84 687 46 597 q 189 843 122 776 q 345 949 256 910 q 536 988 435 988 q 727 949 638 988 q 883 843 817 910 q 989 687 950 776 q 1028 496 1028 597 q 989 305 1028 394 q 883 149 950 215 q 727 43 817 82 q 536 4 638 4 m 536 71 q 702 104 625 71 q 836 196 779 138 q 926 331 893 254 q 960 496 960 408 q 926 660 960 583 q 836 795 893 738 q 702 886 779 853 q 536 919 625 919 q 372 886 449 919 q 236 795 294 853 q 144 660 178 738 q 111 496 111 583 q 144 331 111 408 q 236 196 178 254 q 372 104 294 138 q 536 71 449 71 m 536 100 q 383 131 454 100 q 257 216 311 163 q 172 342 203 269 q 140 496 140 414 q 172 648 140 576 q 257 773 203 719 q 383 857 311 826 q 536 888 454 888 q 689 857 617 888 q 815 773 761 826 q 899 648 868 719 q 931 496 931 576 q 899 342 931 414 q 815 216 868 269 q 689 131 761 163 q 536 100 617 100 m 536 161 q 611 176 576 161 q 674 212 646 190 q 723 260 701 233 q 758 310 744 286 q 537 281 647 281 q 314 310 426 282 q 349 260 328 286 q 398 212 369 233 q 460 176 426 190 q 536 161 494 161 m 300 331 q 774 331 535 276 l 849 450 l 224 450 l 300 331 m 590 496 l 538 622 l 485 496 l 590 496 m 408 593 q 419 592 411 590 q 435 599 426 594 q 449 607 443 603 q 454 613 454 611 q 422 693 435 651 q 386 768 410 735 q 368 768 382 774 q 340 753 354 763 q 314 733 325 743 q 306 721 303 724 l 408 593 m 767 721 q 759 733 769 724 q 734 753 749 743 q 706 768 719 763 q 688 768 692 774 q 650 693 661 735 q 622 613 639 651 q 625 607 619 611 q 638 599 631 603 q 654 592 646 594 q 667 593 663 590 l 767 721 m 896 69 l 875 69 l 875 85 l 932 85 l 932 69 l 911 69 l 911 17 l 896 17 l 896 69 m 939 85 l 960 85 l 972 32 l 985 85 l 1004 85 l 1004 17 l 992 17 l 992 69 l 978 17 l 965 17 l 951 69 l 951 17 l 939 17 l 939 85 z "},"Ä":{"ha":1074,"x_min":46,"x_max":1028,"o":"m 536 4 q 345 43 435 4 q 189 149 256 82 q 84 305 122 215 q 46 496 46 394 q 84 687 46 597 q 189 843 122 776 q 345 949 256 910 q 536 988 435 988 q 727 949 638 988 q 883 843 817 910 q 989 687 950 776 q 1028 496 1028 597 q 989 305 1028 394 q 883 149 950 215 q 727 43 817 82 q 536 4 638 4 m 536 71 q 702 104 625 71 q 836 196 779 138 q 926 331 893 254 q 960 496 960 408 q 926 660 960 583 q 836 795 893 738 q 702 886 779 853 q 536 919 625 919 q 372 886 449 919 q 236 795 294 853 q 144 660 178 738 q 111 496 111 583 q 144 331 111 408 q 236 196 178 254 q 372 104 294 138 q 536 71 449 71 m 536 100 q 383 131 454 100 q 257 216 311 163 q 172 342 203 269 q 140 496 140 414 q 172 648 140 576 q 257 773 203 719 q 383 857 311 826 q 536 888 454 888 q 689 857 617 888 q 815 773 761 826 q 899 648 868 719 q 931 496 931 576 q 899 342 931 414 q 815 216 868 269 q 689 131 761 163 q 536 100 617 100 m 536 161 q 611 176 576 161 q 674 212 646 190 q 723 260 701 233 q 758 310 744 286 q 537 281 647 281 q 314 310 426 282 q 349 260 328 286 q 398 212 369 233 q 460 176 426 190 q 536 161 494 161 m 300 331 q 774 331 535 276 l 849 450 l 224 450 l 300 331 m 590 496 l 538 622 l 485 496 l 590 496 m 408 593 q 419 592 411 590 q 435 599 426 594 q 449 607 443 603 q 454 613 454 611 q 422 693 435 651 q 386 768 410 735 q 368 768 382 774 q 340 753 354 763 q 314 733 325 743 q 306 721 303 724 l 408 593 m 767 721 q 759 733 769 724 q 734 753 749 743 q 706 768 719 763 q 688 768 692 774 q 650 693 661 735 q 622 613 639 651 q 625 607 619 611 q 638 599 631 603 q 654 592 646 594 q 667 593 663 590 l 767 721 m 896 69 l 875 69 l 875 85 l 932 85 l 932 69 l 911 69 l 911 17 l 896 17 l 896 69 m 939 85 l 960 85 l 972 32 l 985 85 l 1004 85 l 1004 17 l 992 17 l 992 69 l 978 17 l 965 17 l 951 69 l 951 17 l 939 17 l 939 85 z "},"Å":{"ha":1074,"x_min":46,"x_max":1028,"o":"m 536 4 q 345 43 435 4 q 189 149 256 82 q 84 305 122 215 q 46 496 46 394 q 84 687 46 597 q 189 843 122 776 q 345 949 256 910 q 536 988 435 988 q 727 949 638 988 q 883 843 817 910 q 989 687 950 776 q 1028 496 1028 597 q 989 305 1028 394 q 883 149 950 215 q 727 43 817 82 q 536 4 638 4 m 536 71 q 702 104 625 71 q 836 196 779 138 q 926 331 893 254 q 960 496 960 408 q 926 660 960 583 q 836 795 893 738 q 702 886 779 853 q 536 919 625 919 q 372 886 449 919 q 236 795 294 853 q 144 660 178 738 q 111 496 111 583 q 144 331 111 408 q 236 196 178 254 q 372 104 294 138 q 536 71 449 71 m 536 100 q 383 131 454 100 q 257 216 311 163 q 172 342 203 269 q 140 496 140 414 q 172 648 140 576 q 257 773 203 719 q 383 857 311 826 q 536 888 454 888 q 689 857 617 888 q 815 773 761 826 q 899 648 868 719 q 931 496 931 576 q 899 342 931 414 q 815 216 868 269 q 689 131 761 163 q 536 100 617 100 m 536 161 q 611 176 576 161 q 674 212 646 190 q 723 260 701 233 q 758 310 744 286 q 537 281 647 281 q 314 310 426 282 q 349 260 328 286 q 398 212 369 233 q 460 176 426 190 q 536 161 494 161 m 300 331 q 774 331 535 276 l 849 450 l 224 450 l 300 331 m 590 496 l 538 622 l 485 496 l 590 496 m 408 593 q 419 592 411 590 q 435 599 426 594 q 449 607 443 603 q 454 613 454 611 q 422 693 435 651 q 386 768 410 735 q 368 768 382 774 q 340 753 354 763 q 314 733 325 743 q 306 721 303 724 l 408 593 m 767 721 q 759 733 769 724 q 734 753 749 743 q 706 768 719 763 q 688 768 692 774 q 650 693 661 735 q 622 613 639 651 q 625 607 619 611 q 638 599 631 603 q 654 592 646 594 q 667 593 663 590 l 767 721 m 896 69 l 875 69 l 875 85 l 932 85 l 932 69 l 911 69 l 911 17 l 896 17 l 896 69 m 939 85 l 960 85 l 972 32 l 985 85 l 1004 85 l 1004 17 l 992 17 l 992 69 l 978 17 l 965 17 l 951 69 l 951 17 l 939 17 l 939 85 z "},"Æ":{"ha":1074,"x_min":46,"x_max":1028,"o":"m 536 4 q 345 43 435 4 q 189 149 256 82 q 84 305 122 215 q 46 496 46 394 q 84 687 46 597 q 189 843 122 776 q 345 949 256 910 q 536 988 435 988 q 727 949 638 988 q 883 843 817 910 q 989 687 950 776 q 1028 496 1028 597 q 989 305 1028 394 q 883 149 950 215 q 727 43 817 82 q 536 4 638 4 m 536 71 q 702 104 625 71 q 836 196 779 138 q 926 331 893 254 q 960 496 960 408 q 926 660 960 583 q 836 795 893 738 q 702 886 779 853 q 536 919 625 919 q 372 886 449 919 q 236 795 294 853 q 144 660 178 738 q 111 496 111 583 q 144 331 111 408 q 236 196 178 254 q 372 104 294 138 q 536 71 449 71 m 536 100 q 383 131 454 100 q 257 216 311 163 q 172 342 203 269 q 140 496 140 414 q 172 648 140 576 q 257 773 203 719 q 383 857 311 826 q 536 888 454 888 q 689 857 617 888 q 815 773 761 826 q 899 648 868 719 q 931 496 931 576 q 899 342 931 414 q 815 216 868 269 q 689 131 761 163 q 536 100 617 100 m 536 161 q 611 176 576 161 q 674 212 646 190 q 723 260 701 233 q 758 310 744 286 q 537 281 647 281 q 314 310 426 282 q 349 260 328 286 q 398 212 369 233 q 460 176 426 190 q 536 161 494 161 m 300 331 q 774 331 535 276 l 849 450 l 224 450 l 300 331 m 590 496 l 538 622 l 485 496 l 590 496 m 408 593 q 419 592 411 590 q 435 599 426 594 q 449 607 443 603 q 454 613 454 611 q 422 693 435 651 q 386 768 410 735 q 368 768 382 774 q 340 753 354 763 q 314 733 325 743 q 306 721 303 724 l 408 593 m 767 721 q 759 733 769 724 q 734 753 749 743 q 706 768 719 763 q 688 768 692 774 q 650 693 661 735 q 622 613 639 651 q 625 607 619 611 q 638 599 631 603 q 654 592 646 594 q 667 593 663 590 l 767 721 m 896 69 l 875 69 l 875 85 l 932 85 l 932 69 l 911 69 l 911 17 l 896 17 l 896 69 m 939 85 l 960 85 l 972 32 l 985 85 l 1004 85 l 1004 17 l 992 17 l 992 69 l 978 17 l 965 17 l 951 69 l 951 17 l 939 17 l 939 85 z "},"Ç":{"ha":1074,"x_min":46,"x_max":1028,"o":"m 536 4 q 345 43 435 4 q 189 149 256 82 q 84 305 122 215 q 46 496 46 394 q 84 687 46 597 q 189 843 122 776 q 345 949 256 910 q 536 988 435 988 q 727 949 638 988 q 883 843 817 910 q 989 687 950 776 q 1028 496 1028 597 q 989 305 1028 394 q 883 149 950 215 q 727 43 817 82 q 536 4 638 4 m 536 71 q 702 104 625 71 q 836 196 779 138 q 926 331 893 254 q 960 496 960 408 q 926 660 960 583 q 836 795 893 738 q 702 886 779 853 q 536 919 625 919 q 372 886 449 919 q 236 795 294 853 q 144 660 178 738 q 111 496 111 583 q 144 331 111 408 q 236 196 178 254 q 372 104 294 138 q 536 71 449 71 m 536 100 q 383 131 454 100 q 257 216 311 163 q 172 342 203 269 q 140 496 140 414 q 172 648 140 576 q 257 773 203 719 q 383 857 311 826 q 536 888 454 888 q 689 857 617 888 q 815 773 761 826 q 899 648 868 719 q 931 496 931 576 q 899 342 931 414 q 815 216 868 269 q 689 131 761 163 q 536 100 617 100 m 536 161 q 611 176 576 161 q 674 212 646 190 q 723 260 701 233 q 758 310 744 286 q 537 281 647 281 q 314 310 426 282 q 349 260 328 286 q 398 212 369 233 q 460 176 426 190 q 536 161 494 161 m 300 331 q 774 331 535 276 l 849 450 l 224 450 l 300 331 m 590 496 l 538 622 l 485 496 l 590 496 m 408 593 q 419 592 411 590 q 435 599 426 594 q 449 607 443 603 q 454 613 454 611 q 422 693 435 651 q 386 768 410 735 q 368 768 382 774 q 340 753 354 763 q 314 733 325 743 q 306 721 303 724 l 408 593 m 767 721 q 759 733 769 724 q 734 753 749 743 q 706 768 719 763 q 688 768 692 774 q 650 693 661 735 q 622 613 639 651 q 625 607 619 611 q 638 599 631 603 q 654 592 646 594 q 667 593 663 590 l 767 721 m 896 69 l 875 69 l 875 85 l 932 85 l 932 69 l 911 69 l 911 17 l 896 17 l 896 69 m 939 85 l 960 85 l 972 32 l 985 85 l 1004 85 l 1004 17 l 992 17 l 992 69 l 978 17 l 965 17 l 951 69 l 951 17 l 939 17 l 939 85 z "},"È":{"ha":1074,"x_min":46,"x_max":1028,"o":"m 536 4 q 345 43 435 4 q 189 149 256 82 q 84 305 122 215 q 46 496 46 394 q 84 687 46 597 q 189 843 122 776 q 345 949 256 910 q 536 988 435 988 q 727 949 638 988 q 883 843 817 910 q 989 687 950 776 q 1028 496 1028 597 q 989 305 1028 394 q 883 149 950 215 q 727 43 817 82 q 536 4 638 4 m 536 71 q 702 104 625 71 q 836 196 779 138 q 926 331 893 254 q 960 496 960 408 q 926 660 960 583 q 836 795 893 738 q 702 886 779 853 q 536 919 625 919 q 372 886 449 919 q 236 795 294 853 q 144 660 178 738 q 111 496 111 583 q 144 331 111 408 q 236 196 178 254 q 372 104 294 138 q 536 71 449 71 m 536 100 q 383 131 454 100 q 257 216 311 163 q 172 342 203 269 q 140 496 140 414 q 172 648 140 576 q 257 773 203 719 q 383 857 311 826 q 536 888 454 888 q 689 857 617 888 q 815 773 761 826 q 899 648 868 719 q 931 496 931 576 q 899 342 931 414 q 815 216 868 269 q 689 131 761 163 q 536 100 617 100 m 536 161 q 611 176 576 161 q 674 212 646 190 q 723 260 701 233 q 758 310 744 286 q 537 281 647 281 q 314 310 426 282 q 349 260 328 286 q 398 212 369 233 q 460 176 426 190 q 536 161 494 161 m 300 331 q 774 331 535 276 l 849 450 l 224 450 l 300 331 m 590 496 l 538 622 l 485 496 l 590 496 m 408 593 q 419 592 411 590 q 435 599 426 594 q 449 607 443 603 q 454 613 454 611 q 422 693 435 651 q 386 768 410 735 q 368 768 382 774 q 340 753 354 763 q 314 733 325 743 q 306 721 303 724 l 408 593 m 767 721 q 759 733 769 724 q 734 753 749 743 q 706 768 719 763 q 688 768 692 774 q 650 693 661 735 q 622 613 639 651 q 625 607 619 611 q 638 599 631 603 q 654 592 646 594 q 667 593 663 590 l 767 721 m 896 69 l 875 69 l 875 85 l 932 85 l 932 69 l 911 69 l 911 17 l 896 17 l 896 69 m 939 85 l 960 85 l 972 32 l 985 85 l 1004 85 l 1004 17 l 992 17 l 992 69 l 978 17 l 965 17 l 951 69 l 951 17 l 939 17 l 939 85 z "},"É":{"ha":1074,"x_min":46,"x_max":1028,"o":"m 536 4 q 345 43 435 4 q 189 149 256 82 q 84 305 122 215 q 46 496 46 394 q 84 687 46 597 q 189 843 122 776 q 345 949 256 910 q 536 988 435 988 q 727 949 638 988 q 883 843 817 910 q 989 687 950 776 q 1028 496 1028 597 q 989 305 1028 394 q 883 149 950 215 q 727 43 817 82 q 536 4 638 4 m 536 71 q 702 104 625 71 q 836 196 779 138 q 926 331 893 254 q 960 496 960 408 q 926 660 960 583 q 836 795 893 738 q 702 886 779 853 q 536 919 625 919 q 372 886 449 919 q 236 795 294 853 q 144 660 178 738 q 111 496 111 583 q 144 331 111 408 q 236 196 178 254 q 372 104 294 138 q 536 71 449 71 m 536 100 q 383 131 454 100 q 257 216 311 163 q 172 342 203 269 q 140 496 140 414 q 172 648 140 576 q 257 773 203 719 q 383 857 311 826 q 536 888 454 888 q 689 857 617 888 q 815 773 761 826 q 899 648 868 719 q 931 496 931 576 q 899 342 931 414 q 815 216 868 269 q 689 131 761 163 q 536 100 617 100 m 536 161 q 611 176 576 161 q 674 212 646 190 q 723 260 701 233 q 758 310 744 286 q 537 281 647 281 q 314 310 426 282 q 349 260 328 286 q 398 212 369 233 q 460 176 426 190 q 536 161 494 161 m 300 331 q 774 331 535 276 l 849 450 l 224 450 l 300 331 m 590 496 l 538 622 l 485 496 l 590 496 m 408 593 q 419 592 411 590 q 435 599 426 594 q 449 607 443 603 q 454 613 454 611 q 422 693 435 651 q 386 768 410 735 q 368 768 382 774 q 340 753 354 763 q 314 733 325 743 q 306 721 303 724 l 408 593 m 767 721 q 759 733 769 724 q 734 753 749 743 q 706 768 719 763 q 688 768 692 774 q 650 693 661 735 q 622 613 639 651 q 625 607 619 611 q 638 599 631 603 q 654 592 646 594 q 667 593 663 590 l 767 721 m 896 69 l 875 69 l 875 85 l 932 85 l 932 69 l 911 69 l 911 17 l 896 17 l 896 69 m 939 85 l 960 85 l 972 32 l 985 85 l 1004 85 l 1004 17 l 992 17 l 992 69 l 978 17 l 965 17 l 951 69 l 951 17 l 939 17 l 939 85 z "},"Ê":{"ha":1074,"x_min":46,"x_max":1028,"o":"m 536 4 q 345 43 435 4 q 189 149 256 82 q 84 305 122 215 q 46 496 46 394 q 84 687 46 597 q 189 843 122 776 q 345 949 256 910 q 536 988 435 988 q 727 949 638 988 q 883 843 817 910 q 989 687 950 776 q 1028 496 1028 597 q 989 305 1028 394 q 883 149 950 215 q 727 43 817 82 q 536 4 638 4 m 536 71 q 702 104 625 71 q 836 196 779 138 q 926 331 893 254 q 960 496 960 408 q 926 660 960 583 q 836 795 893 738 q 702 886 779 853 q 536 919 625 919 q 372 886 449 919 q 236 795 294 853 q 144 660 178 738 q 111 496 111 583 q 144 331 111 408 q 236 196 178 254 q 372 104 294 138 q 536 71 449 71 m 536 100 q 383 131 454 100 q 257 216 311 163 q 172 342 203 269 q 140 496 140 414 q 172 648 140 576 q 257 773 203 719 q 383 857 311 826 q 536 888 454 888 q 689 857 617 888 q 815 773 761 826 q 899 648 868 719 q 931 496 931 576 q 899 342 931 414 q 815 216 868 269 q 689 131 761 163 q 536 100 617 100 m 536 161 q 611 176 576 161 q 674 212 646 190 q 723 260 701 233 q 758 310 744 286 q 537 281 647 281 q 314 310 426 282 q 349 260 328 286 q 398 212 369 233 q 460 176 426 190 q 536 161 494 161 m 300 331 q 774 331 535 276 l 849 450 l 224 450 l 300 331 m 590 496 l 538 622 l 485 496 l 590 496 m 408 593 q 419 592 411 590 q 435 599 426 594 q 449 607 443 603 q 454 613 454 611 q 422 693 435 651 q 386 768 410 735 q 368 768 382 774 q 340 753 354 763 q 314 733 325 743 q 306 721 303 724 l 408 593 m 767 721 q 759 733 769 724 q 734 753 749 743 q 706 768 719 763 q 688 768 692 774 q 650 693 661 735 q 622 613 639 651 q 625 607 619 611 q 638 599 631 603 q 654 592 646 594 q 667 593 663 590 l 767 721 m 896 69 l 875 69 l 875 85 l 932 85 l 932 69 l 911 69 l 911 17 l 896 17 l 896 69 m 939 85 l 960 85 l 972 32 l 985 85 l 1004 85 l 1004 17 l 992 17 l 992 69 l 978 17 l 965 17 l 951 69 l 951 17 l 939 17 l 939 85 z "},"Ë":{"ha":1074,"x_min":46,"x_max":1028,"o":"m 536 4 q 345 43 435 4 q 189 149 256 82 q 84 305 122 215 q 46 496 46 394 q 84 687 46 597 q 189 843 122 776 q 345 949 256 910 q 536 988 435 988 q 727 949 638 988 q 883 843 817 910 q 989 687 950 776 q 1028 496 1028 597 q 989 305 1028 394 q 883 149 950 215 q 727 43 817 82 q 536 4 638 4 m 536 71 q 702 104 625 71 q 836 196 779 138 q 926 331 893 254 q 960 496 960 408 q 926 660 960 583 q 836 795 893 738 q 702 886 779 853 q 536 919 625 919 q 372 886 449 919 q 236 795 294 853 q 144 660 178 738 q 111 496 111 583 q 144 331 111 408 q 236 196 178 254 q 372 104 294 138 q 536 71 449 71 m 536 100 q 383 131 454 100 q 257 216 311 163 q 172 342 203 269 q 140 496 140 414 q 172 648 140 576 q 257 773 203 719 q 383 857 311 826 q 536 888 454 888 q 689 857 617 888 q 815 773 761 826 q 899 648 868 719 q 931 496 931 576 q 899 342 931 414 q 815 216 868 269 q 689 131 761 163 q 536 100 617 100 m 536 161 q 611 176 576 161 q 674 212 646 190 q 723 260 701 233 q 758 310 744 286 q 537 281 647 281 q 314 310 426 282 q 349 260 328 286 q 398 212 369 233 q 460 176 426 190 q 536 161 494 161 m 300 331 q 774 331 535 276 l 849 450 l 224 450 l 300 331 m 590 496 l 538 622 l 485 496 l 590 496 m 408 593 q 419 592 411 590 q 435 599 426 594 q 449 607 443 603 q 454 613 454 611 q 422 693 435 651 q 386 768 410 735 q 368 768 382 774 q 340 753 354 763 q 314 733 325 743 q 306 721 303 724 l 408 593 m 767 721 q 759 733 769 724 q 734 753 749 743 q 706 768 719 763 q 688 768 692 774 q 650 693 661 735 q 622 613 639 651 q 625 607 619 611 q 638 599 631 603 q 654 592 646 594 q 667 593 663 590 l 767 721 m 896 69 l 875 69 l 875 85 l 932 85 l 932 69 l 911 69 l 911 17 l 896 17 l 896 69 m 939 85 l 960 85 l 972 32 l 985 85 l 1004 85 l 1004 17 l 992 17 l 992 69 l 978 17 l 965 17 l 951 69 l 951 17 l 939 17 l 939 85 z "},"Ì":{"ha":1074,"x_min":46,"x_max":1028,"o":"m 536 4 q 345 43 435 4 q 189 149 256 82 q 84 305 122 215 q 46 496 46 394 q 84 687 46 597 q 189 843 122 776 q 345 949 256 910 q 536 988 435 988 q 727 949 638 988 q 883 843 817 910 q 989 687 950 776 q 1028 496 1028 597 q 989 305 1028 394 q 883 149 950 215 q 727 43 817 82 q 536 4 638 4 m 536 71 q 702 104 625 71 q 836 196 779 138 q 926 331 893 254 q 960 496 960 408 q 926 660 960 583 q 836 795 893 738 q 702 886 779 853 q 536 919 625 919 q 372 886 449 919 q 236 795 294 853 q 144 660 178 738 q 111 496 111 583 q 144 331 111 408 q 236 196 178 254 q 372 104 294 138 q 536 71 449 71 m 536 100 q 383 131 454 100 q 257 216 311 163 q 172 342 203 269 q 140 496 140 414 q 172 648 140 576 q 257 773 203 719 q 383 857 311 826 q 536 888 454 888 q 689 857 617 888 q 815 773 761 826 q 899 648 868 719 q 931 496 931 576 q 899 342 931 414 q 815 216 868 269 q 689 131 761 163 q 536 100 617 100 m 536 161 q 611 176 576 161 q 674 212 646 190 q 723 260 701 233 q 758 310 744 286 q 537 281 647 281 q 314 310 426 282 q 349 260 328 286 q 398 212 369 233 q 460 176 426 190 q 536 161 494 161 m 300 331 q 774 331 535 276 l 849 450 l 224 450 l 300 331 m 590 496 l 538 622 l 485 496 l 590 496 m 408 593 q 419 592 411 590 q 435 599 426 594 q 449 607 443 603 q 454 613 454 611 q 422 693 435 651 q 386 768 410 735 q 368 768 382 774 q 340 753 354 763 q 314 733 325 743 q 306 721 303 724 l 408 593 m 767 721 q 759 733 769 724 q 734 753 749 743 q 706 768 719 763 q 688 768 692 774 q 650 693 661 735 q 622 613 639 651 q 625 607 619 611 q 638 599 631 603 q 654 592 646 594 q 667 593 663 590 l 767 721 m 896 69 l 875 69 l 875 85 l 932 85 l 932 69 l 911 69 l 911 17 l 896 17 l 896 69 m 939 85 l 960 85 l 972 32 l 985 85 l 1004 85 l 1004 17 l 992 17 l 992 69 l 978 17 l 965 17 l 951 69 l 951 17 l 939 17 l 939 85 z "},"Í":{"ha":1074,"x_min":46,"x_max":1028,"o":"m 536 4 q 345 43 435 4 q 189 149 256 82 q 84 305 122 215 q 46 496 46 394 q 84 687 46 597 q 189 843 122 776 q 345 949 256 910 q 536 988 435 988 q 727 949 638 988 q 883 843 817 910 q 989 687 950 776 q 1028 496 1028 597 q 989 305 1028 394 q 883 149 950 215 q 727 43 817 82 q 536 4 638 4 m 536 71 q 702 104 625 71 q 836 196 779 138 q 926 331 893 254 q 960 496 960 408 q 926 660 960 583 q 836 795 893 738 q 702 886 779 853 q 536 919 625 919 q 372 886 449 919 q 236 795 294 853 q 144 660 178 738 q 111 496 111 583 q 144 331 111 408 q 236 196 178 254 q 372 104 294 138 q 536 71 449 71 m 536 100 q 383 131 454 100 q 257 216 311 163 q 172 342 203 269 q 140 496 140 414 q 172 648 140 576 q 257 773 203 719 q 383 857 311 826 q 536 888 454 888 q 689 857 617 888 q 815 773 761 826 q 899 648 868 719 q 931 496 931 576 q 899 342 931 414 q 815 216 868 269 q 689 131 761 163 q 536 100 617 100 m 536 161 q 611 176 576 161 q 674 212 646 190 q 723 260 701 233 q 758 310 744 286 q 537 281 647 281 q 314 310 426 282 q 349 260 328 286 q 398 212 369 233 q 460 176 426 190 q 536 161 494 161 m 300 331 q 774 331 535 276 l 849 450 l 224 450 l 300 331 m 590 496 l 538 622 l 485 496 l 590 496 m 408 593 q 419 592 411 590 q 435 599 426 594 q 449 607 443 603 q 454 613 454 611 q 422 693 435 651 q 386 768 410 735 q 368 768 382 774 q 340 753 354 763 q 314 733 325 743 q 306 721 303 724 l 408 593 m 767 721 q 759 733 769 724 q 734 753 749 743 q 706 768 719 763 q 688 768 692 774 q 650 693 661 735 q 622 613 639 651 q 625 607 619 611 q 638 599 631 603 q 654 592 646 594 q 667 593 663 590 l 767 721 m 896 69 l 875 69 l 875 85 l 932 85 l 932 69 l 911 69 l 911 17 l 896 17 l 896 69 m 939 85 l 960 85 l 972 32 l 985 85 l 1004 85 l 1004 17 l 992 17 l 992 69 l 978 17 l 965 17 l 951 69 l 951 17 l 939 17 l 939 85 z "},"Î":{"ha":1074,"x_min":46,"x_max":1028,"o":"m 536 4 q 345 43 435 4 q 189 149 256 82 q 84 305 122 215 q 46 496 46 394 q 84 687 46 597 q 189 843 122 776 q 345 949 256 910 q 536 988 435 988 q 727 949 638 988 q 883 843 817 910 q 989 687 950 776 q 1028 496 1028 597 q 989 305 1028 394 q 883 149 950 215 q 727 43 817 82 q 536 4 638 4 m 536 71 q 702 104 625 71 q 836 196 779 138 q 926 331 893 254 q 960 496 960 408 q 926 660 960 583 q 836 795 893 738 q 702 886 779 853 q 536 919 625 919 q 372 886 449 919 q 236 795 294 853 q 144 660 178 738 q 111 496 111 583 q 144 331 111 408 q 236 196 178 254 q 372 104 294 138 q 536 71 449 71 m 536 100 q 383 131 454 100 q 257 216 311 163 q 172 342 203 269 q 140 496 140 414 q 172 648 140 576 q 257 773 203 719 q 383 857 311 826 q 536 888 454 888 q 689 857 617 888 q 815 773 761 826 q 899 648 868 719 q 931 496 931 576 q 899 342 931 414 q 815 216 868 269 q 689 131 761 163 q 536 100 617 100 m 536 161 q 611 176 576 161 q 674 212 646 190 q 723 260 701 233 q 758 310 744 286 q 537 281 647 281 q 314 310 426 282 q 349 260 328 286 q 398 212 369 233 q 460 176 426 190 q 536 161 494 161 m 300 331 q 774 331 535 276 l 849 450 l 224 450 l 300 331 m 590 496 l 538 622 l 485 496 l 590 496 m 408 593 q 419 592 411 590 q 435 599 426 594 q 449 607 443 603 q 454 613 454 611 q 422 693 435 651 q 386 768 410 735 q 368 768 382 774 q 340 753 354 763 q 314 733 325 743 q 306 721 303 724 l 408 593 m 767 721 q 759 733 769 724 q 734 753 749 743 q 706 768 719 763 q 688 768 692 774 q 650 693 661 735 q 622 613 639 651 q 625 607 619 611 q 638 599 631 603 q 654 592 646 594 q 667 593 663 590 l 767 721 m 896 69 l 875 69 l 875 85 l 932 85 l 932 69 l 911 69 l 911 17 l 896 17 l 896 69 m 939 85 l 960 85 l 972 32 l 985 85 l 1004 85 l 1004 17 l 992 17 l 992 69 l 978 17 l 965 17 l 951 69 l 951 17 l 939 17 l 939 85 z "},"Ï":{"ha":1074,"x_min":46,"x_max":1028,"o":"m 536 4 q 345 43 435 4 q 189 149 256 82 q 84 305 122 215 q 46 496 46 394 q 84 687 46 597 q 189 843 122 776 q 345 949 256 910 q 536 988 435 988 q 727 949 638 988 q 883 843 817 910 q 989 687 950 776 q 1028 496 1028 597 q 989 305 1028 394 q 883 149 950 215 q 727 43 817 82 q 536 4 638 4 m 536 71 q 702 104 625 71 q 836 196 779 138 q 926 331 893 254 q 960 496 960 408 q 926 660 960 583 q 836 795 893 738 q 702 886 779 853 q 536 919 625 919 q 372 886 449 919 q 236 795 294 853 q 144 660 178 738 q 111 496 111 583 q 144 331 111 408 q 236 196 178 254 q 372 104 294 138 q 536 71 449 71 m 536 100 q 383 131 454 100 q 257 216 311 163 q 172 342 203 269 q 140 496 140 414 q 172 648 140 576 q 257 773 203 719 q 383 857 311 826 q 536 888 454 888 q 689 857 617 888 q 815 773 761 826 q 899 648 868 719 q 931 496 931 576 q 899 342 931 414 q 815 216 868 269 q 689 131 761 163 q 536 100 617 100 m 536 161 q 611 176 576 161 q 674 212 646 190 q 723 260 701 233 q 758 310 744 286 q 537 281 647 281 q 314 310 426 282 q 349 260 328 286 q 398 212 369 233 q 460 176 426 190 q 536 161 494 161 m 300 331 q 774 331 535 276 l 849 450 l 224 450 l 300 331 m 590 496 l 538 622 l 485 496 l 590 496 m 408 593 q 419 592 411 590 q 435 599 426 594 q 449 607 443 603 q 454 613 454 611 q 422 693 435 651 q 386 768 410 735 q 368 768 382 774 q 340 753 354 763 q 314 733 325 743 q 306 721 303 724 l 408 593 m 767 721 q 759 733 769 724 q 734 753 749 743 q 706 768 719 763 q 688 768 692 774 q 650 693 661 735 q 622 613 639 651 q 625 607 619 611 q 638 599 631 603 q 654 592 646 594 q 667 593 663 590 l 767 721 m 896 69 l 875 69 l 875 85 l 932 85 l 932 69 l 911 69 l 911 17 l 896 17 l 896 69 m 939 85 l 960 85 l 972 32 l 985 85 l 1004 85 l 1004 17 l 992 17 l 992 69 l 978 17 l 965 17 l 951 69 l 951 17 l 939 17 l 939 85 z "},"Ð":{"ha":1074,"x_min":46,"x_max":1028,"o":"m 536 4 q 345 43 435 4 q 189 149 256 82 q 84 305 122 215 q 46 496 46 394 q 84 687 46 597 q 189 843 122 776 q 345 949 256 910 q 536 988 435 988 q 727 949 638 988 q 883 843 817 910 q 989 687 950 776 q 1028 496 1028 597 q 989 305 1028 394 q 883 149 950 215 q 727 43 817 82 q 536 4 638 4 m 536 71 q 702 104 625 71 q 836 196 779 138 q 926 331 893 254 q 960 496 960 408 q 926 660 960 583 q 836 795 893 738 q 702 886 779 853 q 536 919 625 919 q 372 886 449 919 q 236 795 294 853 q 144 660 178 738 q 111 496 111 583 q 144 331 111 408 q 236 196 178 254 q 372 104 294 138 q 536 71 449 71 m 536 100 q 383 131 454 100 q 257 216 311 163 q 172 342 203 269 q 140 496 140 414 q 172 648 140 576 q 257 773 203 719 q 383 857 311 826 q 536 888 454 888 q 689 857 617 888 q 815 773 761 826 q 899 648 868 719 q 931 496 931 576 q 899 342 931 414 q 815 216 868 269 q 689 131 761 163 q 536 100 617 100 m 536 161 q 611 176 576 161 q 674 212 646 190 q 723 260 701 233 q 758 310 744 286 q 537 281 647 281 q 314 310 426 282 q 349 260 328 286 q 398 212 369 233 q 460 176 426 190 q 536 161 494 161 m 300 331 q 774 331 535 276 l 849 450 l 224 450 l 300 331 m 590 496 l 538 622 l 485 496 l 590 496 m 408 593 q 419 592 411 590 q 435 599 426 594 q 449 607 443 603 q 454 613 454 611 q 422 693 435 651 q 386 768 410 735 q 368 768 382 774 q 340 753 354 763 q 314 733 325 743 q 306 721 303 724 l 408 593 m 767 721 q 759 733 769 724 q 734 753 749 743 q 706 768 719 763 q 688 768 692 774 q 650 693 661 735 q 622 613 639 651 q 625 607 619 611 q 638 599 631 603 q 654 592 646 594 q 667 593 663 590 l 767 721 m 896 69 l 875 69 l 875 85 l 932 85 l 932 69 l 911 69 l 911 17 l 896 17 l 896 69 m 939 85 l 960 85 l 972 32 l 985 85 l 1004 85 l 1004 17 l 992 17 l 992 69 l 978 17 l 965 17 l 951 69 l 951 17 l 939 17 l 939 85 z "},"Ñ":{"ha":1074,"x_min":46,"x_max":1028,"o":"m 536 4 q 345 43 435 4 q 189 149 256 82 q 84 305 122 215 q 46 496 46 394 q 84 687 46 597 q 189 843 122 776 q 345 949 256 910 q 536 988 435 988 q 727 949 638 988 q 883 843 817 910 q 989 687 950 776 q 1028 496 1028 597 q 989 305 1028 394 q 883 149 950 215 q 727 43 817 82 q 536 4 638 4 m 536 71 q 702 104 625 71 q 836 196 779 138 q 926 331 893 254 q 960 496 960 408 q 926 660 960 583 q 836 795 893 738 q 702 886 779 853 q 536 919 625 919 q 372 886 449 919 q 236 795 294 853 q 144 660 178 738 q 111 496 111 583 q 144 331 111 408 q 236 196 178 254 q 372 104 294 138 q 536 71 449 71 m 536 100 q 383 131 454 100 q 257 216 311 163 q 172 342 203 269 q 140 496 140 414 q 172 648 140 576 q 257 773 203 719 q 383 857 311 826 q 536 888 454 888 q 689 857 617 888 q 815 773 761 826 q 899 648 868 719 q 931 496 931 576 q 899 342 931 414 q 815 216 868 269 q 689 131 761 163 q 536 100 617 100 m 536 161 q 611 176 576 161 q 674 212 646 190 q 723 260 701 233 q 758 310 744 286 q 537 281 647 281 q 314 310 426 282 q 349 260 328 286 q 398 212 369 233 q 460 176 426 190 q 536 161 494 161 m 300 331 q 774 331 535 276 l 849 450 l 224 450 l 300 331 m 590 496 l 538 622 l 485 496 l 590 496 m 408 593 q 419 592 411 590 q 435 599 426 594 q 449 607 443 603 q 454 613 454 611 q 422 693 435 651 q 386 768 410 735 q 368 768 382 774 q 340 753 354 763 q 314 733 325 743 q 306 721 303 724 l 408 593 m 767 721 q 759 733 769 724 q 734 753 749 743 q 706 768 719 763 q 688 768 692 774 q 650 693 661 735 q 622 613 639 651 q 625 607 619 611 q 638 599 631 603 q 654 592 646 594 q 667 593 663 590 l 767 721 m 896 69 l 875 69 l 875 85 l 932 85 l 932 69 l 911 69 l 911 17 l 896 17 l 896 69 m 939 85 l 960 85 l 972 32 l 985 85 l 1004 85 l 1004 17 l 992 17 l 992 69 l 978 17 l 965 17 l 951 69 l 951 17 l 939 17 l 939 85 z "},"Ò":{"ha":1074,"x_min":46,"x_max":1028,"o":"m 536 4 q 345 43 435 4 q 189 149 256 82 q 84 305 122 215 q 46 496 46 394 q 84 687 46 597 q 189 843 122 776 q 345 949 256 910 q 536 988 435 988 q 727 949 638 988 q 883 843 817 910 q 989 687 950 776 q 1028 496 1028 597 q 989 305 1028 394 q 883 149 950 215 q 727 43 817 82 q 536 4 638 4 m 536 71 q 702 104 625 71 q 836 196 779 138 q 926 331 893 254 q 960 496 960 408 q 926 660 960 583 q 836 795 893 738 q 702 886 779 853 q 536 919 625 919 q 372 886 449 919 q 236 795 294 853 q 144 660 178 738 q 111 496 111 583 q 144 331 111 408 q 236 196 178 254 q 372 104 294 138 q 536 71 449 71 m 536 100 q 383 131 454 100 q 257 216 311 163 q 172 342 203 269 q 140 496 140 414 q 172 648 140 576 q 257 773 203 719 q 383 857 311 826 q 536 888 454 888 q 689 857 617 888 q 815 773 761 826 q 899 648 868 719 q 931 496 931 576 q 899 342 931 414 q 815 216 868 269 q 689 131 761 163 q 536 100 617 100 m 536 161 q 611 176 576 161 q 674 212 646 190 q 723 260 701 233 q 758 310 744 286 q 537 281 647 281 q 314 310 426 282 q 349 260 328 286 q 398 212 369 233 q 460 176 426 190 q 536 161 494 161 m 300 331 q 774 331 535 276 l 849 450 l 224 450 l 300 331 m 590 496 l 538 622 l 485 496 l 590 496 m 408 593 q 419 592 411 590 q 435 599 426 594 q 449 607 443 603 q 454 613 454 611 q 422 693 435 651 q 386 768 410 735 q 368 768 382 774 q 340 753 354 763 q 314 733 325 743 q 306 721 303 724 l 408 593 m 767 721 q 759 733 769 724 q 734 753 749 743 q 706 768 719 763 q 688 768 692 774 q 650 693 661 735 q 622 613 639 651 q 625 607 619 611 q 638 599 631 603 q 654 592 646 594 q 667 593 663 590 l 767 721 m 896 69 l 875 69 l 875 85 l 932 85 l 932 69 l 911 69 l 911 17 l 896 17 l 896 69 m 939 85 l 960 85 l 972 32 l 985 85 l 1004 85 l 1004 17 l 992 17 l 992 69 l 978 17 l 965 17 l 951 69 l 951 17 l 939 17 l 939 85 z "},"Ó":{"ha":1074,"x_min":46,"x_max":1028,"o":"m 536 4 q 345 43 435 4 q 189 149 256 82 q 84 305 122 215 q 46 496 46 394 q 84 687 46 597 q 189 843 122 776 q 345 949 256 910 q 536 988 435 988 q 727 949 638 988 q 883 843 817 910 q 989 687 950 776 q 1028 496 1028 597 q 989 305 1028 394 q 883 149 950 215 q 727 43 817 82 q 536 4 638 4 m 536 71 q 702 104 625 71 q 836 196 779 138 q 926 331 893 254 q 960 496 960 408 q 926 660 960 583 q 836 795 893 738 q 702 886 779 853 q 536 919 625 919 q 372 886 449 919 q 236 795 294 853 q 144 660 178 738 q 111 496 111 583 q 144 331 111 408 q 236 196 178 254 q 372 104 294 138 q 536 71 449 71 m 536 100 q 383 131 454 100 q 257 216 311 163 q 172 342 203 269 q 140 496 140 414 q 172 648 140 576 q 257 773 203 719 q 383 857 311 826 q 536 888 454 888 q 689 857 617 888 q 815 773 761 826 q 899 648 868 719 q 931 496 931 576 q 899 342 931 414 q 815 216 868 269 q 689 131 761 163 q 536 100 617 100 m 536 161 q 611 176 576 161 q 674 212 646 190 q 723 260 701 233 q 758 310 744 286 q 537 281 647 281 q 314 310 426 282 q 349 260 328 286 q 398 212 369 233 q 460 176 426 190 q 536 161 494 161 m 300 331 q 774 331 535 276 l 849 450 l 224 450 l 300 331 m 590 496 l 538 622 l 485 496 l 590 496 m 408 593 q 419 592 411 590 q 435 599 426 594 q 449 607 443 603 q 454 613 454 611 q 422 693 435 651 q 386 768 410 735 q 368 768 382 774 q 340 753 354 763 q 314 733 325 743 q 306 721 303 724 l 408 593 m 767 721 q 759 733 769 724 q 734 753 749 743 q 706 768 719 763 q 688 768 692 774 q 650 693 661 735 q 622 613 639 651 q 625 607 619 611 q 638 599 631 603 q 654 592 646 594 q 667 593 663 590 l 767 721 m 896 69 l 875 69 l 875 85 l 932 85 l 932 69 l 911 69 l 911 17 l 896 17 l 896 69 m 939 85 l 960 85 l 972 32 l 985 85 l 1004 85 l 1004 17 l 992 17 l 992 69 l 978 17 l 965 17 l 951 69 l 951 17 l 939 17 l 939 85 z "},"Ô":{"ha":1074,"x_min":46,"x_max":1028,"o":"m 536 4 q 345 43 435 4 q 189 149 256 82 q 84 305 122 215 q 46 496 46 394 q 84 687 46 597 q 189 843 122 776 q 345 949 256 910 q 536 988 435 988 q 727 949 638 988 q 883 843 817 910 q 989 687 950 776 q 1028 496 1028 597 q 989 305 1028 394 q 883 149 950 215 q 727 43 817 82 q 536 4 638 4 m 536 71 q 702 104 625 71 q 836 196 779 138 q 926 331 893 254 q 960 496 960 408 q 926 660 960 583 q 836 795 893 738 q 702 886 779 853 q 536 919 625 919 q 372 886 449 919 q 236 795 294 853 q 144 660 178 738 q 111 496 111 583 q 144 331 111 408 q 236 196 178 254 q 372 104 294 138 q 536 71 449 71 m 536 100 q 383 131 454 100 q 257 216 311 163 q 172 342 203 269 q 140 496 140 414 q 172 648 140 576 q 257 773 203 719 q 383 857 311 826 q 536 888 454 888 q 689 857 617 888 q 815 773 761 826 q 899 648 868 719 q 931 496 931 576 q 899 342 931 414 q 815 216 868 269 q 689 131 761 163 q 536 100 617 100 m 536 161 q 611 176 576 161 q 674 212 646 190 q 723 260 701 233 q 758 310 744 286 q 537 281 647 281 q 314 310 426 282 q 349 260 328 286 q 398 212 369 233 q 460 176 426 190 q 536 161 494 161 m 300 331 q 774 331 535 276 l 849 450 l 224 450 l 300 331 m 590 496 l 538 622 l 485 496 l 590 496 m 408 593 q 419 592 411 590 q 435 599 426 594 q 449 607 443 603 q 454 613 454 611 q 422 693 435 651 q 386 768 410 735 q 368 768 382 774 q 340 753 354 763 q 314 733 325 743 q 306 721 303 724 l 408 593 m 767 721 q 759 733 769 724 q 734 753 749 743 q 706 768 719 763 q 688 768 692 774 q 650 693 661 735 q 622 613 639 651 q 625 607 619 611 q 638 599 631 603 q 654 592 646 594 q 667 593 663 590 l 767 721 m 896 69 l 875 69 l 875 85 l 932 85 l 932 69 l 911 69 l 911 17 l 896 17 l 896 69 m 939 85 l 960 85 l 972 32 l 985 85 l 1004 85 l 1004 17 l 992 17 l 992 69 l 978 17 l 965 17 l 951 69 l 951 17 l 939 17 l 939 85 z "},"Õ":{"ha":1074,"x_min":46,"x_max":1028,"o":"m 536 4 q 345 43 435 4 q 189 149 256 82 q 84 305 122 215 q 46 496 46 394 q 84 687 46 597 q 189 843 122 776 q 345 949 256 910 q 536 988 435 988 q 727 949 638 988 q 883 843 817 910 q 989 687 950 776 q 1028 496 1028 597 q 989 305 1028 394 q 883 149 950 215 q 727 43 817 82 q 536 4 638 4 m 536 71 q 702 104 625 71 q 836 196 779 138 q 926 331 893 254 q 960 496 960 408 q 926 660 960 583 q 836 795 893 738 q 702 886 779 853 q 536 919 625 919 q 372 886 449 919 q 236 795 294 853 q 144 660 178 738 q 111 496 111 583 q 144 331 111 408 q 236 196 178 254 q 372 104 294 138 q 536 71 449 71 m 536 100 q 383 131 454 100 q 257 216 311 163 q 172 342 203 269 q 140 496 140 414 q 172 648 140 576 q 257 773 203 719 q 383 857 311 826 q 536 888 454 888 q 689 857 617 888 q 815 773 761 826 q 899 648 868 719 q 931 496 931 576 q 899 342 931 414 q 815 216 868 269 q 689 131 761 163 q 536 100 617 100 m 536 161 q 611 176 576 161 q 674 212 646 190 q 723 260 701 233 q 758 310 744 286 q 537 281 647 281 q 314 310 426 282 q 349 260 328 286 q 398 212 369 233 q 460 176 426 190 q 536 161 494 161 m 300 331 q 774 331 535 276 l 849 450 l 224 450 l 300 331 m 590 496 l 538 622 l 485 496 l 590 496 m 408 593 q 419 592 411 590 q 435 599 426 594 q 449 607 443 603 q 454 613 454 611 q 422 693 435 651 q 386 768 410 735 q 368 768 382 774 q 340 753 354 763 q 314 733 325 743 q 306 721 303 724 l 408 593 m 767 721 q 759 733 769 724 q 734 753 749 743 q 706 768 719 763 q 688 768 692 774 q 650 693 661 735 q 622 613 639 651 q 625 607 619 611 q 638 599 631 603 q 654 592 646 594 q 667 593 663 590 l 767 721 m 896 69 l 875 69 l 875 85 l 932 85 l 932 69 l 911 69 l 911 17 l 896 17 l 896 69 m 939 85 l 960 85 l 972 32 l 985 85 l 1004 85 l 1004 17 l 992 17 l 992 69 l 978 17 l 965 17 l 951 69 l 951 17 l 939 17 l 939 85 z "},"Ö":{"ha":1074,"x_min":46,"x_max":1028,"o":"m 536 4 q 345 43 435 4 q 189 149 256 82 q 84 305 122 215 q 46 496 46 394 q 84 687 46 597 q 189 843 122 776 q 345 949 256 910 q 536 988 435 988 q 727 949 638 988 q 883 843 817 910 q 989 687 950 776 q 1028 496 1028 597 q 989 305 1028 394 q 883 149 950 215 q 727 43 817 82 q 536 4 638 4 m 536 71 q 702 104 625 71 q 836 196 779 138 q 926 331 893 254 q 960 496 960 408 q 926 660 960 583 q 836 795 893 738 q 702 886 779 853 q 536 919 625 919 q 372 886 449 919 q 236 795 294 853 q 144 660 178 738 q 111 496 111 583 q 144 331 111 408 q 236 196 178 254 q 372 104 294 138 q 536 71 449 71 m 536 100 q 383 131 454 100 q 257 216 311 163 q 172 342 203 269 q 140 496 140 414 q 172 648 140 576 q 257 773 203 719 q 383 857 311 826 q 536 888 454 888 q 689 857 617 888 q 815 773 761 826 q 899 648 868 719 q 931 496 931 576 q 899 342 931 414 q 815 216 868 269 q 689 131 761 163 q 536 100 617 100 m 536 161 q 611 176 576 161 q 674 212 646 190 q 723 260 701 233 q 758 310 744 286 q 537 281 647 281 q 314 310 426 282 q 349 260 328 286 q 398 212 369 233 q 460 176 426 190 q 536 161 494 161 m 300 331 q 774 331 535 276 l 849 450 l 224 450 l 300 331 m 590 496 l 538 622 l 485 496 l 590 496 m 408 593 q 419 592 411 590 q 435 599 426 594 q 449 607 443 603 q 454 613 454 611 q 422 693 435 651 q 386 768 410 735 q 368 768 382 774 q 340 753 354 763 q 314 733 325 743 q 306 721 303 724 l 408 593 m 767 721 q 759 733 769 724 q 734 753 749 743 q 706 768 719 763 q 688 768 692 774 q 650 693 661 735 q 622 613 639 651 q 625 607 619 611 q 638 599 631 603 q 654 592 646 594 q 667 593 663 590 l 767 721 m 896 69 l 875 69 l 875 85 l 932 85 l 932 69 l 911 69 l 911 17 l 896 17 l 896 69 m 939 85 l 960 85 l 972 32 l 985 85 l 1004 85 l 1004 17 l 992 17 l 992 69 l 978 17 l 965 17 l 951 69 l 951 17 l 939 17 l 939 85 z "},"×":{"ha":1074,"x_min":46,"x_max":1028,"o":"m 536 4 q 345 43 435 4 q 189 149 256 82 q 84 305 122 215 q 46 496 46 394 q 84 687 46 597 q 189 843 122 776 q 345 949 256 910 q 536 988 435 988 q 727 949 638 988 q 883 843 817 910 q 989 687 950 776 q 1028 496 1028 597 q 989 305 1028 394 q 883 149 950 215 q 727 43 817 82 q 536 4 638 4 m 536 71 q 702 104 625 71 q 836 196 779 138 q 926 331 893 254 q 960 496 960 408 q 926 660 960 583 q 836 795 893 738 q 702 886 779 853 q 536 919 625 919 q 372 886 449 919 q 236 795 294 853 q 144 660 178 738 q 111 496 111 583 q 144 331 111 408 q 236 196 178 254 q 372 104 294 138 q 536 71 449 71 m 536 100 q 383 131 454 100 q 257 216 311 163 q 172 342 203 269 q 140 496 140 414 q 172 648 140 576 q 257 773 203 719 q 383 857 311 826 q 536 888 454 888 q 689 857 617 888 q 815 773 761 826 q 899 648 868 719 q 931 496 931 576 q 899 342 931 414 q 815 216 868 269 q 689 131 761 163 q 536 100 617 100 m 536 161 q 611 176 576 161 q 674 212 646 190 q 723 260 701 233 q 758 310 744 286 q 537 281 647 281 q 314 310 426 282 q 349 260 328 286 q 398 212 369 233 q 460 176 426 190 q 536 161 494 161 m 300 331 q 774 331 535 276 l 849 450 l 224 450 l 300 331 m 590 496 l 538 622 l 485 496 l 590 496 m 408 593 q 419 592 411 590 q 435 599 426 594 q 449 607 443 603 q 454 613 454 611 q 422 693 435 651 q 386 768 410 735 q 368 768 382 774 q 340 753 354 763 q 314 733 325 743 q 306 721 303 724 l 408 593 m 767 721 q 759 733 769 724 q 734 753 749 743 q 706 768 719 763 q 688 768 692 774 q 650 693 661 735 q 622 613 639 651 q 625 607 619 611 q 638 599 631 603 q 654 592 646 594 q 667 593 663 590 l 767 721 m 896 69 l 875 69 l 875 85 l 932 85 l 932 69 l 911 69 l 911 17 l 896 17 l 896 69 m 939 85 l 960 85 l 972 32 l 985 85 l 1004 85 l 1004 17 l 992 17 l 992 69 l 978 17 l 965 17 l 951 69 l 951 17 l 939 17 l 939 85 z "},"Ø":{"ha":1074,"x_min":46,"x_max":1028,"o":"m 536 4 q 345 43 435 4 q 189 149 256 82 q 84 305 122 215 q 46 496 46 394 q 84 687 46 597 q 189 843 122 776 q 345 949 256 910 q 536 988 435 988 q 727 949 638 988 q 883 843 817 910 q 989 687 950 776 q 1028 496 1028 597 q 989 305 1028 394 q 883 149 950 215 q 727 43 817 82 q 536 4 638 4 m 536 71 q 702 104 625 71 q 836 196 779 138 q 926 331 893 254 q 960 496 960 408 q 926 660 960 583 q 836 795 893 738 q 702 886 779 853 q 536 919 625 919 q 372 886 449 919 q 236 795 294 853 q 144 660 178 738 q 111 496 111 583 q 144 331 111 408 q 236 196 178 254 q 372 104 294 138 q 536 71 449 71 m 536 100 q 383 131 454 100 q 257 216 311 163 q 172 342 203 269 q 140 496 140 414 q 172 648 140 576 q 257 773 203 719 q 383 857 311 826 q 536 888 454 888 q 689 857 617 888 q 815 773 761 826 q 899 648 868 719 q 931 496 931 576 q 899 342 931 414 q 815 216 868 269 q 689 131 761 163 q 536 100 617 100 m 536 161 q 611 176 576 161 q 674 212 646 190 q 723 260 701 233 q 758 310 744 286 q 537 281 647 281 q 314 310 426 282 q 349 260 328 286 q 398 212 369 233 q 460 176 426 190 q 536 161 494 161 m 300 331 q 774 331 535 276 l 849 450 l 224 450 l 300 331 m 590 496 l 538 622 l 485 496 l 590 496 m 408 593 q 419 592 411 590 q 435 599 426 594 q 449 607 443 603 q 454 613 454 611 q 422 693 435 651 q 386 768 410 735 q 368 768 382 774 q 340 753 354 763 q 314 733 325 743 q 306 721 303 724 l 408 593 m 767 721 q 759 733 769 724 q 734 753 749 743 q 706 768 719 763 q 688 768 692 774 q 650 693 661 735 q 622 613 639 651 q 625 607 619 611 q 638 599 631 603 q 654 592 646 594 q 667 593 663 590 l 767 721 m 896 69 l 875 69 l 875 85 l 932 85 l 932 69 l 911 69 l 911 17 l 896 17 l 896 69 m 939 85 l 960 85 l 972 32 l 985 85 l 1004 85 l 1004 17 l 992 17 l 992 69 l 978 17 l 965 17 l 951 69 l 951 17 l 939 17 l 939 85 z "},"Ù":{"ha":1074,"x_min":46,"x_max":1028,"o":"m 536 4 q 345 43 435 4 q 189 149 256 82 q 84 305 122 215 q 46 496 46 394 q 84 687 46 597 q 189 843 122 776 q 345 949 256 910 q 536 988 435 988 q 727 949 638 988 q 883 843 817 910 q 989 687 950 776 q 1028 496 1028 597 q 989 305 1028 394 q 883 149 950 215 q 727 43 817 82 q 536 4 638 4 m 536 71 q 702 104 625 71 q 836 196 779 138 q 926 331 893 254 q 960 496 960 408 q 926 660 960 583 q 836 795 893 738 q 702 886 779 853 q 536 919 625 919 q 372 886 449 919 q 236 795 294 853 q 144 660 178 738 q 111 496 111 583 q 144 331 111 408 q 236 196 178 254 q 372 104 294 138 q 536 71 449 71 m 536 100 q 383 131 454 100 q 257 216 311 163 q 172 342 203 269 q 140 496 140 414 q 172 648 140 576 q 257 773 203 719 q 383 857 311 826 q 536 888 454 888 q 689 857 617 888 q 815 773 761 826 q 899 648 868 719 q 931 496 931 576 q 899 342 931 414 q 815 216 868 269 q 689 131 761 163 q 536 100 617 100 m 536 161 q 611 176 576 161 q 674 212 646 190 q 723 260 701 233 q 758 310 744 286 q 537 281 647 281 q 314 310 426 282 q 349 260 328 286 q 398 212 369 233 q 460 176 426 190 q 536 161 494 161 m 300 331 q 774 331 535 276 l 849 450 l 224 450 l 300 331 m 590 496 l 538 622 l 485 496 l 590 496 m 408 593 q 419 592 411 590 q 435 599 426 594 q 449 607 443 603 q 454 613 454 611 q 422 693 435 651 q 386 768 410 735 q 368 768 382 774 q 340 753 354 763 q 314 733 325 743 q 306 721 303 724 l 408 593 m 767 721 q 759 733 769 724 q 734 753 749 743 q 706 768 719 763 q 688 768 692 774 q 650 693 661 735 q 622 613 639 651 q 625 607 619 611 q 638 599 631 603 q 654 592 646 594 q 667 593 663 590 l 767 721 m 896 69 l 875 69 l 875 85 l 932 85 l 932 69 l 911 69 l 911 17 l 896 17 l 896 69 m 939 85 l 960 85 l 972 32 l 985 85 l 1004 85 l 1004 17 l 992 17 l 992 69 l 978 17 l 965 17 l 951 69 l 951 17 l 939 17 l 939 85 z "},"Ú":{"ha":1074,"x_min":46,"x_max":1028,"o":"m 536 4 q 345 43 435 4 q 189 149 256 82 q 84 305 122 215 q 46 496 46 394 q 84 687 46 597 q 189 843 122 776 q 345 949 256 910 q 536 988 435 988 q 727 949 638 988 q 883 843 817 910 q 989 687 950 776 q 1028 496 1028 597 q 989 305 1028 394 q 883 149 950 215 q 727 43 817 82 q 536 4 638 4 m 536 71 q 702 104 625 71 q 836 196 779 138 q 926 331 893 254 q 960 496 960 408 q 926 660 960 583 q 836 795 893 738 q 702 886 779 853 q 536 919 625 919 q 372 886 449 919 q 236 795 294 853 q 144 660 178 738 q 111 496 111 583 q 144 331 111 408 q 236 196 178 254 q 372 104 294 138 q 536 71 449 71 m 536 100 q 383 131 454 100 q 257 216 311 163 q 172 342 203 269 q 140 496 140 414 q 172 648 140 576 q 257 773 203 719 q 383 857 311 826 q 536 888 454 888 q 689 857 617 888 q 815 773 761 826 q 899 648 868 719 q 931 496 931 576 q 899 342 931 414 q 815 216 868 269 q 689 131 761 163 q 536 100 617 100 m 536 161 q 611 176 576 161 q 674 212 646 190 q 723 260 701 233 q 758 310 744 286 q 537 281 647 281 q 314 310 426 282 q 349 260 328 286 q 398 212 369 233 q 460 176 426 190 q 536 161 494 161 m 300 331 q 774 331 535 276 l 849 450 l 224 450 l 300 331 m 590 496 l 538 622 l 485 496 l 590 496 m 408 593 q 419 592 411 590 q 435 599 426 594 q 449 607 443 603 q 454 613 454 611 q 422 693 435 651 q 386 768 410 735 q 368 768 382 774 q 340 753 354 763 q 314 733 325 743 q 306 721 303 724 l 408 593 m 767 721 q 759 733 769 724 q 734 753 749 743 q 706 768 719 763 q 688 768 692 774 q 650 693 661 735 q 622 613 639 651 q 625 607 619 611 q 638 599 631 603 q 654 592 646 594 q 667 593 663 590 l 767 721 m 896 69 l 875 69 l 875 85 l 932 85 l 932 69 l 911 69 l 911 17 l 896 17 l 896 69 m 939 85 l 960 85 l 972 32 l 985 85 l 1004 85 l 1004 17 l 992 17 l 992 69 l 978 17 l 965 17 l 951 69 l 951 17 l 939 17 l 939 85 z "},"Û":{"ha":1074,"x_min":46,"x_max":1028,"o":"m 536 4 q 345 43 435 4 q 189 149 256 82 q 84 305 122 215 q 46 496 46 394 q 84 687 46 597 q 189 843 122 776 q 345 949 256 910 q 536 988 435 988 q 727 949 638 988 q 883 843 817 910 q 989 687 950 776 q 1028 496 1028 597 q 989 305 1028 394 q 883 149 950 215 q 727 43 817 82 q 536 4 638 4 m 536 71 q 702 104 625 71 q 836 196 779 138 q 926 331 893 254 q 960 496 960 408 q 926 660 960 583 q 836 795 893 738 q 702 886 779 853 q 536 919 625 919 q 372 886 449 919 q 236 795 294 853 q 144 660 178 738 q 111 496 111 583 q 144 331 111 408 q 236 196 178 254 q 372 104 294 138 q 536 71 449 71 m 536 100 q 383 131 454 100 q 257 216 311 163 q 172 342 203 269 q 140 496 140 414 q 172 648 140 576 q 257 773 203 719 q 383 857 311 826 q 536 888 454 888 q 689 857 617 888 q 815 773 761 826 q 899 648 868 719 q 931 496 931 576 q 899 342 931 414 q 815 216 868 269 q 689 131 761 163 q 536 100 617 100 m 536 161 q 611 176 576 161 q 674 212 646 190 q 723 260 701 233 q 758 310 744 286 q 537 281 647 281 q 314 310 426 282 q 349 260 328 286 q 398 212 369 233 q 460 176 426 190 q 536 161 494 161 m 300 331 q 774 331 535 276 l 849 450 l 224 450 l 300 331 m 590 496 l 538 622 l 485 496 l 590 496 m 408 593 q 419 592 411 590 q 435 599 426 594 q 449 607 443 603 q 454 613 454 611 q 422 693 435 651 q 386 768 410 735 q 368 768 382 774 q 340 753 354 763 q 314 733 325 743 q 306 721 303 724 l 408 593 m 767 721 q 759 733 769 724 q 734 753 749 743 q 706 768 719 763 q 688 768 692 774 q 650 693 661 735 q 622 613 639 651 q 625 607 619 611 q 638 599 631 603 q 654 592 646 594 q 667 593 663 590 l 767 721 m 896 69 l 875 69 l 875 85 l 932 85 l 932 69 l 911 69 l 911 17 l 896 17 l 896 69 m 939 85 l 960 85 l 972 32 l 985 85 l 1004 85 l 1004 17 l 992 17 l 992 69 l 978 17 l 965 17 l 951 69 l 951 17 l 939 17 l 939 85 z "},"Þ":{"ha":1074,"x_min":46,"x_max":1028,"o":"m 536 4 q 345 43 435 4 q 189 149 256 82 q 84 305 122 215 q 46 496 46 394 q 84 687 46 597 q 189 843 122 776 q 345 949 256 910 q 536 988 435 988 q 727 949 638 988 q 883 843 817 910 q 989 687 950 776 q 1028 496 1028 597 q 989 305 1028 394 q 883 149 950 215 q 727 43 817 82 q 536 4 638 4 m 536 71 q 702 104 625 71 q 836 196 779 138 q 926 331 893 254 q 960 496 960 408 q 926 660 960 583 q 836 795 893 738 q 702 886 779 853 q 536 919 625 919 q 372 886 449 919 q 236 795 294 853 q 144 660 178 738 q 111 496 111 583 q 144 331 111 408 q 236 196 178 254 q 372 104 294 138 q 536 71 449 71 m 536 100 q 383 131 454 100 q 257 216 311 163 q 172 342 203 269 q 140 496 140 414 q 172 648 140 576 q 257 773 203 719 q 383 857 311 826 q 536 888 454 888 q 689 857 617 888 q 815 773 761 826 q 899 648 868 719 q 931 496 931 576 q 899 342 931 414 q 815 216 868 269 q 689 131 761 163 q 536 100 617 100 m 536 161 q 611 176 576 161 q 674 212 646 190 q 723 260 701 233 q 758 310 744 286 q 537 281 647 281 q 314 310 426 282 q 349 260 328 286 q 398 212 369 233 q 460 176 426 190 q 536 161 494 161 m 300 331 q 774 331 535 276 l 849 450 l 224 450 l 300 331 m 590 496 l 538 622 l 485 496 l 590 496 m 408 593 q 419 592 411 590 q 435 599 426 594 q 449 607 443 603 q 454 613 454 611 q 422 693 435 651 q 386 768 410 735 q 368 768 382 774 q 340 753 354 763 q 314 733 325 743 q 306 721 303 724 l 408 593 m 767 721 q 759 733 769 724 q 734 753 749 743 q 706 768 719 763 q 688 768 692 774 q 650 693 661 735 q 622 613 639 651 q 625 607 619 611 q 638 599 631 603 q 654 592 646 594 q 667 593 663 590 l 767 721 m 896 69 l 875 69 l 875 85 l 932 85 l 932 69 l 911 69 l 911 17 l 896 17 l 896 69 m 939 85 l 960 85 l 972 32 l 985 85 l 1004 85 l 1004 17 l 992 17 l 992 69 l 978 17 l 965 17 l 951 69 l 951 17 l 939 17 l 939 85 z "},"à":{"ha":631,"x_min":-90,"x_max":756,"o":"m 546 794 l 364 333 l 465 333 l 546 794 m -90 -253 l 457 1010 l 756 1010 l 618 0 l 410 0 l 442 182 l 307 182 l 128 -253 l -90 -253 z "},"á":{"ha":469,"x_min":-39,"x_max":736,"o":"m 332 1010 l 736 1010 l 682 828 l 489 828 l 424 606 l 614 606 l 561 426 l 371 426 l 172 -253 l -39 -253 l 332 1010 z "},"â":{"ha":593,"x_min":-40,"x_max":856,"o":"m 558 0 l 350 0 l 475 426 l 369 426 l 168 -253 l -40 -253 l 332 1010 l 540 1010 l 422 606 l 528 606 l 647 1010 l 856 1010 l 558 0 z "},"ã":{"ha":285,"x_min":-40,"x_max":547,"o":"m 175 -253 l -40 -253 l 332 1010 l 547 1010 l 175 -253 z "},"ä":{"ha":589,"x_min":-40,"x_max":846,"o":"m 846 1010 l 719 581 q 683 528 710 553 q 600 504 656 503 q 642 492 626 503 q 666 464 658 481 q 674 426 674 447 q 668 386 674 406 l 554 0 l 346 0 l 461 390 q 463 420 468 410 q 436 431 457 431 l 371 431 l 168 -253 l -40 -253 l 332 1010 l 540 1010 l 414 579 l 476 579 q 507 587 494 579 q 526 618 519 594 l 642 1010 l 846 1010 z "},"å":{"ha":765,"x_min":-40,"x_max":1029,"o":"m 411 561 l 169 -253 l -40 -253 l 332 1010 l 540 1010 l 576 657 l 813 1010 l 1029 1010 l 731 0 l 521 0 l 686 561 l 456 246 l 411 561 z "},"æ":{"ha":574,"x_min":-40,"x_max":836,"o":"m 332 1010 l 511 1010 l 518 619 l 633 1010 l 836 1010 l 539 0 l 371 0 l 353 403 l 157 -253 l -40 -253 l 332 1010 z "},"ç":{"ha":572,"x_min":-40,"x_max":807,"o":"m 169 -253 l -40 -253 l 332 1010 l 703 1010 q 760 999 738 1010 q 793 969 782 988 q 806 928 804 951 q 800 881 807 906 l 661 407 q 605 329 646 354 q 515 296 564 304 q 415 290 465 288 q 332 299 365 293 l 169 -253 m 451 451 q 477 458 468 451 q 493 490 486 465 l 586 806 q 585 836 592 825 q 554 847 578 847 l 493 847 l 376 451 l 451 451 z "},"è":{"ha":590,"x_min":-40,"x_max":829,"o":"m 169 -253 l -40 -253 l 332 1010 l 714 1010 q 806 971 782 1010 q 814 882 829 932 l 713 539 q 684 498 706 517 q 624 479 663 479 q 664 449 647 475 q 664 368 681 422 l 556 0 l 346 0 l 463 396 q 463 419 467 408 q 440 431 460 431 l 371 431 l 169 -253 m 486 579 q 515 587 501 579 q 535 618 528 594 l 590 806 q 558 847 603 847 l 493 847 l 414 579 l 486 579 z "},"é":{"ha":538,"x_min":92,"x_max":811,"o":"m 322 1010 l 811 1010 l 757 828 l 615 828 l 301 -253 l 92 -253 l 413 828 l 268 828 l 322 1010 l 322 1010 z "},"ê":{"ha":604,"x_min":-40,"x_max":861,"o":"m 735 581 q 606 504 711 503 q 674 466 656 501 q 678 386 692 431 l 564 0 l 353 0 l 469 394 q 470 420 474 410 q 443 431 467 431 l 411 431 q 379 425 388 431 q 365 401 371 419 l 171 -253 l -40 -253 l 151 396 q 165 434 157 415 q 188 468 174 453 q 225 494 203 483 q 281 506 247 504 q 217 536 232 506 q 214 608 201 567 l 332 1010 l 543 1010 l 426 611 q 429 585 421 592 q 454 579 438 579 l 492 579 q 517 585 507 579 q 533 615 526 592 l 650 1010 l 861 1010 l 735 581 z "},"ë":{"ha":601,"x_min":128,"x_max":864,"o":"m 239 315 q 165 347 185 315 q 161 433 144 378 l 332 1010 l 542 1010 l 392 506 q 389 478 386 489 q 413 467 392 467 l 461 467 q 489 474 481 467 q 504 501 497 482 l 654 1010 l 864 1010 l 690 424 q 644 344 675 374 q 550 315 614 315 l 490 315 l 325 -253 l 128 -253 l 293 315 l 239 315 z "},"ì":{"ha":507,"x_min":-39,"x_max":910,"o":"m 386 1194 l 619 1194 l 513 829 l 724 829 l 663 624 l 451 624 l 194 -253 l -39 -253 l 386 1194 m 851 1228 l 285 1228 l 413 1429 l 910 1429 l 851 1228 z "},"í":{"ha":656,"x_min":-40,"x_max":1042,"o":"m 539 517 l 575 640 l 458 640 l 193 -253 l -40 -253 l 456 1429 l 689 1429 l 511 824 l 629 824 l 667 950 l 815 718 l 539 517 m 822 683 l 621 0 l 385 0 l 522 463 l 822 683 m 678 992 l 807 1429 l 1042 1429 l 840 743 l 678 992 z "},"î":{"ha":653,"x_min":-40,"x_max":1067,"o":"m 193 -253 l -40 -253 l 208 590 l 443 590 l 193 -253 m 456 1429 l 685 1429 l 488 757 l 500 757 l 826 1429 l 1067 1429 l 718 742 q 767 725 749 739 q 794 690 786 711 q 801 642 803 669 q 792 586 800 615 l 618 0 l 383 0 l 551 567 q 553 609 560 594 q 515 624 546 624 l 218 624 l 456 1429 z "},"ï":{"ha":996,"x_min":-40,"x_max":1353,"o":"m 614 0 l 381 0 l 732 1194 l 965 1194 l 614 0 m 193 -253 l -40 -253 l 386 1194 l 619 1194 l 193 -253 m 1074 1179 q 1035 1228 1088 1228 l 285 1228 l 413 1429 l 1210 1429 q 1321 1382 1289 1429 q 1332 1264 1353 1335 l 960 0 l 726 0 l 1074 1179 z "},"ð":{"ha":651,"x_min":-40,"x_max":1007,"o":"m 193 -253 l -40 -253 l 386 1194 l 619 1194 l 193 -253 m 728 1179 q 689 1228 742 1228 l 285 1228 l 413 1429 l 864 1429 q 975 1382 943 1429 q 986 1264 1007 1335 l 614 0 l 381 0 l 728 1179 z "},"ñ":{"ha":650,"x_min":-40,"x_max":1004,"o":"m 533 615 q 567 626 553 615 q 593 669 582 636 l 740 1172 q 703 1228 756 1228 l 285 1228 l 413 1429 l 867 1429 q 975 1382 946 1429 q 983 1264 1004 1335 l 782 588 q 764 538 775 565 q 731 488 753 511 q 676 449 710 464 q 590 433 642 433 l 397 435 l 193 -253 l -40 -253 l 386 1194 l 619 1194 l 450 615 l 533 615 z "},"ò":{"ha":650,"x_min":-39,"x_max":1004,"o":"m 578 767 q 613 777 597 767 q 638 821 628 788 l 740 1172 q 703 1228 756 1228 l 285 1228 l 413 1429 l 867 1429 q 975 1382 946 1429 q 983 1264 1004 1335 l 826 739 q 790 681 817 707 q 710 656 764 656 q 770 607 760 651 q 763 501 781 563 l 614 0 l 381 0 l 542 544 q 540 575 547 564 q 511 586 533 586 l 442 586 l 194 -253 l -39 -253 l 386 1194 l 619 1194 l 494 767 l 578 767 z "},"ó":{"ha":308,"x_min":-37,"x_max":899,"o":"m 624 1194 l 196 -253 l -37 -253 l 389 1194 l 624 1194 m 185 1228 l 272 1429 l 899 1429 l 839 1228 l 185 1228 z "},"ô":{"ha":658,"x_min":-40,"x_max":1044,"o":"m 860 799 q 717 714 833 713 q 763 701 744 713 q 792 672 782 689 q 803 631 803 654 q 797 585 804 608 l 624 0 l 389 0 l 564 594 q 564 621 568 610 q 536 632 560 632 l 501 632 q 466 626 476 632 q 450 601 456 621 l 196 -253 l -40 -253 l 211 596 q 226 637 217 617 q 252 674 236 657 q 292 701 268 690 q 354 714 317 713 q 283 751 300 718 q 279 829 265 783 l 456 1429 l 694 1429 l 518 832 q 520 803 511 810 q 547 797 529 797 l 588 797 q 617 804 606 797 q 635 836 628 811 l 808 1429 l 1044 1429 l 860 799 z "},"õ":{"ha":657,"x_min":38,"x_max":1147,"o":"m 599 1429 l 631 882 l 900 1429 l 1147 1429 l 282 -253 l 38 -253 l 440 546 l 361 1429 l 599 1429 z "},"ö":{"ha":625,"x_min":69,"x_max":914,"o":"m 296 -253 l 69 -253 l 351 326 l 301 1010 l 508 1010 l 526 636 l 700 1010 l 914 1010 l 296 -253 l 296 -253 z "},"÷":{"ha":596,"x_min":-40,"x_max":858,"o":"m 421 606 l 532 606 l 603 847 l 518 847 q 496 840 503 847 q 486 822 489 833 l 421 606 m 354 0 l 481 426 l 369 426 l 168 -253 l -40 -253 l 304 915 q 353 985 317 960 q 438 1010 389 1010 l 858 1010 l 561 0 l 354 0 z "},"ø":{"ha":626,"x_min":-103,"x_max":901,"o":"m 901 1010 l 625 536 l 614 0 l 415 0 l 424 363 l 113 -253 l -103 -253 l 322 547 l 310 1010 l 513 1010 l 511 682 l 686 1010 l 901 1010 z "},"ù":{"ha":657,"x_min":-40,"x_max":1043,"o":"m 511 824 l 633 824 l 750 1228 l 665 1228 q 634 1218 644 1228 q 619 1193 624 1208 l 511 824 m 388 0 l 576 636 l 456 636 l 193 -253 l -40 -253 l 417 1296 q 485 1394 435 1358 q 606 1429 535 1429 l 1043 1429 l 622 0 l 388 0 z "},"ú":{"ha":733,"x_min":-99,"x_max":1118,"o":"m 743 758 l 724 0 l 506 0 l 525 522 l 135 -253 l -99 -253 l 443 771 l 429 1431 l 654 1431 l 642 954 l 885 1431 l 1118 1431 l 743 758 z "},"û":{"ha":656,"x_min":-39,"x_max":1042,"o":"m 621 0 l 388 0 l 575 640 l 458 640 l 194 -253 l -39 -253 l 456 1429 l 689 1429 l 513 824 l 629 824 l 808 1429 l 1042 1429 l 621 0 z "},"ü":{"ha":842,"x_min":-39,"x_max":1228,"o":"m 514 843 l 193 -253 l -39 -253 l 456 1429 l 683 1429 l 689 929 l 990 1429 l 1228 1429 l 806 0 l 572 0 l 821 843 l 521 349 l 514 843 z "},"ý":{"ha":657,"x_min":-40,"x_max":1044,"o":"m 193 -253 l -40 -253 l 457 1429 l 647 1429 l 731 1147 l 814 1429 l 1044 1429 l 622 0 l 392 0 l 632 813 l 564 1003 l 193 -253 z "},"þ":{"ha":749,"x_min":-10,"x_max":714,"o":"m 451 1121 l 356 474 l 479 474 l 479 1121 l 451 1121 m 297 1429 l 714 1429 l 714 0 l 479 0 l 479 257 l 314 257 l 226 -253 l -10 -253 l 297 1429 z "},"ÿ":{"ha":728,"x_min":-56,"x_max":931,"o":"m 679 1121 l 646 1121 l 442 474 l 554 474 l 679 1121 m -56 -253 l 556 1429 l 931 1429 l 693 0 l 464 0 l 514 257 l 365 257 l 185 -253 l -56 -253 z "},"":{"ha":1074,"x_min":46,"x_max":1028,"o":"m 536 4 q 345 43 435 4 q 189 149 256 82 q 84 305 122 215 q 46 496 46 394 q 84 687 46 597 q 189 843 122 776 q 345 949 256 910 q 536 988 435 988 q 727 949 638 988 q 883 843 817 910 q 989 687 950 776 q 1028 496 1028 597 q 989 305 1028 394 q 883 149 950 215 q 727 43 817 82 q 536 4 638 4 m 536 71 q 702 104 625 71 q 836 196 779 138 q 926 331 893 254 q 960 496 960 408 q 926 660 960 583 q 836 795 893 738 q 702 886 779 853 q 536 919 625 919 q 372 886 449 919 q 236 795 294 853 q 144 660 178 738 q 111 496 111 583 q 144 331 111 408 q 236 196 178 254 q 372 104 294 138 q 536 71 449 71 m 536 100 q 383 131 454 100 q 257 216 311 163 q 172 342 203 269 q 140 496 140 414 q 172 648 140 576 q 257 773 203 719 q 383 857 311 826 q 536 888 454 888 q 689 857 617 888 q 815 773 761 826 q 899 648 868 719 q 931 496 931 576 q 899 342 931 414 q 815 216 868 269 q 689 131 761 163 q 536 100 617 100 m 536 161 q 611 176 576 161 q 674 212 646 190 q 723 260 701 233 q 758 310 744 286 q 537 281 647 281 q 314 310 426 282 q 349 260 328 286 q 398 212 369 233 q 460 176 426 190 q 536 161 494 161 m 300 331 q 774 331 535 276 l 849 450 l 224 450 l 300 331 m 590 496 l 538 622 l 485 496 l 590 496 m 408 593 q 419 592 411 590 q 435 599 426 594 q 449 607 443 603 q 454 613 454 611 q 422 693 435 651 q 386 768 410 735 q 368 768 382 774 q 340 753 354 763 q 314 733 325 743 q 306 721 303 724 l 408 593 m 767 721 q 759 733 769 724 q 734 753 749 743 q 706 768 719 763 q 688 768 692 774 q 650 693 661 735 q 622 613 639 651 q 625 607 619 611 q 638 599 631 603 q 654 592 646 594 q 667 593 663 590 l 767 721 m 896 69 l 875 69 l 875 85 l 932 85 l 932 69 l 911 69 l 911 17 l 896 17 l 896 69 m 939 85 l 960 85 l 972 32 l 985 85 l 1004 85 l 1004 17 l 992 17 l 992 69 l 978 17 l 965 17 l 951 69 l 951 17 l 939 17 l 939 85 z "},"´":{"ha":1074,"x_min":46,"x_max":1028,"o":"m 536 4 q 345 43 435 4 q 189 149 256 82 q 84 305 122 215 q 46 496 46 394 q 84 687 46 597 q 189 843 122 776 q 345 949 256 910 q 536 988 435 988 q 727 949 638 988 q 883 843 817 910 q 989 687 950 776 q 1028 496 1028 597 q 989 305 1028 394 q 883 149 950 215 q 727 43 817 82 q 536 4 638 4 m 536 71 q 702 104 625 71 q 836 196 779 138 q 926 331 893 254 q 960 496 960 408 q 926 660 960 583 q 836 795 893 738 q 702 886 779 853 q 536 919 625 919 q 372 886 449 919 q 236 795 294 853 q 144 660 178 738 q 111 496 111 583 q 144 331 111 408 q 236 196 178 254 q 372 104 294 138 q 536 71 449 71 m 536 100 q 383 131 454 100 q 257 216 311 163 q 172 342 203 269 q 140 496 140 414 q 172 648 140 576 q 257 773 203 719 q 383 857 311 826 q 536 888 454 888 q 689 857 617 888 q 815 773 761 826 q 899 648 868 719 q 931 496 931 576 q 899 342 931 414 q 815 216 868 269 q 689 131 761 163 q 536 100 617 100 m 536 161 q 611 176 576 161 q 674 212 646 190 q 723 260 701 233 q 758 310 744 286 q 537 281 647 281 q 314 310 426 282 q 349 260 328 286 q 398 212 369 233 q 460 176 426 190 q 536 161 494 161 m 300 331 q 774 331 535 276 l 849 450 l 224 450 l 300 331 m 590 496 l 538 622 l 485 496 l 590 496 m 408 593 q 419 592 411 590 q 435 599 426 594 q 449 607 443 603 q 454 613 454 611 q 422 693 435 651 q 386 768 410 735 q 368 768 382 774 q 340 753 354 763 q 314 733 325 743 q 306 721 303 724 l 408 593 m 767 721 q 759 733 769 724 q 734 753 749 743 q 706 768 719 763 q 688 768 692 774 q 650 693 661 735 q 622 613 639 651 q 625 607 619 611 q 638 599 631 603 q 654 592 646 594 q 667 593 663 590 l 767 721 m 896 69 l 875 69 l 875 85 l 932 85 l 932 69 l 911 69 l 911 17 l 896 17 l 896 69 m 939 85 l 960 85 l 972 32 l 985 85 l 1004 85 l 1004 17 l 992 17 l 992 69 l 978 17 l 965 17 l 951 69 l 951 17 l 939 17 l 939 85 z "},"":{"ha":4931,"x_min":197,"x_max":4874,"o":"m 1286 1010 l 1493 1010 l 1481 536 l 1604 1010 l 1811 1010 l 1521 0 l 1286 0 l 1286 1010 m 2321 1010 l 2503 1010 l 2506 663 l 2608 1010 l 2817 1010 l 2519 0 l 2338 0 l 2335 376 l 2224 0 l 2021 0 l 2321 1010 m 1224 278 l 1224 0 l 994 0 l 994 33 l 1224 278 m 994 81 l 994 207 l 661 207 l 451 -253 l 197 -253 l 965 1429 l 1224 1429 l 1224 318 l 994 564 l 994 946 l 743 390 l 994 390 l 994 515 l 1199 297 l 994 81 m 3456 1010 l 3835 1010 l 3779 828 l 3611 828 l 3546 606 l 3711 606 l 3656 426 l 3492 426 l 3422 192 l 3610 192 l 3540 0 l 3156 0 l 3456 1010 m 1876 1010 l 2257 1010 l 2203 828 l 2033 828 l 1968 606 l 2133 606 l 2079 426 l 1914 426 l 1844 192 l 2033 192 l 1961 0 l 1579 0 l 1876 1010 m 3154 828 q 3135 826 3143 828 q 3119 817 3126 824 q 3047 735 3079 774 q 2983 646 3015 696 q 2971 622 2975 632 q 2961 594 2967 613 l 2850 218 q 2849 178 2840 188 q 2883 168 2857 168 l 2950 168 l 3026 426 l 2983 426 l 3036 606 l 3278 606 l 3111 39 l 2878 -79 l 2900 0 l 2763 0 q 2701 11 2731 0 q 2653 45 2672 22 q 2627 103 2633 68 q 2635 183 2621 138 l 2788 701 q 2801 738 2794 724 q 2818 768 2807 751 q 2909 883 2858 831 q 3018 988 2960 935 q 3049 1006 3035 1003 q 3079 1010 3063 1010 l 3357 1010 l 3303 828 l 3154 828 m 4038 571 q 4067 576 4053 571 q 4088 606 4081 582 l 4147 806 q 4117 847 4160 847 l 4050 847 l 3968 571 l 4038 571 m 3804 0 l 3597 0 l 3894 1010 l 4271 1010 q 4328 998 4306 1010 q 4361 969 4350 986 q 4374 929 4372 951 q 4369 886 4375 907 l 4257 503 q 4213 446 4246 464 q 4135 428 4179 428 l 4142 0 l 3933 0 l 3933 428 l 3804 0 m 4640 828 q 4622 817 4626 828 q 4615 792 4618 804 q 4614 765 4611 779 l 4689 293 q 4692 242 4693 269 q 4682 190 4690 214 l 4636 61 q 4597 16 4625 32 q 4532 0 4569 0 l 4222 0 l 4281 192 l 4431 192 q 4451 197 4446 192 q 4460 211 4457 201 q 4470 258 4468 239 q 4465 310 4472 276 l 4394 676 q 4392 742 4388 713 q 4400 796 4396 772 q 4416 866 4407 836 q 4439 932 4425 896 q 4493 994 4454 979 q 4581 1010 4532 1010 l 4874 1010 l 4814 828 l 4640 828 z "},"À":{"ha":507,"x_min":-39,"x_max":910,"o":"m 403 1250 l 382 1429 l 910 1429 l 851 1228 l 629 1228 l 513 829 l 724 829 l 663 624 l 451 624 l 194 -253 l -39 -253 l 403 1250 z "},"Á":{"ha":507,"x_min":-40,"x_max":910,"o":"m 851 1228 l 629 1228 l 513 829 l 724 829 l 663 624 l 451 624 l 196 -253 l -40 -253 l 456 1429 l 910 1429 l 851 1228 z "},"Â":{"ha":360,"x_min":7,"x_max":943,"o":"m 289 1429 l 943 1429 l 883 1228 l 678 1228 l 242 -253 l 7 -253 l 443 1228 l 229 1228 l 289 1429 l 289 1429 z "},"Ã":{"ha":665,"x_min":142,"x_max":1049,"o":"m 297 464 q 213 497 235 464 q 208 593 190 531 l 456 1429 l 688 1429 l 465 676 q 463 643 458 656 q 490 631 467 631 l 543 631 q 574 640 565 631 q 592 669 583 649 l 815 1429 l 1049 1429 l 799 582 q 747 495 782 526 q 640 464 713 464 l 579 464 l 369 -253 l 142 -253 l 351 464 l 297 464 z "}}}
